<svg xmlns="http://www.w3.org/2000/svg" xmlns:xlink="http://www.w3.org/1999/xlink" xmlns:lucid="lucid" width="1322.9" height="1870.67"><g transform="translate(0 0)" lucid:page-tab-id="0_0"><path d="M0 0h1322.9v1870.67H0z" fill="#fff"/><path d="M159 1268c0-4.42 3.6-8 8-8h144c4.43 0 8 3.58 8 8v104c0 4.42-3.57 8-8 8H167c-4.4 0-8-3.58-8-8z" stroke="#000" stroke-opacity="0" stroke-width="2" fill="#ff8839"/><use xlink:href="#a" transform="matrix(1,0,0,1,171.01312774752955,1272) translate(6.799999999999997 40.8)"/><use xlink:href="#b" transform="matrix(1,0,0,1,171.01312774752955,1272) translate(57.7 40.8)"/><use xlink:href="#c" transform="matrix(1,0,0,1,171.01312774752955,1272) translate(82.7 40.8)"/><use xlink:href="#d" transform="matrix(1,0,0,1,171.01312774752955,1272) translate(41.5 62.4)"/><path d="M120 1017.47c0-4.42 3.58-8 8-8h224c4.42 0 8 3.58 8 8v44c0 4.42-3.58 8-8 8H128c-4.42 0-8-3.58-8-8z" stroke="#000" stroke-opacity="0" fill="#fff" fill-opacity="0"/><use xlink:href="#e" transform="matrix(1,0,0,1,125,1014.4671640648041) translate(86.17901234567903 32.15555555555555)"/><path d="M159 1472.7c0-4.4 3.6-8 8-8h144c4.43 0 8 3.6 8 8v104c0 4.43-3.57 8-8 8H167c-4.4 0-8-3.57-8-8z" stroke="#000" stroke-opacity="0" stroke-width="2" fill="#ff8839"/><use xlink:href="#f" transform="matrix(1,0,0,1,171.01312774752955,1476.7111940108007) translate(24.049999999999997 40.8)"/><use xlink:href="#g" transform="matrix(1,0,0,1,171.01312774752955,1476.7111940108007) translate(67.95 40.8)"/><use xlink:href="#h" transform="matrix(1,0,0,1,171.01312774752955,1476.7111940108007) translate(34.025 62.4)"/><path d="M239 1380.5v67.83" stroke="#333" fill="none"/><path d="M239.5 1380.5h-1v-.5h1z" stroke="#333" stroke-width=".05" fill="#333"/><path d="M239 1463.1l-4.62-14.27h9.27z" stroke="#333" fill="#333"/><path d="M160 1672.7c0-4.4 3.58-8 8-8h144c4.42 0 8 3.6 8 8v104c0 4.43-3.58 8-8 8H168c-4.42 0-8-3.57-8-8z" stroke="#000" stroke-opacity="0" stroke-width="2" fill="#ff8839"/><use xlink:href="#i" transform="matrix(1,0,0,1,172,1676.7111940108007) translate(3.0749999999999886 30)"/><use xlink:href="#j" transform="matrix(1,0,0,1,172,1676.7111940108007) translate(63.974999999999994 30)"/><use xlink:href="#k" transform="matrix(1,0,0,1,172,1676.7111940108007) translate(10.574999999999996 51.6)"/><use xlink:href="#l" transform="matrix(1,0,0,1,172,1676.7111940108007) translate(24.574999999999996 51.6)"/><use xlink:href="#m" transform="matrix(1,0,0,1,172,1676.7111940108007) translate(106.42500000000001 51.6)"/><use xlink:href="#n" transform="matrix(1,0,0,1,172,1676.7111940108007) translate(11.074999999999996 73.2)"/><use xlink:href="#o" transform="matrix(1,0,0,1,172,1676.7111940108007) translate(76.975 73.2)"/><path d="M239 1585.2v63.13" stroke="#333" fill="none"/><path d="M239.5 1585.22h-1v-.5h1z" stroke="#333" stroke-width=".05" fill="#333"/><path d="M239 1663.1l-4.62-14.27h9.27z" stroke="#333" fill="#333"/><path d="M240 1785.2v27.5c0 6.64 5.37 12 12 12h96c6.63 0 12-5.36 12-12V1332c0-6.63-5.37-12-12-12h-12.6" stroke="#333" fill="none"/><path d="M240.5 1785.22h-1v-.5h1z" stroke="#333" stroke-width=".05" fill="#333"/><path d="M320.63 1320l14.27-4.64v9.28z" stroke="#333" fill="#333"/><path d="M221.94 28c0-4.42 3.6-8 8-8h863.02c4.4 0 8 3.58 8 8v38.87c0 4.42-3.6 8-8 8H229.94c-4.4 0-8-3.58-8-8z" stroke="#000" stroke-opacity="0" stroke-width="2" fill="#fff" fill-opacity="0"/><use xlink:href="#p" transform="matrix(1,0,0,1,225.9432965386801,24) translate(232.81 30.084444444444443)"/><use xlink:href="#q" transform="matrix(1,0,0,1,225.9432965386801,24) translate(355.0346913580247 30.084444444444443)"/><use xlink:href="#r" transform="matrix(1,0,0,1,225.9432965386801,24) translate(464.14827160493826 30.084444444444443)"/><use xlink:href="#s" transform="matrix(1,0,0,1,225.9432965386801,24) translate(480.10012345679013 30.084444444444443)"/><path d="M521.45 921.6c0-4.42 3.58-8 8-8h264c4.42 0 8 3.58 8 8v79.87c0 4.42-3.58 8-8 8h-264c-4.42 0-8-3.58-8-8z" stroke="#000" stroke-opacity="0" fill="#fff" fill-opacity="0"/><use xlink:href="#t" transform="matrix(1,0,0,1,526.4498604124449,918.6004973981376) translate(15.889814814814883 50.15555555555555)"/><use xlink:href="#u" transform="matrix(1,0,0,1,526.4498604124449,918.6004973981376) translate(144.8885802469136 50.15555555555555)"/><path d="M940 1017.47c0-4.42 3.58-8 8-8h224c4.42 0 8 3.58 8 8v44c0 4.42-3.58 8-8 8H948c-4.42 0-8-3.58-8-8z" stroke="#000" stroke-opacity="0" fill="#fff" fill-opacity="0"/><use xlink:href="#v" transform="matrix(1,0,0,1,945,1014.4671640648041) translate(50.45092592592596 32.15555555555555)"/><path d="M288 1080c17.67 0 32 17.9 32 40s-14.33 40-32 40h-96c-17.67 0-32-17.9-32-40s14.33-40 32-40z" stroke="#000" stroke-opacity="0" fill="#ff741d"/><use xlink:href="#w" transform="matrix(1,0,0,1,165,1085) translate(56.025 38.6)"/><path d="M240 1160.5v83.12" stroke="#333" fill="none"/><path d="M240.5 1160.5h-1v-.5h1z" stroke="#333" stroke-width=".05" fill="#333"/><path d="M240 1258.38l-4.64-14.26h9.28z" stroke="#333" fill="#333"/><path d="M520 55.44c0-4.42 3.58-8 8-8h224c4.42 0 8 3.58 8 8v44c0 4.42-3.58 8-8 8H528c-4.42 0-8-3.58-8-8z" stroke="#000" stroke-opacity="0" fill="#fff" fill-opacity="0"/><use xlink:href="#x" transform="matrix(1,0,0,1,525,52.43681597100418) translate(61.12499999999999 28.6)"/><use xlink:href="#y" transform="matrix(1,0,0,1,525,52.43681597100418) translate(117.975 28.6)"/><path d="M689.45 286.16c17.67 0 32 17.9 32 40s-14.33 40-32 40h-96c-17.67 0-32-17.9-32-40s14.33-40 32-40z" stroke="#fff" fill="#ff741d"/><use xlink:href="#z" transform="matrix(1,0,0,1,566.4498604124449,291.1636814271335) translate(56.025 38.6)"/><path d="M561.45 429.87c0-4.42 3.58-8 8-8h144c4.42 0 8 3.58 8 8v104c0 4.42-3.58 8-8 8h-144c-4.42 0-8-3.58-8-8z" stroke="#000" stroke-opacity="0" stroke-width="2" fill="#ff8839"/><use xlink:href="#a" transform="matrix(1,0,0,1,573.4498604124449,433.86766146294167) translate(5.125 40.8)"/><use xlink:href="#b" transform="matrix(1,0,0,1,573.4498604124449,433.86766146294167) translate(56.025000000000006 40.8)"/><use xlink:href="#A" transform="matrix(1,0,0,1,573.4498604124449,433.86766146294167) translate(81.025 40.8)"/><use xlink:href="#B" transform="matrix(1,0,0,1,573.4498604124449,433.86766146294167) translate(27.75 62.4)"/><use xlink:href="#C" transform="matrix(1,0,0,1,573.4498604124449,433.86766146294167) translate(83.25 62.4)"/><path d="M641.45 367.16v38.32" stroke="#333" fill="none"/><path d="M641.95 367.18h-1v-.52h1z" stroke="#333" stroke-width=".05" fill="#333"/><path d="M641.45 420.25l-4.64-14.27h9.3z" stroke="#333" fill="#333"/><path d="M400 635.73c0-4.4 3.58-8 8-8h144c4.42 0 8 3.6 8 8v104c0 4.42-3.58 8-8 8H408c-4.42 0-8-3.58-8-8z" stroke="#000" stroke-opacity="0" stroke-width="2" fill="#ff8839"/><use xlink:href="#D" transform="matrix(1,0,0,1,412,639.7340794305396) translate(3.0749999999999886 19.19999999999999)"/><use xlink:href="#E" transform="matrix(1,0,0,1,412,639.7340794305396) translate(72.925 19.19999999999999)"/><use xlink:href="#F" transform="matrix(1,0,0,1,412,639.7340794305396) translate(112.925 19.19999999999999)"/><use xlink:href="#G" transform="matrix(1,0,0,1,412,639.7340794305396) translate(35.05 40.79999999999999)"/><use xlink:href="#H" transform="matrix(1,0,0,1,412,639.7340794305396) translate(12.624999999999993 62.39999999999999)"/><use xlink:href="#I" transform="matrix(1,0,0,1,412,639.7340794305396) translate(113.375 62.39999999999999)"/><use xlink:href="#J" transform="matrix(1,0,0,1,412,639.7340794305396) translate(31.549999999999997 84)"/><use xlink:href="#K" transform="matrix(1,0,0,1,412,639.7340794305396) translate(90.5 84)"/><path d="M510.37 585.3h-18.34l-3 .4-2.77 1.14-2.4 1.83-1.82 2.4-1.14 2.75-.4 3v14.53h-1v-14.58l.42-3.2 1.24-3 2-2.6 2.6-2 3-1.25 3.2-.42h18.4zm131.58-12.47l-.42 3.22-1.24 3-2 2.6-2.6 2-3 1.23-3.22.42h-18.4v-1h18.34l3-.4 2.77-1.14 2.38-1.83 1.83-2.4 1.15-2.75.4-3v-30.4h1z" stroke="#333" stroke-width=".05" fill="#333"/><path d="M641.95 542.38h-1v-.5h1z" fill="#333"/><path d="M641.97 542.4h-1.05v-.56h1.05zm-1-.5v.46h.95v-.47z" stroke="#333" stroke-width=".05" fill="#333"/><path d="M480 626.12l-4.64-14.27h9.28z" fill="#333"/><path d="M480 627.73l-5.32-16.38h10.64zm-3.95-15.38L480 624.5l3.95-12.15z" stroke="#333" stroke-width=".05" fill="#333"/><use xlink:href="#L" transform="matrix(1,0,0,1,510.3749302062224,574.0008704467407) translate(0.005000000000002558 14.4)"/><use xlink:href="#M" transform="matrix(1,0,0,1,510.3749302062224,574.0008704467407) translate(55.50500000000001 14.4)"/><path d="M720 801.6c0-4.42 3.58-8 8-8h144c4.42 0 8 3.58 8 8v104c0 4.42-3.58 8-8 8H728c-4.42 0-8-3.58-8-8z" stroke="#000" stroke-opacity="0" stroke-width="2" fill="#ff8839"/><use xlink:href="#N" transform="matrix(1,0,0,1,732,805.6004973981376) translate(13.549999999999997 30)"/><use xlink:href="#E" transform="matrix(1,0,0,1,732,805.6004973981376) translate(62.45 30)"/><use xlink:href="#F" transform="matrix(1,0,0,1,732,805.6004973981376) translate(102.45 30)"/><use xlink:href="#O" transform="matrix(1,0,0,1,732,805.6004973981376) translate(31 51.6)"/><use xlink:href="#P" transform="matrix(1,0,0,1,732,805.6004973981376) translate(6.25 73.2)"/><path d="M720 635.73c0-4.4 3.58-8 8-8h144c4.42 0 8 3.6 8 8v104c0 4.42-3.58 8-8 8H728c-4.42 0-8-3.58-8-8z" stroke="#000" stroke-opacity="0" stroke-width="2" fill="#ff8839"/><use xlink:href="#Q" transform="matrix(1,0,0,1,732,639.7340794305396) translate(15.049999999999997 19.19999999999999)"/><use xlink:href="#E" transform="matrix(1,0,0,1,732,639.7340794305396) translate(71.95 19.19999999999999)"/><use xlink:href="#R" transform="matrix(1,0,0,1,732,639.7340794305396) translate(111.95 19.19999999999999)"/><use xlink:href="#B" transform="matrix(1,0,0,1,732,639.7340794305396) translate(30.25 40.79999999999999)"/><use xlink:href="#F" transform="matrix(1,0,0,1,732,639.7340794305396) translate(85.75 40.79999999999999)"/><use xlink:href="#S" transform="matrix(1,0,0,1,732,639.7340794305396) translate(34.05 62.39999999999999)"/><use xlink:href="#T" transform="matrix(1,0,0,1,732,639.7340794305396) translate(31 84)"/><path d="M788.03 584.3l3.2.42 3 1.24 2.6 2 2 2.6 1.25 3 .42 3.2v14.6h-1v-14.53l-.4-3-1.14-2.77-1.83-2.4-2.4-1.82-2.75-1.14-3-.4h-16.9v-1zm-145.68-8.52l1.14 2.76 1.82 2.4 2.4 1.82 2.75 1.15 3 .4h16.9v1h-16.95l-3.2-.42-3-1.24-2.6-2-2-2.6-1.25-3-.42-3.2v-30.47h1v30.4z" stroke="#333" stroke-width=".05" fill="#333"/><path d="M641.95 542.38h-1v-.5h1z" fill="#333"/><path d="M641.97 542.4h-1.05v-.56h1.05zm-1-.5v.46h.95v-.47z" stroke="#333" stroke-width=".05" fill="#333"/><path d="M800 626.12l-4.64-14.27h9.28z" fill="#333"/><path d="M800 627.73l-5.32-16.38h10.64zm-3.95-15.38L800 624.5l3.95-12.15z" stroke="#333" stroke-width=".05" fill="#333"/><use xlink:href="#L" transform="matrix(1,0,0,1,670.3749302062224,574.0008704467407) translate(0.005000000000002558 14.4)"/><use xlink:href="#M" transform="matrix(1,0,0,1,670.3749302062224,574.0008704467407) translate(55.50500000000001 14.4)"/><path d="M800 748.23v29" stroke="#333" fill="none"/><path d="M800.5 748.25h-1v-.52h1z" stroke="#333" stroke-width=".05" fill="#333"/><path d="M800 791.98l-4.64-14.26h9.28z" stroke="#333" fill="#333"/><path d="M580 115.44c0-4.42 3.58-8 8-8h104c4.42 0 8 3.58 8 8v44c0 4.42-3.58 8-8 8H588c-4.42 0-8-3.58-8-8z" stroke="#000" stroke-opacity="0" fill="#fff" fill-opacity="0"/><use xlink:href="#U" transform="matrix(1,0,0,1,585,112.43681597100418) translate(2.42654320987657 32.15555555555555)"/><path d="M545.07 482.37H372.03l-3 .4-2.77 1.13-2.4 1.84-1.82 2.4-1.14 2.74-.4 3.02v181.8l.4 3.02 1.14 2.75 1.83 2.4 2.4 1.83 2.75 1.14 3 .4h27.48v1h-27.53l-3.2-.43-3-1.23-2.6-2-2-2.6-1.25-3-.42-3.2V493.84l.42-3.22 1.24-3 2-2.6 2.6-2 3-1.23 3.2-.43h173.1z" stroke="#333" stroke-width=".05" fill="#333"/><path d="M400 688.23h-.5v-1h.5z" fill="#333"/><path d="M400.02 688.26h-.56v-1.05h.56zm-.5-1v.95h.46v-.94z" stroke="#333" stroke-width=".05" fill="#333"/><path d="M559.83 481.87l-14.26 4.63v-9.27z" fill="#333"/><path d="M561.45 481.87l-16.38 5.32v-10.66zm-15.38 3.94l12.14-3.93-12.13-3.95zM911.24 481.8l3 1.23 2.6 2 2 2.6 1.24 3 .42 3.2v181.94l-.42 3.2-1.24 3-2 2.6-2.6 2-3 1.24-3.2.43H880.5v-1h27.47l3-.4 2.77-1.13 2.4-1.84 1.82-2.4 1.14-2.74.4-3.02V493.9l-.4-3.02-1.14-2.75-1.83-2.4-2.4-1.83-2.75-1.14-3-.4H737.82v-1h170.2z" stroke="#333" stroke-width=".05" fill="#333"/><path d="M880.5 688.23h-.5v-1h.5z" fill="#333"/><path d="M880.54 688.26h-.56v-1.05h.56zm-.5-1v.95h.45v-.94z" stroke="#333" stroke-width=".05" fill="#333"/><path d="M737.33 486.5l-14.26-4.63 14.26-4.64z" fill="#333"/><path d="M737.83 487.2l-16.38-5.33 16.38-5.33zm-13.14-5.33l12.13 3.94v-7.88z" stroke="#333" stroke-width=".05" fill="#333"/><path d="M440 161.6c0-4.42 3.58-8 8-8h384c4.42 0 8 3.58 8 8v122.8c0 4.42-3.58 8-8 8H448c-4.42 0-8-3.58-8-8z" stroke="#000" stroke-opacity="0" fill="#fff" fill-opacity="0"/><use xlink:href="#V" transform="matrix(1,0,0,1,445,158.60049739813758) translate(40.062345679012424 71.65555555555555)"/><use xlink:href="#W" transform="matrix(1,0,0,1,445,158.60049739813758) translate(125.43209876543213 71.65555555555555)"/><use xlink:href="#X" transform="matrix(1,0,0,1,445,158.60049739813758) translate(155.24691358024694 71.65555555555555)"/><use xlink:href="#Y" transform="matrix(1,0,0,1,445,158.60049739813758) translate(300.24629629629624 71.65555555555555)"/><path d="M580.46 1268c0-4.42 3.58-8 8-8h144c4.42 0 8 3.58 8 8v104c0 4.42-3.58 8-8 8h-144c-4.42 0-8-3.58-8-8z" stroke="#000" stroke-opacity="0" stroke-width="2" fill="#ff8839"/><g><use xlink:href="#Z" transform="matrix(1,0,0,1,592.4629881599744,1272) translate(1.0499999999999972 40.8)"/><use xlink:href="#aa" transform="matrix(1,0,0,1,592.4629881599744,1272) translate(51.95 40.8)"/><use xlink:href="#ab" transform="matrix(1,0,0,1,592.4629881599744,1272) translate(76.95 40.8)"/><use xlink:href="#ac" transform="matrix(1,0,0,1,592.4629881599744,1272) translate(14.024999999999999 62.4)"/><use xlink:href="#ad" transform="matrix(1,0,0,1,592.4629881599744,1272) translate(68.025 62.4)"/></g><path d="M580.46 1472.7c0-4.4 3.58-8 8-8h144c4.42 0 8 3.6 8 8v104c0 4.43-3.58 8-8 8h-144c-4.42 0-8-3.57-8-8z" stroke="#000" stroke-opacity="0" stroke-width="2" fill="#ff8839"/><g><use xlink:href="#ae" transform="matrix(1,0,0,1,592.4629881599744,1476.7111940108007) translate(24.049999999999997 40.8)"/><use xlink:href="#af" transform="matrix(1,0,0,1,592.4629881599744,1476.7111940108007) translate(67.95 40.8)"/><use xlink:href="#ag" transform="matrix(1,0,0,1,592.4629881599744,1476.7111940108007) translate(34.025 62.4)"/></g><path d="M660.46 1380.5v67.83" stroke="#333" fill="none"/><path d="M660.96 1380.5h-1v-.5h1z" stroke="#333" stroke-width=".05" fill="#333"/><path d="M660.46 1463.1l-4.63-14.27h9.27z" stroke="#333" fill="#333"/><path d="M581.45 1672.7c0-4.4 3.58-8 8-8h144c4.42 0 8 3.6 8 8v104c0 4.43-3.58 8-8 8h-144c-4.42 0-8-3.57-8-8z" stroke="#000" stroke-opacity="0" stroke-width="2" fill="#ff8839"/><g><use xlink:href="#ah" transform="matrix(1,0,0,1,593.4498604124449,1676.7111940108007) translate(42.55 19.19999999999999)"/><use xlink:href="#ai" transform="matrix(1,0,0,1,593.4498604124449,1676.7111940108007) translate(18.049999999999997 40.79999999999999)"/><use xlink:href="#aj" transform="matrix(1,0,0,1,593.4498604124449,1676.7111940108007) translate(14.549999999999997 62.39999999999999)"/><use xlink:href="#ak" transform="matrix(1,0,0,1,593.4498604124449,1676.7111940108007) translate(88.5 62.39999999999999)"/><use xlink:href="#al" transform="matrix(1,0,0,1,593.4498604124449,1676.7111940108007) translate(46.525 84)"/></g><path d="M660.46 1585.2v63.13" stroke="#333" fill="none"/><path d="M660.96 1585.22h-1v-.5h1z" stroke="#333" stroke-width=".05" fill="#333"/><path d="M660.46 1663.1l-4.63-14.27h9.27z" stroke="#333" fill="#333"/><path d="M661.45 1785.2v27.5c0 6.64 5.37 12 12 12h96c6.63 0 12-5.36 12-12V1332c0-6.63-5.37-12-12-12h-12.6" stroke="#333" fill="none"/><path d="M661.95 1785.22h-1v-.5h1z" stroke="#333" stroke-width=".05" fill="#333"/><path d="M742.08 1320l14.27-4.64v9.28z" stroke="#333" fill="#333"/><path d="M709.45 1080c17.67 0 32 17.9 32 40s-14.33 40-32 40h-96c-17.67 0-32-17.9-32-40s14.33-40 32-40z" stroke="#000" stroke-opacity="0" fill="#ff741d"/><g><use xlink:href="#am" transform="matrix(1,0,0,1,586.4498604124449,1085) translate(56.025 38.6)"/></g><path d="M661.45 1160.5v83.12" stroke="#333" fill="none"/><path d="M661.95 1160.5h-1v-.5h1z" stroke="#333" stroke-width=".05" fill="#333"/><path d="M661.45 1258.38l-4.64-14.26h9.3z" stroke="#333" fill="#333"/><path d="M541.45 1008c0-4.42 3.58-8 8-8h224c4.42 0 8 3.58 8 8v44c0 4.42-3.58 8-8 8h-224c-4.42 0-8-3.58-8-8z" stroke="#000" stroke-opacity="0" fill="#fff" fill-opacity="0"/><g><use xlink:href="#an" transform="matrix(1,0,0,1,546.4498604124449,1005) translate(32.71111111111115 32.15555555555555)"/><use xlink:href="#ao" transform="matrix(1,0,0,1,546.4498604124449,1005) translate(147.5975308641975 32.15555555555555)"/></g><path d="M980 1268c0-4.42 3.58-8 8-8h144c4.42 0 8 3.58 8 8v104c0 4.42-3.58 8-8 8H988c-4.42 0-8-3.58-8-8z" stroke="#000" stroke-opacity="0" stroke-width="2" fill="#ff8839"/><g><use xlink:href="#ae" transform="matrix(1,0,0,1,992,1272) translate(24.049999999999997 40.8)"/><use xlink:href="#af" transform="matrix(1,0,0,1,992,1272) translate(67.95 40.8)"/><use xlink:href="#ag" transform="matrix(1,0,0,1,992,1272) translate(34.025 62.4)"/></g><path d="M980 1472.7c0-4.4 3.58-8 8-8h144c4.42 0 8 3.6 8 8v104c0 4.43-3.58 8-8 8H988c-4.42 0-8-3.57-8-8z" stroke="#000" stroke-opacity="0" stroke-width="2" fill="#ff8839"/><g><use xlink:href="#ap" transform="matrix(1,0,0,1,992,1476.7111940108007) translate(13.049999999999997 30)"/><use xlink:href="#aq" transform="matrix(1,0,0,1,992,1476.7111940108007) translate(73.95 30)"/><use xlink:href="#ar" transform="matrix(1,0,0,1,992,1476.7111940108007) translate(113.95 30)"/><use xlink:href="#as" transform="matrix(1,0,0,1,992,1476.7111940108007) translate(16.5 51.6)"/><use xlink:href="#at" transform="matrix(1,0,0,1,992,1476.7111940108007) translate(40.5 73.2)"/></g><path d="M1060 1380.5v67.83" stroke="#333" fill="none"/><path d="M1060.5 1380.5h-1v-.5h1z" stroke="#333" stroke-width=".05" fill="#333"/><path d="M1060 1463.1l-4.64-14.27h9.28z" stroke="#333" fill="#333"/><path d="M981 1672.7c0-4.4 3.57-8 8-8h144c4.4 0 8 3.6 8 8v104c0 4.43-3.6 8-8 8H989c-4.43 0-8-3.57-8-8z" stroke="#000" stroke-opacity="0" stroke-width="2" fill="#ff8839"/><g><use xlink:href="#Z" transform="matrix(1,0,0,1,992.9868722524707,1676.7111940108007) translate(1.5499999999999972 30)"/><use xlink:href="#au" transform="matrix(1,0,0,1,992.9868722524707,1676.7111940108007) translate(52.45 30)"/><use xlink:href="#av" transform="matrix(1,0,0,1,992.9868722524707,1676.7111940108007) translate(20.025 51.6)"/><use xlink:href="#aa" transform="matrix(1,0,0,1,992.9868722524707,1676.7111940108007) translate(53.025 51.6)"/><use xlink:href="#aw" transform="matrix(1,0,0,1,992.9868722524707,1676.7111940108007) translate(78.025 51.6)"/><use xlink:href="#ax" transform="matrix(1,0,0,1,992.9868722524707,1676.7111940108007) translate(46 73.2)"/></g><path d="M1060 1585.2V1648.34" stroke="#333" fill="none"/><path d="M1060.5 1585.22h-1v-.5h1z" stroke="#333" stroke-width=".05" fill="#333"/><path d="M1060 1663.1l-4.64-14.27h9.28z" stroke="#333" fill="#333"/><path d="M1061 1785.2v27.5c0 6.64 5.36 12 12 12h96c6.6 0 12-5.36 12-12V1332c0-6.63-5.4-12-12-12h-12.62" stroke="#333" fill="none"/><path d="M1061.5 1785.22h-1v-.5h1z" stroke="#333" stroke-width=".05" fill="#333"/><path d="M1141.62 1320l14.26-4.64v9.28z" stroke="#333" fill="#333"/><path d="M1109 1080c17.66 0 32 17.9 32 40s-14.34 40-32 40h-96c-17.7 0-32-17.9-32-40s14.3-40 32-40z" stroke="#000" stroke-opacity="0" fill="#ff741d"/><g><use xlink:href="#am" transform="matrix(1,0,0,1,985.9868722524707,1085) translate(56.025 38.6)"/></g><path d="M1061 1160.5v83.12" stroke="#333" fill="none"/><path d="M1061.5 1160.5h-1v-.5h1z" stroke="#333" stroke-width=".05" fill="#333"/><path d="M1061 1258.38l-4.65-14.26h9.27z" stroke="#333" fill="#333"/><defs><path fill="#333" d="M158-269h-36c-13-16-32-26-41-46 30-2 39 17 59 25 19-9 27-27 57-25-8 20-27 29-39 46zm54 90c-10-28-35-45-73-45-59 0-87 40-87 99 0 60 29 101 89 101 43 0 62-24 78-52l27 14C228-24 195 4 139 4 59 4 22-46 18-125c-6-104 99-153 187-111 19 9 31 26 39 46" id="ay"/><path fill="#333" d="M100-194c63 0 86 42 84 106H49c0 40 14 67 53 68 26 1 43-12 49-29l28 8c-11 28-37 45-77 45C44 4 14-33 15-96c1-61 26-98 85-98zm52 81c6-60-76-77-97-28-3 7-6 17-6 28h103" id="az"/><path fill="#333" d="M143 0L79-87 56-68V0H24v-261h32v163l83-92h37l-77 82L181 0h-38" id="aA"/><path fill="#333" d="M24-231v-30h32v30H24zM-9 49c24 4 33-6 33-30v-209h32V24c2 40-23 58-65 49V49" id="aB"/><g id="a"><use transform="matrix(0.05,0,0,0.05,0,0)" xlink:href="#ay"/><use transform="matrix(0.05,0,0,0.05,12.950000000000001,0)" xlink:href="#az"/><use transform="matrix(0.05,0,0,0.05,22.950000000000003,0)" xlink:href="#aA"/><use transform="matrix(0.05,0,0,0.05,31.950000000000003,0)" xlink:href="#az"/><use transform="matrix(0.05,0,0,0.05,41.95,0)" xlink:href="#aB"/></g><path fill="#333" d="M117-194c89-4 53 116 60 194h-32v-121c0-31-8-49-39-48C34-167 62-67 57 0H25l-1-190h30c1 10-1 24 2 32 11-22 29-35 61-36" id="aC"/><path fill="#333" d="M141-36C126-15 110 5 73 4 37 3 15-17 15-53c-1-64 63-63 125-63 3-35-9-54-41-54-24 1-41 7-42 31l-33-3c5-37 33-52 76-52 45 0 72 20 72 64v82c-1 20 7 32 28 27v20c-31 9-61-2-59-35zM48-53c0 20 12 33 32 33 41-3 63-29 60-74-43 2-92-5-92 41" id="aD"/><g id="b"><use transform="matrix(0.05,0,0,0.05,0,0)" xlink:href="#aC"/><use transform="matrix(0.05,0,0,0.05,10,0)" xlink:href="#aD"/></g><path fill="#333" d="M197 0v-115H63V0H30v-248h33v105h134v-105h34V0h-34" id="aE"/><path fill="#333" d="M127-220V0H93v-220H8v-28h204v28h-85" id="aF"/><path fill="#333" d="M30-248c87 1 191-15 191 75 0 78-77 80-158 76V0H30v-248zm33 125c57 0 124 11 124-50 0-59-68-47-124-48v98" id="aG"/><g id="c"><use transform="matrix(0.05,0,0,0.05,0,0)" xlink:href="#aE"/><use transform="matrix(0.05,0,0,0.05,12.950000000000001,0)" xlink:href="#aF"/><use transform="matrix(0.05,0,0,0.05,23.900000000000002,0)" xlink:href="#aF"/><use transform="matrix(0.05,0,0,0.05,34.85,0)" xlink:href="#aG"/></g><path fill="#333" d="M9 0v-24l116-142H16v-24h144v24L44-24h123V0H9zm95-211H68c-13-18-31-30-41-51 32-2 39 20 59 30 19-10 26-32 57-30-9 21-27 33-39 51" id="aH"/><path fill="#333" d="M141-36C126-15 110 5 73 4 37 3 15-17 15-53c-1-64 63-63 125-63 3-35-9-54-41-54-24 1-41 7-42 31l-33-3c5-37 33-52 76-52 45 0 72 20 72 64v82c-1 20 7 32 28 27v20c-31 9-61-2-59-35zM48-53c0 20 12 33 32 33 41-3 63-29 60-74-43 2-92-5-92 41zm25-158c8-23 27-35 38-54h36v5l-58 49H73" id="aI"/><path fill="#333" d="M85-194c31 0 48 13 60 33l-1-100h32l1 261h-30c-2-10 0-23-3-31C134-8 116 4 85 4 32 4 16-35 15-94c0-66 23-100 70-100zm9 24c-40 0-46 34-46 75 0 40 6 74 45 74 42 0 51-32 51-76 0-42-9-74-50-73" id="aJ"/><path fill="#333" d="M100-194c62-1 85 37 85 99 1 63-27 99-86 99S16-35 15-95c0-66 28-99 85-99zM99-20c44 1 53-31 53-75 0-43-8-75-51-75s-53 32-53 75 10 74 51 75" id="aK"/><path fill="#333" d="M135-143c-3-34-86-38-87 0 15 53 115 12 119 90S17 21 10-45l28-5c4 36 97 45 98 0-10-56-113-15-118-90-4-57 82-63 122-42 12 7 21 19 24 35" id="aL"/><path fill="#333" d="M59-47c-2 24 18 29 38 22v24C64 9 27 4 27-40v-127H5v-23h24l9-43h21v43h35v23H59v120" id="aM"/><g id="d"><use transform="matrix(0.05,0,0,0.05,0,0)" xlink:href="#aH"/><use transform="matrix(0.05,0,0,0.05,9,0)" xlink:href="#aI"/><use transform="matrix(0.05,0,0,0.05,19,0)" xlink:href="#aJ"/><use transform="matrix(0.05,0,0,0.05,29,0)" xlink:href="#aK"/><use transform="matrix(0.05,0,0,0.05,39,0)" xlink:href="#aL"/><use transform="matrix(0.05,0,0,0.05,48,0)" xlink:href="#aM"/></g><path fill="#333" d="M205 0l-28-72H64L36 0H1l101-248h38L239 0h-34zm-38-99l-47-123c-12 45-31 82-46 123h93" id="aN"/><path fill="#333" d="M33 0v-248h34V0H33" id="aO"/><g id="e"><use transform="matrix(0.09938271604938267,0,0,0.09938271604938267,0,0)" xlink:href="#aN"/><use transform="matrix(0.09938271604938267,0,0,0.09938271604938267,23.85185185185184,0)" xlink:href="#aG"/><use transform="matrix(0.09938271604938267,0,0,0.09938271604938267,47.70370370370368,0)" xlink:href="#aO"/></g><path fill="#333" d="M135-143c-3-34-86-38-87 0 15 53 115 12 119 90S17 21 10-45l28-5c4 36 97 45 98 0-10-56-113-15-118-90-4-57 82-63 122-42 12 7 21 19 24 35zm-28-68H71c-13-18-31-30-41-51 32-2 39 20 59 30 19-10 26-32 57-30-9 21-27 33-39 51" id="aP"/><path fill="#333" d="M24 0v-261h32V0H24" id="aQ"/><path fill="#333" d="M24-231v-30h32v30H24zM24 0v-190h32V0H24" id="aR"/><g id="f"><use transform="matrix(0.05,0,0,0.05,0,0)" xlink:href="#aG"/><use transform="matrix(0.05,0,0,0.05,12,0)" xlink:href="#aK"/><use transform="matrix(0.05,0,0,0.05,22,0)" xlink:href="#aP"/><use transform="matrix(0.05,0,0,0.05,31,0)" xlink:href="#aQ"/><use transform="matrix(0.05,0,0,0.05,34.95,0)" xlink:href="#aR"/></g><path fill="#333" d="M9 0v-24l116-142H16v-24h144v24L44-24h123V0H9" id="aS"/><g id="g"><use transform="matrix(0.05,0,0,0.05,0,0)" xlink:href="#aJ"/><use transform="matrix(0.05,0,0,0.05,10,0)" xlink:href="#aK"/><use transform="matrix(0.05,0,0,0.05,20,0)" xlink:href="#aM"/><use transform="matrix(0.05,0,0,0.05,25,0)" xlink:href="#aD"/><use transform="matrix(0.05,0,0,0.05,35,0)" xlink:href="#aS"/></g><path fill="#333" d="M115-194c53 0 69 39 70 98 0 66-23 100-70 100C84 3 66-7 56-30L54 0H23l1-261h32v101c10-23 28-34 59-34zm-8 174c40 0 45-34 45-75 0-40-5-75-45-74-42 0-51 32-51 76 0 43 10 73 51 73" id="aT"/><g id="h"><use transform="matrix(0.05,0,0,0.05,0,0)" xlink:href="#aJ"/><use transform="matrix(0.05,0,0,0.05,10,0)" xlink:href="#aD"/><use transform="matrix(0.05,0,0,0.05,20,0)" xlink:href="#aM"/><use transform="matrix(0.05,0,0,0.05,25,0)" xlink:href="#aD"/><use transform="matrix(0.05,0,0,0.05,35,0)" xlink:href="#aT"/><use transform="matrix(0.05,0,0,0.05,45,0)" xlink:href="#aI"/><use transform="matrix(0.05,0,0,0.05,55,0)" xlink:href="#aS"/><use transform="matrix(0.05,0,0,0.05,64,0)" xlink:href="#aR"/></g><path fill="#333" d="M209 0H11v-25l151-195H24v-28h176v25L50-27h159V0" id="aU"/><path fill="#333" d="M114-163C36-179 61-72 57 0H25l-1-190h30c1 12-1 29 2 39 6-27 23-49 58-41v29" id="aV"/><g id="i"><use transform="matrix(0.05,0,0,0.05,0,0)" xlink:href="#aU"/><use transform="matrix(0.05,0,0,0.05,10.950000000000001,0)" xlink:href="#aK"/><use transform="matrix(0.05,0,0,0.05,20.950000000000003,0)" xlink:href="#aT"/><use transform="matrix(0.05,0,0,0.05,30.950000000000003,0)" xlink:href="#aV"/><use transform="matrix(0.05,0,0,0.05,36.900000000000006,0)" xlink:href="#aD"/><use transform="matrix(0.05,0,0,0.05,46.900000000000006,0)" xlink:href="#aS"/></g><path fill="#333" d="M108 0H70L1-190h34L89-25l56-165h34" id="aW"/><path fill="#333" d="M179-190L93 31C79 59 56 82 12 73V49c39 6 53-20 64-50L1-190h34L92-34l54-156h33zM63-211c8-23 27-35 38-54h36v5l-58 49H63" id="aX"/><path fill="#333" d="M179-190L93 31C79 59 56 82 12 73V49c39 6 53-20 64-50L1-190h34L92-34l54-156h33" id="aY"/><g id="j"><use transform="matrix(0.05,0,0,0.05,0,0)" xlink:href="#aW"/><use transform="matrix(0.05,0,0,0.05,9,0)" xlink:href="#aX"/><use transform="matrix(0.05,0,0,0.05,18,0)" xlink:href="#aL"/><use transform="matrix(0.05,0,0,0.05,27,0)" xlink:href="#aQ"/><use transform="matrix(0.05,0,0,0.05,30.950000000000003,0)" xlink:href="#az"/><use transform="matrix(0.05,0,0,0.05,40.95,0)" xlink:href="#aJ"/><use transform="matrix(0.05,0,0,0.05,50.95,0)" xlink:href="#aA"/><use transform="matrix(0.05,0,0,0.05,59.95,0)" xlink:href="#aY"/></g><use transform="matrix(0.05,0,0,0.05,0,0)" xlink:href="#aW" id="k"/><path fill="#333" d="M115-194c55 1 70 41 70 98S169 2 115 4C84 4 66-9 55-30l1 105H24l-1-265h31l2 30c10-21 28-34 59-34zm-8 174c40 0 45-34 45-75s-6-73-45-74c-42 0-51 32-51 76 0 43 10 73 51 73" id="aZ"/><path fill="#333" d="M106-169C34-169 62-67 57 0H25v-261h32l-1 103c12-21 28-36 61-36 89 0 53 116 60 194h-32v-121c2-32-8-49-39-48" id="ba"/><path fill="#333" d="M34 0v-190h32V0H34zM24-211c8-23 27-35 38-54h36v5l-58 49H24" id="bb"/><path fill="#333" d="M96-169c-40 0-48 33-48 73s9 75 48 75c24 0 41-14 43-38l32 2c-6 37-31 61-74 61-59 0-76-41-82-99-10-93 101-131 147-64 4 7 5 14 7 22l-32 3c-4-21-16-35-41-35zm19-42H79c-13-18-31-30-41-51 32-2 39 20 59 30 19-10 26-32 57-30-9 21-27 33-39 51" id="bc"/><g id="l"><use transform="matrix(0.05,0,0,0.05,0,0)" xlink:href="#aZ"/><use transform="matrix(0.05,0,0,0.05,10,0)" xlink:href="#aV"/><use transform="matrix(0.05,0,0,0.05,15.949999999999998,0)" xlink:href="#aK"/><use transform="matrix(0.05,0,0,0.05,25.950000000000003,0)" xlink:href="#ba"/><use transform="matrix(0.05,0,0,0.05,35.95,0)" xlink:href="#aQ"/><use transform="matrix(0.05,0,0,0.05,39.900000000000006,0)" xlink:href="#bb"/><use transform="matrix(0.05,0,0,0.05,44.900000000000006,0)" xlink:href="#aH"/><use transform="matrix(0.05,0,0,0.05,53.900000000000006,0)" xlink:href="#az"/><use transform="matrix(0.05,0,0,0.05,63.900000000000006,0)" xlink:href="#bc"/><use transform="matrix(0.05,0,0,0.05,72.9,0)" xlink:href="#aR"/></g><g id="m"><use transform="matrix(0.05,0,0,0.05,0,0)" xlink:href="#aW"/><use transform="matrix(0.05,0,0,0.05,9,0)" xlink:href="#az"/></g><path fill="#333" d="M101-234c-31-9-42 10-38 44h38v23H63V0H32v-167H5v-23h27c-7-52 17-82 69-68v24" id="bd"/><path fill="#333" d="M210-169c-67 3-38 105-44 169h-31v-121c0-29-5-50-35-48C34-165 62-65 56 0H25l-1-190h30c1 10-1 24 2 32 10-44 99-50 107 0 11-21 27-35 58-36 85-2 47 119 55 194h-31v-121c0-29-5-49-35-48" id="be"/><path fill="#333" d="M84 4C-5 8 30-112 23-190h32v120c0 31 7 50 39 49 72-2 45-101 50-169h31l1 190h-30c-1-10 1-25-2-33-11 22-28 36-60 37" id="bf"/><g id="n"><use transform="matrix(0.05,0,0,0.05,0,0)" xlink:href="#bd"/><use transform="matrix(0.05,0,0,0.05,5,0)" xlink:href="#aK"/><use transform="matrix(0.05,0,0,0.05,15,0)" xlink:href="#aV"/><use transform="matrix(0.05,0,0,0.05,20.95,0)" xlink:href="#be"/><use transform="matrix(0.05,0,0,0.05,35.9,0)" xlink:href="#aI"/><use transform="matrix(0.05,0,0,0.05,45.9,0)" xlink:href="#aM"/><use transform="matrix(0.05,0,0,0.05,50.9,0)" xlink:href="#bf"/></g><path fill="#333" d="M153-248C145-148 188 4 80 4 36 3 13-21 6-62l32-5c4 25 16 42 43 43 27 0 39-20 39-49v-147H72v-28h81" id="bg"/><path fill="#333" d="M185-189c-5-48-123-54-124 2 14 75 158 14 163 119 3 78-121 87-175 55-17-10-28-26-33-46l33-7c5 56 141 63 141-1 0-78-155-14-162-118-5-82 145-84 179-34 5 7 8 16 11 25" id="bh"/><path fill="#333" d="M140-251c81 0 123 46 123 126C263-46 219 4 140 4 59 4 17-45 17-125s42-126 123-126zm0 227c63 0 89-41 89-101s-29-99-89-99c-61 0-89 39-89 99S79-25 140-24" id="bi"/><path fill="#333" d="M190 0L58-211 59 0H30v-248h39L202-35l-2-213h31V0h-41" id="bj"/><g id="o"><use transform="matrix(0.05,0,0,0.05,0,0)" xlink:href="#bg"/><use transform="matrix(0.05,0,0,0.05,9,0)" xlink:href="#bh"/><use transform="matrix(0.05,0,0,0.05,21,0)" xlink:href="#bi"/><use transform="matrix(0.05,0,0,0.05,35,0)" xlink:href="#bj"/></g><path fill="#a9afb8" d="M147 0H94L2-248h55l64 206c17-72 42-137 63-206h54" id="bk"/><path fill="#a9afb8" d="M123 10C108 53 80 86 19 72V37c35 8 53-11 59-39L3-190h52l48 148c12-52 28-100 44-148h51zM72-208v-5l45-51h45v8l-60 48H72" id="bl"/><path fill="#a9afb8" d="M128 0H69L1-190h53L99-40l48-150h52" id="bm"/><path fill="#a9afb8" d="M110-194c64 0 96 36 96 99 0 64-35 99-97 99-61 0-95-36-95-99 0-62 34-99 96-99zm-1 164c35 0 45-28 45-65 0-40-10-65-43-65-34 0-45 26-45 65 0 36 10 65 43 65" id="bn"/><path fill="#a9afb8" d="M25-224v-37h50v37H25zM75 22c2 45-34 59-81 51V38c22 5 31-5 31-27v-201h50V22" id="bo"/><g id="p"><use transform="matrix(0.0728395061728395,0,0,0.0728395061728395,0,0)" xlink:href="#bk"/><use transform="matrix(0.0728395061728395,0,0,0.0728395061728395,17.48148148148148,0)" xlink:href="#bl"/><use transform="matrix(0.0728395061728395,0,0,0.0728395061728395,32.04938271604938,0)" xlink:href="#bm"/><use transform="matrix(0.0728395061728395,0,0,0.0728395061728395,46.61728395061728,0)" xlink:href="#bn"/><use transform="matrix(0.0728395061728395,0,0,0.0728395061728395,62.56913580246913,0)" xlink:href="#bo"/><use transform="matrix(0.0728395061728395,0,0,0.0728395061728395,69.85308641975308,0)" xlink:href="#bn"/><use transform="matrix(0.0728395061728395,0,0,0.0728395061728395,85.80493827160494,0)" xlink:href="#bm"/><use transform="matrix(0.0728395061728395,0,0,0.0728395061728395,100.37283950617284,0)" xlink:href="#bl"/></g><path fill="#a9afb8" d="M88-194c31-1 46 15 58 34l-1-101h50l1 261h-48c-2-10 0-23-3-31C134-8 116 4 84 4 32 4 16-41 15-95c0-56 19-97 73-99zm17 164c33 0 40-30 41-66 1-37-9-64-41-64s-38 30-39 65c0 43 13 65 39 65" id="bp"/><path fill="#a9afb8" d="M25-224v-37h50v37H25zM25 0v-190h50V0H25" id="bq"/><path fill="#a9afb8" d="M133-34C117-15 103 5 69 4 32 3 11-16 11-54c-1-60 55-63 116-61 1-26-3-47-28-47-18 1-26 9-28 27l-52-2c7-38 36-58 82-57s74 22 75 68l1 82c-1 14 12 18 25 15v27c-30 8-71 5-69-32zm-48 3c29 0 43-24 42-57-32 0-66-3-65 30 0 17 8 27 23 27" id="br"/><path fill="#a9afb8" d="M195-6C206 82 75 100 31 46c-4-6-6-13-8-21l49-6c3 16 16 24 34 25 40 0 42-37 40-79-11 22-30 35-61 35-53 0-70-43-70-97 0-56 18-96 73-97 30 0 46 14 59 34l2-30h47zm-90-29c32 0 41-27 41-63 0-35-9-62-40-62-32 0-39 29-40 63 0 36 9 62 39 62" id="bs"/><path fill="#a9afb8" d="M135-150c-39-12-60 13-60 57V0H25l-1-190h47c2 13-1 29 3 40 6-28 27-53 61-41v41" id="bt"/><path fill="#a9afb8" d="M220-157c-53 9-28 100-34 157h-49v-107c1-27-5-49-29-50C55-147 81-57 75 0H25l-1-190h47c2 12-1 28 3 38 10-53 101-56 108 0 13-22 24-43 59-42 82 1 51 116 57 194h-49v-107c-1-25-5-48-29-50" id="bu"/><g id="q"><use transform="matrix(0.0728395061728395,0,0,0.0728395061728395,0,0)" xlink:href="#bp"/><use transform="matrix(0.0728395061728395,0,0,0.0728395061728395,15.95185185185185,0)" xlink:href="#bq"/><use transform="matrix(0.0728395061728395,0,0,0.0728395061728395,23.235802469135802,0)" xlink:href="#br"/><use transform="matrix(0.0728395061728395,0,0,0.0728395061728395,37.803703703703704,0)" xlink:href="#bs"/><use transform="matrix(0.0728395061728395,0,0,0.0728395061728395,53.75555555555555,0)" xlink:href="#bt"/><use transform="matrix(0.0728395061728395,0,0,0.0728395061728395,63.953086419753085,0)" xlink:href="#br"/><use transform="matrix(0.0728395061728395,0,0,0.0728395061728395,78.52098765432099,0)" xlink:href="#bu"/></g><path fill="#a9afb8" d="M14-72v-43h91v43H14" id="bv"/><use transform="matrix(0.0728395061728395,0,0,0.0728395061728395,0,0)" xlink:href="#bv" id="r"/><path fill="#a9afb8" d="M230 0l2-204L168 0h-37L68-204 70 0H24v-248h70l56 185 57-185h69V0h-46" id="bw"/><path fill="#a9afb8" d="M185-48c-13 30-37 53-82 52C43 2 14-33 14-96s30-98 90-98c62 0 83 45 84 108H66c0 31 8 55 39 56 18 0 30-7 34-22zm-45-69c5-46-57-63-70-21-2 6-4 13-4 21h74" id="bx"/><path fill="#a9afb8" d="M115-3C79 11 28 4 28-45v-112H4v-33h27l15-45h31v45h36v33H77v99c-1 23 16 31 38 25v30" id="by"/><path fill="#a9afb8" d="M137-138c1-29-70-34-71-4 15 46 118 7 119 86 1 83-164 76-172 9l43-7c4 19 20 25 44 25 33 8 57-30 24-41C81-84 22-81 20-136c-2-80 154-74 161-7" id="bz"/><path fill="#a9afb8" d="M135-194c87-1 58 113 63 194h-50c-7-57 23-157-34-157-59 0-34 97-39 157H25l-1-190h47c2 12-1 28 3 38 12-26 28-41 61-42" id="bA"/><path fill="#a9afb8" d="M190-63c-7 42-38 67-86 67-59 0-84-38-90-98-12-110 154-137 174-36l-49 2c-2-19-15-32-35-32-30 0-35 28-38 64-6 74 65 87 74 30" id="bB"/><g id="s"><use transform="matrix(0.0728395061728395,0,0,0.0728395061728395,0,0)" xlink:href="#bw"/><use transform="matrix(0.0728395061728395,0,0,0.0728395061728395,21.77901234567901,0)" xlink:href="#bx"/><use transform="matrix(0.0728395061728395,0,0,0.0728395061728395,36.34691358024691,0)" xlink:href="#by"/><use transform="matrix(0.0728395061728395,0,0,0.0728395061728395,45.01481481481481,0)" xlink:href="#bx"/><use transform="matrix(0.0728395061728395,0,0,0.0728395061728395,59.582716049382704,0)" xlink:href="#bn"/><use transform="matrix(0.0728395061728395,0,0,0.0728395061728395,75.53456790123457,0)" xlink:href="#bz"/><use transform="matrix(0.0728395061728395,0,0,0.0728395061728395,90.10246913580247,0)" xlink:href="#by"/><use transform="matrix(0.0728395061728395,0,0,0.0728395061728395,98.77037037037037,0)" xlink:href="#br"/><use transform="matrix(0.0728395061728395,0,0,0.0728395061728395,113.33827160493827,0)" xlink:href="#bA"/><use transform="matrix(0.0728395061728395,0,0,0.0728395061728395,129.29012345679013,0)" xlink:href="#bq"/><use transform="matrix(0.0728395061728395,0,0,0.0728395061728395,136.57407407407408,0)" xlink:href="#bB"/><use transform="matrix(0.0728395061728395,0,0,0.0728395061728395,151.14197530864197,0)" xlink:href="#bx"/></g><path fill="#333" d="M137 0h-34L2-248h35l83 218 83-218h36" id="bC"/><path fill="#333" d="M114-163C36-179 61-72 57 0H25l-1-190h30c1 12-1 29 2 39 6-27 23-49 58-41v29zm-27-48H51c-13-18-31-30-41-51 32-2 39 20 59 30 19-10 26-32 57-30-9 21-27 33-39 51" id="bD"/><g id="t"><use transform="matrix(0.09938271604938267,0,0,0.09938271604938267,0,0)" xlink:href="#bC"/><use transform="matrix(0.09938271604938267,0,0,0.09938271604938267,21.86419753086419,0)" xlink:href="#az"/><use transform="matrix(0.09938271604938267,0,0,0.09938271604938267,41.74074074074072,0)" xlink:href="#bD"/><use transform="matrix(0.09938271604938267,0,0,0.09938271604938267,53.56728395061726,0)" xlink:href="#az"/><use transform="matrix(0.09938271604938267,0,0,0.09938271604938267,73.4438271604938,0)" xlink:href="#aB"/><use transform="matrix(0.09938271604938267,0,0,0.09938271604938267,81.29506172839503,0)" xlink:href="#aC"/><use transform="matrix(0.09938271604938267,0,0,0.09938271604938267,101.17160493827156,0)" xlink:href="#aX"/><path fill="#333" d="M-1.8 2.48h132.6V5.1H-1.8z"/></g><g id="u"><use transform="matrix(0.09938271604938267,0,0,0.09938271604938267,0,0)" xlink:href="#aZ"/><use transform="matrix(0.09938271604938267,0,0,0.09938271604938267,19.876543209876534,0)" xlink:href="#bD"/><use transform="matrix(0.09938271604938267,0,0,0.09938271604938267,31.703086419753074,0)" xlink:href="#bb"/><use transform="matrix(0.09938271604938267,0,0,0.09938271604938267,41.641358024691336,0)" xlink:href="#aL"/><use transform="matrix(0.09938271604938267,0,0,0.09938271604938267,59.530246913580214,0)" xlink:href="#aM"/><use transform="matrix(0.09938271604938267,0,0,0.09938271604938267,69.46851851851848,0)" xlink:href="#bf"/><use transform="matrix(0.09938271604938267,0,0,0.09938271604938267,89.34506172839501,0)" xlink:href="#aZ"/><path fill="#333" d="M-1.8 2.48H111V5.1H-1.8z"/></g><path fill="#333" d="M143 4C61 4 22-44 18-125c-5-107 100-154 193-111 17 8 29 25 37 43l-32 9c-13-25-37-40-76-40-61 0-88 39-88 99 0 61 29 100 91 101 35 0 62-11 79-27v-45h-74v-28h105v86C228-13 192 4 143 4" id="bE"/><g id="v"><use transform="matrix(0.09938271604938267,0,0,0.09938271604938267,0,0)" xlink:href="#bE"/><use transform="matrix(0.09938271604938267,0,0,0.09938271604938267,27.827160493827147,0)" xlink:href="#aV"/><use transform="matrix(0.09938271604938267,0,0,0.09938271604938267,39.653703703703684,0)" xlink:href="#aD"/><use transform="matrix(0.09938271604938267,0,0,0.09938271604938267,59.530246913580214,0)" xlink:href="#bd"/><use transform="matrix(0.09938271604938267,0,0,0.09938271604938267,69.46851851851848,0)" xlink:href="#aD"/><use transform="matrix(0.09938271604938267,0,0,0.09938271604938267,89.34506172839501,0)" xlink:href="#aC"/><use transform="matrix(0.09938271604938267,0,0,0.09938271604938267,109.22160493827154,0)" xlink:href="#aD"/></g><path fill="#333" d="M194-120c59 52 2 134-86 124-53-6-90-18-98-63l31-7c8 30 29 43 70 43 46 0 84-17 71-62-32-43-135-20-137-98-3-89 178-90 191-16l-30 9c-8-48-127-53-127 5 0 53 81 35 115 65" id="bF"/><path fill="#333" d="M51-54c-9 22 5 41 31 30L79-1C43 14 10-4 19-52l22-115H19l5-23h22l19-43h21l-9 43h35l-4 23H73" id="bG"/><path fill="#333" d="M165-48c-4 18 1 34 23 27l-3 20c-29 8-62 0-52-35h-2C116-14 99 4 63 4 30 4 8-16 8-49c0-68 71-67 138-67 10-26 0-56-31-54-26 1-42 9-47 31l-32-5c8-67 160-71 144 15-5 28-9 54-15 81zM42-50c3 52 80 24 89-6 7-12 7-24 11-38-47 1-103-4-100 44" id="bH"/><path fill="#333" d="M66-151c12-25 30-51 66-40l-6 26C45-176 58-65 38 0H6l36-190h30" id="bI"/><g id="w"><use transform="matrix(0.05,0,0,0.05,0,0)" xlink:href="#bF"/><use transform="matrix(0.05,0,0,0.05,12,0)" xlink:href="#bG"/><use transform="matrix(0.05,0,0,0.05,17,0)" xlink:href="#bH"/><use transform="matrix(0.05,0,0,0.05,27,0)" xlink:href="#bI"/><use transform="matrix(0.05,0,0,0.05,32.95,0)" xlink:href="#bG"/></g><path fill="#333" d="M240 0l2-218c-23 76-54 145-80 218h-23L58-218 59 0H30v-248h44l77 211c21-75 51-140 76-211h43V0h-30" id="bJ"/><path fill="#333" d="M96-169c-40 0-48 33-48 73s9 75 48 75c24 0 41-14 43-38l32 2c-6 37-31 61-74 61-59 0-76-41-82-99-10-93 101-131 147-64 4 7 5 14 7 22l-32 3c-4-21-16-35-41-35" id="bK"/><g id="x"><use transform="matrix(0.05,0,0,0.05,0,0)" xlink:href="#bJ"/><use transform="matrix(0.05,0,0,0.05,14.950000000000001,0)" xlink:href="#aR"/><use transform="matrix(0.05,0,0,0.05,18.900000000000002,0)" xlink:href="#bK"/><use transform="matrix(0.05,0,0,0.05,27.900000000000002,0)" xlink:href="#ba"/><use transform="matrix(0.05,0,0,0.05,37.900000000000006,0)" xlink:href="#aD"/><use transform="matrix(0.05,0,0,0.05,47.900000000000006,0)" xlink:href="#aQ"/></g><path fill="#333" d="M160-131c35 5 61 23 61 61C221 17 115-2 30 0v-248c76 3 177-17 177 60 0 33-19 50-47 57zm-97-11c50-1 110 9 110-42 0-47-63-36-110-37v79zm0 115c55-2 124 14 124-45 0-56-70-42-124-44v89" id="bL"/><g id="y"><use transform="matrix(0.05,0,0,0.05,0,0)" xlink:href="#bL"/><use transform="matrix(0.05,0,0,0.05,12,0)" xlink:href="#aD"/><use transform="matrix(0.05,0,0,0.05,22,0)" xlink:href="#aL"/><use transform="matrix(0.05,0,0,0.05,31,0)" xlink:href="#aQ"/><use transform="matrix(0.05,0,0,0.05,34.95,0)" xlink:href="#az"/><use transform="matrix(0.05,0,0,0.05,44.95,0)" xlink:href="#aV"/></g><g id="z"><use transform="matrix(0.05,0,0,0.05,0,0)" xlink:href="#bh"/><use transform="matrix(0.05,0,0,0.05,12,0)" xlink:href="#aM"/><use transform="matrix(0.05,0,0,0.05,17,0)" xlink:href="#aD"/><use transform="matrix(0.05,0,0,0.05,27,0)" xlink:href="#aV"/><use transform="matrix(0.05,0,0,0.05,32.95,0)" xlink:href="#aM"/></g><g id="A"><use transform="matrix(0.05,0,0,0.05,0,0)" xlink:href="#aZ"/><use transform="matrix(0.05,0,0,0.05,10,0)" xlink:href="#bD"/><use transform="matrix(0.05,0,0,0.05,15.949999999999998,0)" xlink:href="#bb"/><use transform="matrix(0.05,0,0,0.05,20.95,0)" xlink:href="#aB"/><use transform="matrix(0.05,0,0,0.05,24.9,0)" xlink:href="#az"/><use transform="matrix(0.05,0,0,0.05,34.9,0)" xlink:href="#be"/></g><path fill="#333" d="M140-251c81 0 123 46 123 126C263-53 228-8 163 1c7 30 30 48 69 40v23c-55 16-95-15-103-61C56-3 17-48 17-125c0-80 42-126 123-126zm0 227c63 0 89-41 89-101s-29-99-89-99c-61 0-89 39-89 99S79-25 140-24" id="bM"/><g id="B"><use transform="matrix(0.05,0,0,0.05,0,0)" xlink:href="#bJ"/><use transform="matrix(0.05,0,0,0.05,14.950000000000001,0)" xlink:href="#bM"/><use transform="matrix(0.05,0,0,0.05,28.950000000000003,0)" xlink:href="#aF"/><use transform="matrix(0.05,0,0,0.05,39.900000000000006,0)" xlink:href="#aF"/></g><g id="C"><use transform="matrix(0.05,0,0,0.05,0,0)" xlink:href="#aJ"/><use transform="matrix(0.05,0,0,0.05,10,0)" xlink:href="#aD"/><use transform="matrix(0.05,0,0,0.05,20,0)" xlink:href="#aM"/></g><g id="D"><use transform="matrix(0.05,0,0,0.05,0,0)" xlink:href="#aG"/><use transform="matrix(0.05,0,0,0.05,12,0)" xlink:href="#bD"/><use transform="matrix(0.05,0,0,0.05,17.95,0)" xlink:href="#az"/><use transform="matrix(0.05,0,0,0.05,27.950000000000003,0)" xlink:href="#aZ"/><use transform="matrix(0.05,0,0,0.05,37.95,0)" xlink:href="#aK"/><use transform="matrix(0.05,0,0,0.05,47.95,0)" xlink:href="#aP"/><use transform="matrix(0.05,0,0,0.05,56.95,0)" xlink:href="#aQ"/><use transform="matrix(0.05,0,0,0.05,60.900000000000006,0)" xlink:href="#aR"/></g><g id="E"><use transform="matrix(0.05,0,0,0.05,0,0)" xlink:href="#aJ"/><use transform="matrix(0.05,0,0,0.05,10,0)" xlink:href="#aD"/><use transform="matrix(0.05,0,0,0.05,20,0)" xlink:href="#aM"/><use transform="matrix(0.05,0,0,0.05,25,0)" xlink:href="#aD"/></g><g id="F"><use transform="matrix(0.05,0,0,0.05,0,0)" xlink:href="#aJ"/><use transform="matrix(0.05,0,0,0.05,10,0)" xlink:href="#aK"/></g><g id="G"><use transform="matrix(0.05,0,0,0.05,0,0)" xlink:href="#aD"/><use transform="matrix(0.05,0,0,0.05,10,0)" xlink:href="#aZ"/><use transform="matrix(0.05,0,0,0.05,20,0)" xlink:href="#aQ"/><use transform="matrix(0.05,0,0,0.05,23.95,0)" xlink:href="#aR"/><use transform="matrix(0.05,0,0,0.05,27.899999999999995,0)" xlink:href="#aA"/><use transform="matrix(0.05,0,0,0.05,36.9,0)" xlink:href="#aD"/><use transform="matrix(0.05,0,0,0.05,46.9,0)" xlink:href="#bK"/><use transform="matrix(0.05,0,0,0.05,55.900000000000006,0)" xlink:href="#az"/></g><path fill="#333" d="M30-248c118-7 216 8 213 122C240-48 200 0 122 0H30v-248zM63-27c89 8 146-16 146-99s-60-101-146-95v194" id="bN"/><path fill="#333" d="M30 0v-248h187v28H63v79h144v27H63v87h162V0H30" id="bO"/><path fill="#333" d="M16-82v-28h88v28H16" id="bP"/><path fill="#333" d="M233-177c-1 41-23 64-60 70L243 0h-38l-65-103H63V0H30v-248c88 3 205-21 203 71zM63-129c60-2 137 13 137-47 0-61-80-42-137-45v92" id="bQ"/><g id="H"><use transform="matrix(0.05,0,0,0.05,0,0)" xlink:href="#bj"/><use transform="matrix(0.05,0,0,0.05,12.950000000000001,0)" xlink:href="#bi"/><use transform="matrix(0.05,0,0,0.05,26.950000000000003,0)" xlink:href="#bN"/><use transform="matrix(0.05,0,0,0.05,39.900000000000006,0)" xlink:href="#bO"/><use transform="matrix(0.05,0,0,0.05,51.900000000000006,0)" xlink:href="#bP"/><use transform="matrix(0.05,0,0,0.05,57.85,0)" xlink:href="#bQ"/><use transform="matrix(0.05,0,0,0.05,70.80000000000001,0)" xlink:href="#bO"/><use transform="matrix(0.05,0,0,0.05,82.80000000000001,0)" xlink:href="#bN"/></g><use transform="matrix(0.05,0,0,0.05,0,0)" xlink:href="#aD" id="I"/><g id="J"><use transform="matrix(0.05,0,0,0.05,0,0)" xlink:href="#aS"/><use transform="matrix(0.05,0,0,0.05,9,0)" xlink:href="#aK"/><use transform="matrix(0.05,0,0,0.05,19,0)" xlink:href="#aT"/><use transform="matrix(0.05,0,0,0.05,29,0)" xlink:href="#aV"/><use transform="matrix(0.05,0,0,0.05,34.95,0)" xlink:href="#aD"/><use transform="matrix(0.05,0,0,0.05,44.95,0)" xlink:href="#aS"/></g><g id="K"><use transform="matrix(0.05,0,0,0.05,0,0)" xlink:href="#aB"/><use transform="matrix(0.05,0,0,0.05,3.95,0)" xlink:href="#az"/></g><g id="L"><use transform="matrix(0.05,0,0,0.05,0,0)" xlink:href="#bJ"/><use transform="matrix(0.05,0,0,0.05,14.950000000000001,0)" xlink:href="#bM"/><use transform="matrix(0.05,0,0,0.05,28.950000000000003,0)" xlink:href="#aF"/><use transform="matrix(0.05,0,0,0.05,39.900000000000006,0)" xlink:href="#aF"/></g><g id="M"><use transform="matrix(0.05,0,0,0.05,0,0)" xlink:href="#bN"/><use transform="matrix(0.05,0,0,0.05,12.950000000000001,0)" xlink:href="#aN"/><use transform="matrix(0.05,0,0,0.05,23.6,0)" xlink:href="#aF"/><use transform="matrix(0.05,0,0,0.05,33.2,0)" xlink:href="#aN"/></g><g id="N"><use transform="matrix(0.05,0,0,0.05,0,0)" xlink:href="#aU"/><use transform="matrix(0.05,0,0,0.05,10.950000000000001,0)" xlink:href="#aD"/><use transform="matrix(0.05,0,0,0.05,20.950000000000003,0)" xlink:href="#aZ"/><use transform="matrix(0.05,0,0,0.05,30.950000000000003,0)" xlink:href="#aR"/><use transform="matrix(0.05,0,0,0.05,34.900000000000006,0)" xlink:href="#aP"/></g><g id="O"><use transform="matrix(0.05,0,0,0.05,0,0)" xlink:href="#aJ"/><use transform="matrix(0.05,0,0,0.05,10,0)" xlink:href="#aD"/><use transform="matrix(0.05,0,0,0.05,20,0)" xlink:href="#aM"/><use transform="matrix(0.05,0,0,0.05,25,0)" xlink:href="#aD"/><use transform="matrix(0.05,0,0,0.05,35,0)" xlink:href="#aT"/><use transform="matrix(0.05,0,0,0.05,45,0)" xlink:href="#aI"/><use transform="matrix(0.05,0,0,0.05,55,0)" xlink:href="#aS"/><use transform="matrix(0.05,0,0,0.05,64,0)" xlink:href="#az"/></g><path fill="#333" d="M266 0h-40l-56-210L115 0H75L2-248h35L96-30l15-64 43-154h32l59 218 59-218h35" id="bR"/><g id="P"><use transform="matrix(0.05,0,0,0.05,0,0)" xlink:href="#bR"/><use transform="matrix(0.05,0,0,0.05,16.599999999999998,0)" xlink:href="#az"/><use transform="matrix(0.05,0,0,0.05,26.599999999999994,0)" xlink:href="#aD"/><use transform="matrix(0.05,0,0,0.05,36.599999999999994,0)" xlink:href="#aM"/><use transform="matrix(0.05,0,0,0.05,41.599999999999994,0)" xlink:href="#ba"/><use transform="matrix(0.05,0,0,0.05,51.599999999999994,0)" xlink:href="#az"/><use transform="matrix(0.05,0,0,0.05,61.599999999999994,0)" xlink:href="#aV"/><use transform="matrix(0.05,0,0,0.05,67.55,0)" xlink:href="#bh"/><use transform="matrix(0.05,0,0,0.05,79.55,0)" xlink:href="#aM"/><use transform="matrix(0.05,0,0,0.05,84.55,0)" xlink:href="#aD"/><use transform="matrix(0.05,0,0,0.05,94.55,0)" xlink:href="#aM"/><use transform="matrix(0.05,0,0,0.05,99.55,0)" xlink:href="#aR"/><use transform="matrix(0.05,0,0,0.05,103.5,0)" xlink:href="#aK"/><use transform="matrix(0.05,0,0,0.05,113.5,0)" xlink:href="#aC"/></g><g id="Q"><use transform="matrix(0.05,0,0,0.05,0,0)" xlink:href="#aG"/><use transform="matrix(0.05,0,0,0.05,12,0)" xlink:href="#bD"/><use transform="matrix(0.05,0,0,0.05,17.95,0)" xlink:href="#az"/><use transform="matrix(0.05,0,0,0.05,27.950000000000003,0)" xlink:href="#aJ"/><use transform="matrix(0.05,0,0,0.05,37.95,0)" xlink:href="#az"/><use transform="matrix(0.05,0,0,0.05,47.95,0)" xlink:href="#aB"/></g><use transform="matrix(0.05,0,0,0.05,0,0)" xlink:href="#aS" id="R"/><path fill="#333" d="M141 0L90-78 38 0H4l68-98-65-92h35l48 74 47-74h35l-64 92 68 98h-35" id="bS"/><g id="S"><use transform="matrix(0.05,0,0,0.05,0,0)" xlink:href="#aO"/><use transform="matrix(0.05,0,0,0.05,5,0)" xlink:href="#aC"/><use transform="matrix(0.05,0,0,0.05,15,0)" xlink:href="#bd"/><use transform="matrix(0.05,0,0,0.05,20,0)" xlink:href="#aQ"/><use transform="matrix(0.05,0,0,0.05,23.95,0)" xlink:href="#bf"/><use transform="matrix(0.05,0,0,0.05,33.95,0)" xlink:href="#bS"/><use transform="matrix(0.05,0,0,0.05,42.95,0)" xlink:href="#bN"/><use transform="matrix(0.05,0,0,0.05,55.900000000000006,0)" xlink:href="#bL"/></g><g id="T"><use transform="matrix(0.05,0,0,0.05,0,0)" xlink:href="#aJ"/><use transform="matrix(0.05,0,0,0.05,10,0)" xlink:href="#aD"/><use transform="matrix(0.05,0,0,0.05,20,0)" xlink:href="#aM"/><use transform="matrix(0.05,0,0,0.05,25,0)" xlink:href="#aD"/><use transform="matrix(0.05,0,0,0.05,35,0)" xlink:href="#aT"/><use transform="matrix(0.05,0,0,0.05,45,0)" xlink:href="#aI"/><use transform="matrix(0.05,0,0,0.05,55,0)" xlink:href="#aS"/><use transform="matrix(0.05,0,0,0.05,64,0)" xlink:href="#az"/></g><g id="U"><use transform="matrix(0.09938271604938267,0,0,0.09938271604938267,0,0)" xlink:href="#bh"/><use transform="matrix(0.09938271604938267,0,0,0.09938271604938267,23.85185185185184,0)" xlink:href="#az"/><use transform="matrix(0.09938271604938267,0,0,0.09938271604938267,43.72839506172838,0)" xlink:href="#aV"/><use transform="matrix(0.09938271604938267,0,0,0.09938271604938267,55.55493827160492,0)" xlink:href="#aW"/><use transform="matrix(0.09938271604938267,0,0,0.09938271604938267,73.4438271604938,0)" xlink:href="#az"/><use transform="matrix(0.09938271604938267,0,0,0.09938271604938267,93.32037037037033,0)" xlink:href="#aV"/><path fill="#333" d="M-1.8 2.48h108.73V5.1H-1.8z"/></g><path fill="#333" d="M100-194c63 0 86 42 84 106H49c0 40 14 67 53 68 26 1 43-12 49-29l28 8c-11 28-37 45-77 45C44 4 14-33 15-96c1-61 26-98 85-98zm52 81c6-60-76-77-97-28-3 7-6 17-6 28h103zm-34-98H82c-13-18-31-30-41-51 32-2 39 20 59 30 19-10 26-32 57-30-9 21-27 33-39 51" id="bT"/><g id="V"><use transform="matrix(0.09938271604938267,0,0,0.09938271604938267,0,0)" xlink:href="#bh"/><use transform="matrix(0.09938271604938267,0,0,0.09938271604938267,23.85185185185184,0)" xlink:href="#aT"/><use transform="matrix(0.09938271604938267,0,0,0.09938271604938267,43.72839506172838,0)" xlink:href="#bT"/><use transform="matrix(0.09938271604938267,0,0,0.09938271604938267,63.60493827160491,0)" xlink:href="#aV"/></g><use transform="matrix(0.09938271604938267,0,0,0.09938271604938267,0,0)" xlink:href="#aD" id="W"/><g id="X"><use transform="matrix(0.09938271604938267,0,0,0.09938271604938267,0,0)" xlink:href="#bf"/><use transform="matrix(0.09938271604938267,0,0,0.09938271604938267,19.876543209876534,0)" xlink:href="#aA"/><use transform="matrix(0.09938271604938267,0,0,0.09938271604938267,37.765432098765416,0)" xlink:href="#aQ"/><use transform="matrix(0.09938271604938267,0,0,0.09938271604938267,45.616666666666646,0)" xlink:href="#aI"/><use transform="matrix(0.09938271604938267,0,0,0.09938271604938267,65.49320987654318,0)" xlink:href="#aJ"/><use transform="matrix(0.09938271604938267,0,0,0.09938271604938267,85.3697530864197,0)" xlink:href="#aI"/><use transform="matrix(0.09938271604938267,0,0,0.09938271604938267,105.24629629629624,0)" xlink:href="#aC"/><use transform="matrix(0.09938271604938267,0,0,0.09938271604938267,125.12283950617277,0)" xlink:href="#bb"/></g><g id="Y"><use transform="matrix(0.09938271604938267,0,0,0.09938271604938267,0,0)" xlink:href="#aJ"/><use transform="matrix(0.09938271604938267,0,0,0.09938271604938267,19.876543209876534,0)" xlink:href="#aD"/><use transform="matrix(0.09938271604938267,0,0,0.09938271604938267,39.75308641975307,0)" xlink:href="#aM"/></g><g id="Z"><use transform="matrix(0.05,0,0,0.05,0,0)" xlink:href="#ay"/><use transform="matrix(0.05,0,0,0.05,12.950000000000001,0)" xlink:href="#az"/><use transform="matrix(0.05,0,0,0.05,22.950000000000003,0)" xlink:href="#aA"/><use transform="matrix(0.05,0,0,0.05,31.950000000000003,0)" xlink:href="#az"/><use transform="matrix(0.05,0,0,0.05,41.95,0)" xlink:href="#aB"/></g><g id="aa"><use transform="matrix(0.05,0,0,0.05,0,0)" xlink:href="#aC"/><use transform="matrix(0.05,0,0,0.05,10,0)" xlink:href="#aD"/></g><g id="ab"><use transform="matrix(0.05,0,0,0.05,0,0)" xlink:href="#aA"/><use transform="matrix(0.05,0,0,0.05,9,0)" xlink:href="#aD"/><use transform="matrix(0.05,0,0,0.05,19,0)" xlink:href="#aH"/><use transform="matrix(0.05,0,0,0.05,28,0)" xlink:href="#aJ"/><use transform="matrix(0.05,0,0,0.05,38,0)" xlink:href="#aK"/><use transform="matrix(0.05,0,0,0.05,48,0)" xlink:href="#bf"/></g><g id="ac"><use transform="matrix(0.05,0,0,0.05,0,0)" xlink:href="#aL"/><use transform="matrix(0.05,0,0,0.05,9,0)" xlink:href="#bf"/><use transform="matrix(0.05,0,0,0.05,19,0)" xlink:href="#aJ"/><use transform="matrix(0.05,0,0,0.05,29,0)" xlink:href="#aK"/><use transform="matrix(0.05,0,0,0.05,39,0)" xlink:href="#bf"/></g><g id="ad"><use transform="matrix(0.05,0,0,0.05,0,0)" xlink:href="#ba"/><use transform="matrix(0.05,0,0,0.05,10,0)" xlink:href="#aK"/><use transform="matrix(0.05,0,0,0.05,20,0)" xlink:href="#aJ"/><use transform="matrix(0.05,0,0,0.05,30,0)" xlink:href="#aR"/><use transform="matrix(0.05,0,0,0.05,33.95,0)" xlink:href="#aC"/><use transform="matrix(0.05,0,0,0.05,43.95,0)" xlink:href="#bf"/></g><g id="ae"><use transform="matrix(0.05,0,0,0.05,0,0)" xlink:href="#aG"/><use transform="matrix(0.05,0,0,0.05,12,0)" xlink:href="#aK"/><use transform="matrix(0.05,0,0,0.05,22,0)" xlink:href="#aP"/><use transform="matrix(0.05,0,0,0.05,31,0)" xlink:href="#aQ"/><use transform="matrix(0.05,0,0,0.05,34.95,0)" xlink:href="#aR"/></g><g id="af"><use transform="matrix(0.05,0,0,0.05,0,0)" xlink:href="#aJ"/><use transform="matrix(0.05,0,0,0.05,10,0)" xlink:href="#aK"/><use transform="matrix(0.05,0,0,0.05,20,0)" xlink:href="#aM"/><use transform="matrix(0.05,0,0,0.05,25,0)" xlink:href="#aD"/><use transform="matrix(0.05,0,0,0.05,35,0)" xlink:href="#aS"/></g><g id="ag"><use transform="matrix(0.05,0,0,0.05,0,0)" xlink:href="#aJ"/><use transform="matrix(0.05,0,0,0.05,10,0)" xlink:href="#aD"/><use transform="matrix(0.05,0,0,0.05,20,0)" xlink:href="#aM"/><use transform="matrix(0.05,0,0,0.05,25,0)" xlink:href="#aD"/><use transform="matrix(0.05,0,0,0.05,35,0)" xlink:href="#aT"/><use transform="matrix(0.05,0,0,0.05,45,0)" xlink:href="#aI"/><use transform="matrix(0.05,0,0,0.05,55,0)" xlink:href="#aS"/><use transform="matrix(0.05,0,0,0.05,64,0)" xlink:href="#aR"/></g><g id="ah"><use transform="matrix(0.05,0,0,0.05,0,0)" xlink:href="#bi"/><use transform="matrix(0.05,0,0,0.05,14,0)" xlink:href="#aJ"/><use transform="matrix(0.05,0,0,0.05,24,0)" xlink:href="#bT"/><use transform="matrix(0.05,0,0,0.05,34,0)" xlink:href="#aP"/><use transform="matrix(0.05,0,0,0.05,43,0)" xlink:href="#aQ"/><use transform="matrix(0.05,0,0,0.05,46.95,0)" xlink:href="#aR"/></g><path fill="#333" d="M100-194c63 0 86 42 84 106H49c0 40 14 67 53 68 26 1 43-12 49-29l28 8c-11 28-37 45-77 45C44 4 14-33 15-96c1-61 26-98 85-98zm52 81c6-60-76-77-97-28-3 7-6 17-6 28h103zm-74-98c8-23 27-35 38-54h36v5l-58 49H78" id="bU"/><g id="ai"><use transform="matrix(0.05,0,0,0.05,0,0)" xlink:href="#bd"/><use transform="matrix(0.05,0,0,0.05,5,0)" xlink:href="#aK"/><use transform="matrix(0.05,0,0,0.05,15,0)" xlink:href="#aV"/><use transform="matrix(0.05,0,0,0.05,20.95,0)" xlink:href="#be"/><use transform="matrix(0.05,0,0,0.05,35.9,0)" xlink:href="#bU"/><use transform="matrix(0.05,0,0,0.05,45.9,0)" xlink:href="#aM"/><use transform="matrix(0.05,0,0,0.05,50.9,0)" xlink:href="#aK"/><use transform="matrix(0.05,0,0,0.05,60.900000000000006,0)" xlink:href="#aW"/><use transform="matrix(0.05,0,0,0.05,69.9,0)" xlink:href="#az"/><use transform="matrix(0.05,0,0,0.05,79.9,0)" xlink:href="#aC"/><use transform="matrix(0.05,0,0,0.05,89.9,0)" xlink:href="#bU"/></g><g id="aj"><use transform="matrix(0.05,0,0,0.05,0,0)" xlink:href="#aW"/><use transform="matrix(0.05,0,0,0.05,9,0)" xlink:href="#aX"/><use transform="matrix(0.05,0,0,0.05,18,0)" xlink:href="#aL"/><use transform="matrix(0.05,0,0,0.05,27,0)" xlink:href="#aQ"/><use transform="matrix(0.05,0,0,0.05,30.950000000000003,0)" xlink:href="#az"/><use transform="matrix(0.05,0,0,0.05,40.95,0)" xlink:href="#aJ"/><use transform="matrix(0.05,0,0,0.05,50.95,0)" xlink:href="#aA"/><use transform="matrix(0.05,0,0,0.05,59.95,0)" xlink:href="#aY"/></g><g id="ak"><use transform="matrix(0.05,0,0,0.05,0,0)" xlink:href="#aB"/><use transform="matrix(0.05,0,0,0.05,3.95,0)" xlink:href="#aD"/><use transform="matrix(0.05,0,0,0.05,13.949999999999998,0)" xlink:href="#aA"/><use transform="matrix(0.05,0,0,0.05,22.95,0)" xlink:href="#aK"/></g><path fill="#333" d="M206 0h-36l-40-164L89 0H53L-1-190h32L70-26l43-164h34l41 164 42-164h31" id="bV"/><g id="al"><use transform="matrix(0.05,0,0,0.05,0,0)" xlink:href="#aM"/><use transform="matrix(0.05,0,0,0.05,5,0)" xlink:href="#bV"/><use transform="matrix(0.05,0,0,0.05,17.950000000000003,0)" xlink:href="#az"/><use transform="matrix(0.05,0,0,0.05,27.950000000000003,0)" xlink:href="#az"/><use transform="matrix(0.05,0,0,0.05,37.95,0)" xlink:href="#aM"/></g><g id="am"><use transform="matrix(0.05,0,0,0.05,0,0)" xlink:href="#bF"/><use transform="matrix(0.05,0,0,0.05,12,0)" xlink:href="#bG"/><use transform="matrix(0.05,0,0,0.05,17,0)" xlink:href="#bH"/><use transform="matrix(0.05,0,0,0.05,27,0)" xlink:href="#bI"/><use transform="matrix(0.05,0,0,0.05,32.95,0)" xlink:href="#bG"/></g><g id="an"><use transform="matrix(0.09938271604938267,0,0,0.09938271604938267,0,0)" xlink:href="#aF"/><use transform="matrix(0.09938271604938267,0,0,0.09938271604938267,19.777160493827154,0)" xlink:href="#bV"/><use transform="matrix(0.09938271604938267,0,0,0.09938271604938267,45.51728395061727,0)" xlink:href="#aR"/><use transform="matrix(0.09938271604938267,0,0,0.09938271604938267,53.3685185185185,0)" xlink:href="#aM"/><use transform="matrix(0.09938271604938267,0,0,0.09938271604938267,63.306790123456764,0)" xlink:href="#aM"/><use transform="matrix(0.09938271604938267,0,0,0.09938271604938267,73.24506172839503,0)" xlink:href="#az"/><use transform="matrix(0.09938271604938267,0,0,0.09938271604938267,93.12160493827156,0)" xlink:href="#aV"/></g><g id="ao"><use transform="matrix(0.09938271604938267,0,0,0.09938271604938267,0,0)" xlink:href="#aT"/><use transform="matrix(0.09938271604938267,0,0,0.09938271604938267,19.876543209876534,0)" xlink:href="#aK"/><use transform="matrix(0.09938271604938267,0,0,0.09938271604938267,39.75308641975307,0)" xlink:href="#aM"/></g><g id="ap"><use transform="matrix(0.05,0,0,0.05,0,0)" xlink:href="#aU"/><use transform="matrix(0.05,0,0,0.05,10.950000000000001,0)" xlink:href="#aK"/><use transform="matrix(0.05,0,0,0.05,20.950000000000003,0)" xlink:href="#aT"/><use transform="matrix(0.05,0,0,0.05,30.950000000000003,0)" xlink:href="#aV"/><use transform="matrix(0.05,0,0,0.05,36.900000000000006,0)" xlink:href="#aD"/><use transform="matrix(0.05,0,0,0.05,46.900000000000006,0)" xlink:href="#aS"/></g><g id="aq"><use transform="matrix(0.05,0,0,0.05,0,0)" xlink:href="#aJ"/><use transform="matrix(0.05,0,0,0.05,10,0)" xlink:href="#aD"/><use transform="matrix(0.05,0,0,0.05,20,0)" xlink:href="#aM"/><use transform="matrix(0.05,0,0,0.05,25,0)" xlink:href="#aD"/></g><use transform="matrix(0.05,0,0,0.05,0,0)" xlink:href="#aS" id="ar"/><g id="as"><use transform="matrix(0.05,0,0,0.05,0,0)" xlink:href="#aC"/><use transform="matrix(0.05,0,0,0.05,10,0)" xlink:href="#aD"/><use transform="matrix(0.05,0,0,0.05,20,0)" xlink:href="#aL"/><use transform="matrix(0.05,0,0,0.05,29,0)" xlink:href="#aM"/><use transform="matrix(0.05,0,0,0.05,34,0)" xlink:href="#aD"/><use transform="matrix(0.05,0,0,0.05,44,0)" xlink:href="#aW"/><use transform="matrix(0.05,0,0,0.05,53,0)" xlink:href="#az"/><use transform="matrix(0.05,0,0,0.05,63,0)" xlink:href="#aC"/><use transform="matrix(0.05,0,0,0.05,73,0)" xlink:href="#bU"/><use transform="matrix(0.05,0,0,0.05,83,0)" xlink:href="#ba"/><use transform="matrix(0.05,0,0,0.05,93,0)" xlink:href="#aK"/></g><g id="at"><use transform="matrix(0.05,0,0,0.05,0,0)" xlink:href="#aK"/><use transform="matrix(0.05,0,0,0.05,10,0)" xlink:href="#aT"/><use transform="matrix(0.05,0,0,0.05,20,0)" xlink:href="#aJ"/><use transform="matrix(0.05,0,0,0.05,30,0)" xlink:href="#aK"/><use transform="matrix(0.05,0,0,0.05,40,0)" xlink:href="#aT"/><use transform="matrix(0.05,0,0,0.05,50,0)" xlink:href="#bb"/></g><g id="au"><use transform="matrix(0.05,0,0,0.05,0,0)" xlink:href="#aC"/><use transform="matrix(0.05,0,0,0.05,10,0)" xlink:href="#aD"/><use transform="matrix(0.05,0,0,0.05,20,0)" xlink:href="#aL"/><use transform="matrix(0.05,0,0,0.05,29,0)" xlink:href="#aM"/><use transform="matrix(0.05,0,0,0.05,34,0)" xlink:href="#aD"/><use transform="matrix(0.05,0,0,0.05,44,0)" xlink:href="#aW"/><use transform="matrix(0.05,0,0,0.05,53,0)" xlink:href="#az"/><use transform="matrix(0.05,0,0,0.05,63,0)" xlink:href="#aC"/><use transform="matrix(0.05,0,0,0.05,73,0)" xlink:href="#aX"/></g><g id="av"><use transform="matrix(0.05,0,0,0.05,0,0)" xlink:href="#bc"/><use transform="matrix(0.05,0,0,0.05,9,0)" xlink:href="#aD"/><use transform="matrix(0.05,0,0,0.05,19,0)" xlink:href="#aL"/></g><g id="aw"><use transform="matrix(0.05,0,0,0.05,0,0)" xlink:href="#aJ"/><use transform="matrix(0.05,0,0,0.05,10,0)" xlink:href="#aD"/><use transform="matrix(0.05,0,0,0.05,20,0)" xlink:href="#aQ"/><use transform="matrix(0.05,0,0,0.05,23.95,0)" xlink:href="#aP"/><use transform="matrix(0.05,0,0,0.05,32.95,0)" xlink:href="#bb"/></g><g id="ax"><use transform="matrix(0.05,0,0,0.05,0,0)" xlink:href="#aJ"/><use transform="matrix(0.05,0,0,0.05,10,0)" xlink:href="#aK"/><use transform="matrix(0.05,0,0,0.05,20,0)" xlink:href="#aM"/><use transform="matrix(0.05,0,0,0.05,25,0)" xlink:href="#aD"/><use transform="matrix(0.05,0,0,0.05,35,0)" xlink:href="#aS"/></g></defs></g></svg>