<svg xmlns="http://www.w3.org/2000/svg" xmlns:xlink="http://www.w3.org/1999/xlink" xmlns:lucid="lucid" width="1322.79" height="1871.12"><g transform="translate(0 0)" lucid:page-tab-id="0_0"><path d="M0 0h1322.8v1871.12H0z" fill="#fff"/><path d="M558 160c17.67 0 32 17.9 32 40s-14.33 40-32 40h-96c-17.67 0-32-17.9-32-40s14.33-40 32-40z" stroke="#000" stroke-opacity="0" fill="#ff741d"/><use xlink:href="#a" transform="matrix(1,0,0,1,434.9999999999998,165) translate(56.025 38.6)"/><path d="M503.56 478.6c3.56-2.6 9.32-2.6 12.88 0l57.12 42.06c3.56 2.62 3.56 6.87 0 9.5l-57.12 42.03c-3.56 2.6-9.32 2.6-12.88 0l-57.12-42.05c-3.56-2.62-3.56-6.87 0-9.5z" stroke="#fe5900" stroke-width="4" fill="#fff"/><use xlink:href="#b" transform="matrix(1,0,0,1,444.99999999999955,478.87204635399485) translate(35.55 39.8)"/><use xlink:href="#c" transform="matrix(1,0,0,1,444.99999999999955,478.87204635399485) translate(29.025 61.4)"/><path d="M430 304.94c0-4.42 3.58-8 8-8h144c4.42 0 8 3.58 8 8v104c0 4.4-3.58 8-8 8H438c-4.42 0-8-3.6-8-8z" stroke="#000" stroke-opacity="0" stroke-width="2" fill="#ff8839"/><use xlink:href="#d" transform="matrix(1,0,0,1,434.9999999999999,301.9360231769974) translate(9.525000000000006 58.6)"/><use xlink:href="#e" transform="matrix(1,0,0,1,434.9999999999999,301.9360231769974) translate(76.525 58.6)"/><path d="M510 240.5v40.05" stroke="#333" fill="none"/><path d="M510.5 240.5h-1v-.5h1z" stroke="#333" stroke-width=".05" fill="#333"/><path d="M510 295.32l-4.64-14.27h9.28z" stroke="#333" fill="#333"/><path d="M579.12 525.4H711.5" stroke="#c92d39" stroke-width="2" fill="none"/><path d="M579.14 526.4h-1.08l.1-2h.98z" stroke="#c92d39" stroke-width=".05" fill="#c92d39"/><path d="M726.76 525.4l-14.26 4.64v-9.27z" stroke="#c92d39" stroke-width="2" fill="#c92d39"/><use xlink:href="#f" transform="matrix(1,0,0,1,588.0580069985992,500.07070143216276) translate(0 14.222222222222223)"/><path d="M510 417.44v40.93" stroke="#333" fill="none"/><path d="M510.5 417.45h-1v-.5h1z" stroke="#333" stroke-width=".05" fill="#333"/><path d="M510 473.13l-4.64-14.26h9.28z" stroke="#333" fill="#333"/><path d="M221.3 28c0-4.42 3.57-8 8-8h863c4.42 0 8 3.58 8 8v38.87c0 4.42-3.58 8-8 8h-863c-4.43 0-8-3.58-8-8z" stroke="#000" stroke-opacity="0" stroke-width="2" fill="#fff" fill-opacity="0"/><use xlink:href="#g" transform="matrix(1,0,0,1,225.293116758912,24) translate(232.81 30.084444444444443)"/><use xlink:href="#h" transform="matrix(1,0,0,1,225.293116758912,24) translate(355.0346913580247 30.084444444444443)"/><use xlink:href="#i" transform="matrix(1,0,0,1,225.293116758912,24) translate(464.14827160493826 30.084444444444443)"/><use xlink:href="#j" transform="matrix(1,0,0,1,225.293116758912,24) translate(480.10012345679013 30.084444444444443)"/><path d="M485.45 73.08H844.1M485.48 73.08h-1.03M844.1 73.08h1" stroke="#a9afb8" stroke-width="2" fill="none"/><path d="M221.3 82.87c0-4.4 3.57-8 8-8h864c4.4 0 8 3.6 8 8V92c0 4.42-3.6 8-8 8h-864c-4.43 0-8-3.58-8-8z" stroke="#000" stroke-opacity="0" stroke-width="2" fill="#fff" fill-opacity="0"/><use xlink:href="#k" transform="matrix(1,0,0,1,225.29311675891233,78.87363194231881) translate(393.5273353909465 14.917037037037037)"/><use xlink:href="#l" transform="matrix(1,0,0,1,225.29311675891233,78.87363194231881) translate(441.8381378600823 14.917037037037037)"/><path d="M730 473.4c0-4.4 3.58-8 8-8h144c4.42 0 8 3.6 8 8v104c0 4.42-3.58 8-8 8H738c-4.42 0-8-3.58-8-8z" stroke="#000" stroke-opacity="0" stroke-width="2" fill="#ff8839"/><use xlink:href="#m" transform="matrix(1,0,0,1,741.9999999999993,477.40403476549614) translate(16.125 51.6)"/><use xlink:href="#n" transform="matrix(1,0,0,1,741.9999999999993,477.40403476549614) translate(79.025 51.6)"/><path d="M810 464.9v-95.96c0-6.63-5.37-12-12-12H606.38" stroke="#333" fill="none"/><path d="M810.5 465.4h-1v-.5h1z" stroke="#333" stroke-width=".05" fill="#333"/><path d="M591.62 356.94l14.26-4.64v9.27z" stroke="#333" fill="#333"/><path d="M429.04 641.87c0-4.42 3.58-8 8-8h144c4.42 0 8 3.58 8 8v104c0 4.42-3.58 8-8 8h-144c-4.42 0-8-3.58-8-8z" stroke="#000" stroke-opacity="0" stroke-width="2" fill="#ff8839"/><use xlink:href="#o" transform="matrix(1,0,0,1,441.04261403880014,645.8720463539948) translate(10.024999999999999 40.8)"/><use xlink:href="#p" transform="matrix(1,0,0,1,441.04261403880014,645.8720463539948) translate(66.975 40.8)"/><use xlink:href="#q" transform="matrix(1,0,0,1,441.04261403880014,645.8720463539948) translate(106.975 40.8)"/><use xlink:href="#r" transform="matrix(1,0,0,1,441.04261403880014,645.8720463539948) translate(36.025 62.4)"/><path d="M427.7 1348c0-4.42 3.6-8 8-8h144c4.43 0 8 3.58 8 8v104c0 4.42-3.57 8-8 8h-144c-4.4 0-8-3.58-8-8z" stroke="#000" stroke-opacity="0" stroke-width="2" fill="#ff8839"/><use xlink:href="#s" transform="matrix(1,0,0,1,439.7141072765116,1352) translate(2.5749999999999886 40.8)"/><use xlink:href="#p" transform="matrix(1,0,0,1,439.7141072765116,1352) translate(58.474999999999994 40.8)"/><use xlink:href="#t" transform="matrix(1,0,0,1,439.7141072765116,1352) translate(98.475 40.8)"/><use xlink:href="#u" transform="matrix(1,0,0,1,439.7141072765116,1352) translate(42.574999999999996 62.4)"/><path d="M509.04 754.37v29.25" stroke="#333" fill="none"/><path d="M509.54 754.38h-1v-.5h1z" stroke="#333" stroke-width=".05" fill="#333"/><path d="M509.04 798.38l-4.63-14.26h9.28z" stroke="#333" fill="#333"/><path d="M426.28 1728c0-4.42 3.58-8 8-8h144c4.42 0 8 3.58 8 8v104c0 4.42-3.58 8-8 8h-144c-4.42 0-8-3.58-8-8z" stroke="#000" stroke-opacity="0" stroke-width="2" fill="#ff8839"/><use xlink:href="#v" transform="matrix(1,0,0,1,438.278028334712,1732) translate(21.849999999999994 19.19999999999999)"/><use xlink:href="#w" transform="matrix(1,0,0,1,438.278028334712,1732) translate(71.15 19.19999999999999)"/><use xlink:href="#x" transform="matrix(1,0,0,1,438.278028334712,1732) translate(104.15 19.19999999999999)"/><use xlink:href="#y" transform="matrix(1,0,0,1,438.278028334712,1732) translate(33.575 40.79999999999999)"/><use xlink:href="#z" transform="matrix(1,0,0,1,438.278028334712,1732) translate(82.42500000000001 40.79999999999999)"/><use xlink:href="#A" transform="matrix(1,0,0,1,438.278028334712,1732) translate(6.024999999999999 62.39999999999999)"/><use xlink:href="#B" transform="matrix(1,0,0,1,438.278028334712,1732) translate(94.975 62.39999999999999)"/><use xlink:href="#C" transform="matrix(1,0,0,1,438.278028334712,1732) translate(119.975 62.39999999999999)"/><use xlink:href="#D" transform="matrix(1,0,0,1,438.278028334712,1732) translate(41.05 84)"/><path d="M1041.24 324.46l3 1.24 2.6 2 2 2.6 1.24 3 .42 3.2v1431.53l-.42 3.2-1.24 3-2 2.6-2.6 2-3 1.25-3.2.42H586.77v-1h451.2l3-.4 2.76-1.14 2.4-1.83 1.82-2.4 1.14-2.75.4-3V336.57l-.4-3.03-1.14-2.75-1.83-2.4-2.4-1.83-2.75-1.14-3-.4h-431.6v-1h431.65z" stroke="#333" stroke-width=".05" fill="#333"/><path d="M586.8 1780.5h-.52v-1h.5z" fill="#333"/><path d="M586.82 1780.53h-.57v-1.06h.57zm-.52-1v.94h.47v-.94z" stroke="#333" stroke-width=".05" fill="#333"/><path d="M605.88 329.17l-14.26-4.63 14.26-4.64z" fill="#333"/><path d="M606.38 329.86L590 324.54l16.38-5.33zm-13.14-5.32l12.14 3.94v-7.9z" stroke="#333" stroke-width=".05" fill="#333"/><path d="M541.3 108c0-4.42 3.57-8 8-8h224c4.4 0 8 3.58 8 8v44c0 4.42-3.6 8-8 8h-224c-4.43 0-8-3.58-8-8z" stroke="#000" stroke-opacity="0" fill="#fff" fill-opacity="0"/><use xlink:href="#E" transform="matrix(1,0,0,1,546.2931167589121,105) translate(8.759876543209927 32.15555555555555)"/><path d="M500.84 1504.8c3.53-2.65 9.26-2.65 12.8 0l67.2 50.4c3.53 2.65 3.53 6.95 0 9.6l-67.2 50.4c-3.54 2.65-9.27 2.65-12.8 0l-67.2-50.4c-3.54-2.65-3.54-6.95 0-9.6z" stroke="#fe5900" stroke-width="4" fill="#fff"/><use xlink:href="#F" transform="matrix(1,0,0,1,432.23541429591177,1505) translate(30.074999999999996 47.8)"/><use xlink:href="#G" transform="matrix(1,0,0,1,432.23541429591177,1505) translate(100.92500000000001 47.8)"/><use xlink:href="#H" transform="matrix(1,0,0,1,432.23541429591177,1505) translate(41.025 69.4)"/><path d="M507.7 1460.5v24.03" stroke="#333" fill="none"/><path d="M508.2 1460.5h-1v-.5h1z" stroke="#333" stroke-width=".05" fill="#333"/><path d="M507.7 1499.3l-4.62-14.27h9.27z" stroke="#333" fill="#333"/><path d="M757.23 1406.9c3.53-2.64 9.26-2.64 12.8 0l67.2 50.4c3.53 2.66 3.53 6.96 0 9.6l-67.2 50.4c-3.54 2.66-9.27 2.66-12.8 0l-67.2-50.4c-3.54-2.64-3.54-6.94 0-9.6z" stroke="#fe5900" stroke-width="4" fill="#fff"/><use xlink:href="#I" transform="matrix(1,0,0,1,688.6252457659424,1407.1096003899) translate(21 55.3)"/><use xlink:href="#J" transform="matrix(1,0,0,1,688.6252457659424,1407.1096003899) translate(75 55.3)"/><use xlink:href="#K" transform="matrix(1,0,0,1,688.6252457659424,1407.1096003899) translate(99 55.3)"/><use xlink:href="#L" transform="matrix(1,0,0,1,688.6252457659424,1407.1096003899) translate(114 55.3)"/><use xlink:href="#M" transform="matrix(1,0,0,1,688.6252457659424,1407.1096003899) translate(46 76.9)"/><path d="M586.38 1560h165.25c6.62 0 12-5.37 12-12v-8.3" stroke="#c92d39" stroke-width="2" fill="none"/><path d="M586.4 1561h-1.06l.08-2h.98z" stroke="#c92d39" stroke-width=".05" fill="#c92d39"/><path d="M763.63 1524.43l4.63 14.27H759z" stroke="#c92d39" stroke-width="2" fill="#c92d39"/><use xlink:href="#N" transform="matrix(1,0,0,1,636.007816250002,1534.4) translate(0.005000000000000782 14.4)"/><path d="M1001.37 524.84l3.13 1.3 2.7 2.07 2.07 2.7 1.3 3.13.43 3.3v813.76l-.43 3.3-1.3 3.12-2.07 2.7-2.7 2.08-3.13 1.3-3.3.42H775.7l-2.93.4-2.63 1.08-2.3 1.75-1.74 2.3-1.1 2.62-.37 2.92V1402h-2v-27.06l.43-3.3 1.3-3.13 2.07-2.7 2.7-2.08 3.12-1.3 3.3-.43h222.38l2.92-.38 2.64-1.1 2.27-1.74 1.76-2.3 1.1-2.62.37-2.92v-813.5l-.38-2.9-1.1-2.64-1.75-2.3-2.28-1.74-2.65-1.1-2.92-.38H908.5v-2h89.57z" stroke="#7ab648" stroke-width=".05" fill="#7ab648"/><path d="M764.63 1403.03l-2-.02v-1h2z" fill="#7ab648"/><path d="M764.65 1403.06l-2.05-.02v-1.07h2.05zm-2-1.04v.97h1.95v-.98z" stroke="#7ab648" stroke-width=".05" fill="#7ab648"/><path d="M907.5 530.04l-14.26-4.64 14.26-4.63z" fill="#7ab648"/><path d="M908.5 531.42L890 525.4l18.5-6zm-12.03-6.02l10.03 3.26v-6.5z" stroke="#7ab648" stroke-width=".05" fill="#7ab648"/><use xlink:href="#O" transform="matrix(1,0,0,1,771.6252457659424,1367.1732772539522) translate(0.004999999999999005 14.4)"/><path d="M684.48 1462.1H648.6c-6.63 0-12-5.36-12-12V1412c0-6.63-5.37-12-12-12h-18.38" stroke="#c92d39" stroke-width="2" fill="none"/><path d="M685.44 1463.1h-.98v-2h1.07z" stroke="#c92d39" stroke-width=".05" fill="#c92d39"/><path d="M590.95 1400l14.27-4.64v9.28z" stroke="#c92d39" stroke-width="2" fill="#c92d39"/><use xlink:href="#N" transform="matrix(1,0,0,1,644.5985471512766,1398.656484641905) translate(0.005000000000000782 14.4)"/><path d="M511 594.16h-2v-17.1h2z" stroke="#7ab648" stroke-width=".05" fill="#7ab648"/><path d="M511 576.07v1h-2v-1.03z" fill="#7ab648"/><path d="M511.02 576.05v1.06h-2.04V576zm-2 1h1.96v-.95l-1.96-.04z" stroke="#7ab648" stroke-width=".05" fill="#7ab648"/><path d="M509.04 630.64l-4.63-14.27h9.28z" fill="#7ab648"/><path d="M509.04 633.87l-5.88-18.1h11.77zm-3.26-16.5l3.26 10.03 3.26-10.03z" stroke="#7ab648" stroke-width=".05" fill="#7ab648"/><use xlink:href="#O" transform="matrix(1,0,0,1,490.0463070193997,594.1637063703529) translate(0.004999999999999005 14.4)"/><path d="M429.04 989.05c0-4.4 3.58-8 8-8h144c4.42 0 8 3.6 8 8v104c0 4.42-3.58 8-8 8h-144c-4.42 0-8-3.58-8-8z" stroke="#000" stroke-opacity="0" stroke-width="2" fill="#ff8839"/><use xlink:href="#P" transform="matrix(1,0,0,1,441.04261403880025,993.0548001949501) translate(20.075000000000003 19.19999999999999)"/><use xlink:href="#Q" transform="matrix(1,0,0,1,441.04261403880025,993.0548001949501) translate(95.925 19.19999999999999)"/><use xlink:href="#R" transform="matrix(1,0,0,1,441.04261403880025,993.0548001949501) translate(6.125 40.79999999999999)"/><use xlink:href="#S" transform="matrix(1,0,0,1,441.04261403880025,993.0548001949501) translate(46.925000000000004 40.79999999999999)"/><use xlink:href="#T" transform="matrix(1,0,0,1,441.04261403880025,993.0548001949501) translate(61.925000000000004 40.79999999999999)"/><use xlink:href="#U" transform="matrix(1,0,0,1,441.04261403880025,993.0548001949501) translate(13.049999999999997 62.39999999999999)"/><use xlink:href="#V" transform="matrix(1,0,0,1,441.04261403880025,993.0548001949501) translate(113.95 62.39999999999999)"/><use xlink:href="#W" transform="matrix(1,0,0,1,441.04261403880025,993.0548001949501) translate(2.8249999999999886 84)"/><use xlink:href="#X" transform="matrix(1,0,0,1,441.04261403880025,993.0548001949501) translate(58.324999999999996 84)"/><path d="M502.3 1145.35c3.72-2.37 9.76-2.37 13.5 0l96.5 61.4c3.72 2.38 3.72 6.23 0 8.6l-96.5 61.4c-3.74 2.38-9.78 2.38-13.5 0l-96.5-61.4c-3.74-2.37-3.74-6.22 0-8.6z" stroke="#fe5900" stroke-width="4" fill="#fff"/><use xlink:href="#Y" transform="matrix(1,0,0,1,404.0426140388005,1146.05480019495) translate(31.52376543209877 58.68888888888888)"/><use xlink:href="#Z" transform="matrix(1,0,0,1,404.0426140388005,1146.05480019495) translate(93.62685185185185 58.68888888888888)"/><use xlink:href="#aa" transform="matrix(1,0,0,1,404.0426140388005,1146.05480019495) translate(114.66388888888889 58.68888888888888)"/><use xlink:href="#ab" transform="matrix(1,0,0,1,404.0426140388005,1146.05480019495) translate(169.71080246913579 58.68888888888888)"/><use xlink:href="#ac" transform="matrix(1,0,0,1,404.0426140388005,1146.05480019495) translate(36.30092592592594 77.62222222222222)"/><use xlink:href="#ad" transform="matrix(1,0,0,1,404.0426140388005,1146.05480019495) translate(86.17623456790123 77.62222222222222)"/><path d="M509.04 1101.55v23.7" stroke="#333" fill="none"/><path d="M509.54 1101.57h-1v-.52h1z" stroke="#333" stroke-width=".05" fill="#333"/><path d="M509.04 1140.02l-4.63-14.27h9.28z" stroke="#333" fill="#333"/><path d="M509.04 1281.48v40.02" stroke="#7ab648" stroke-width="2" fill="none"/><path d="M509.78 1280.54l.26-.05v1h-2v-1.1z" stroke="#7ab648" stroke-width=".05" fill="#7ab648"/><path d="M509.04 1336.76l-4.63-14.26h9.28z" stroke="#7ab648" stroke-width="2" fill="#7ab648"/><g><use xlink:href="#O" transform="matrix(1,0,0,1,517.0426140388004,1285.818348631708) translate(0.004999999999999005 14.4)"/></g><path d="M803.6 985.85c3.53-2.65 9.27-2.65 12.8 0l67.2 50.4c3.53 2.66 3.53 6.95 0 9.6l-67.2 50.4c-3.53 2.66-9.27 2.66-12.8 0l-67.2-50.4c-3.53-2.65-3.53-6.94 0-9.6z" stroke="#fe5900" stroke-width="4" fill="#fff"/><g><use xlink:href="#I" transform="matrix(1,0,0,1,734.9999999999993,986.0548001949501) translate(21 54.3)"/><use xlink:href="#J" transform="matrix(1,0,0,1,734.9999999999993,986.0548001949501) translate(75 54.3)"/><use xlink:href="#K" transform="matrix(1,0,0,1,734.9999999999993,986.0548001949501) translate(99 54.3)"/><use xlink:href="#ae" transform="matrix(1,0,0,1,734.9999999999993,986.0548001949501) translate(114 54.3)"/><use xlink:href="#M" transform="matrix(1,0,0,1,734.9999999999993,986.0548001949501) translate(46 75.9)"/></g><path d="M756.5 1212.05H618.06v-2H756.5zm54.5-12.93l-.43 3.3-1.3 3.13-2.07 2.7-2.7 2.08-3.13 1.3-3.3.42h-16.6v-2h16.46l2.92-.38 2.64-1.1 2.27-1.74 1.76-2.3 1.1-2.62.37-2.9v-80.36h2z" stroke="#c92d39" stroke-width=".05" fill="#c92d39"/><path d="M618.08 1212.05h-1.23l.3-1.48-.2-.52h1.13z" fill="#c92d39"/><path d="M618.1 1212.08h-1.28l.3-1.5-.2-.55h1.18zm-1.1-2l.17.5-.3 1.45h1.18v-1.95z" stroke="#c92d39" stroke-width=".05" fill="#c92d39"/><path d="M814.64 1117.64h-9.28l4.64-14.26z" fill="#c92d39"/><path d="M816 1118.64h-12l6-18.5zm-9.26-2h6.52L810 1106.6z" stroke="#c92d39" stroke-width=".05" fill="#c92d39"/><g><use xlink:href="#N" transform="matrix(1,0,0,1,756.5074434079404,1200.2548001949501) translate(0.005000000000000782 14.4)"/></g><path d="M810 980.97V603.9" stroke="#7ab648" stroke-width="2" fill="none"/><path d="M811 981.98l-2-.02v-1.02h2z" stroke="#7ab648" stroke-width=".05" fill="#7ab648"/><path d="M810 588.64l4.64 14.27h-9.28z" stroke="#7ab648" stroke-width="2" fill="#7ab648"/><g><use xlink:href="#O" transform="matrix(1,0,0,1,817.9999999999993,963.6544268147522) translate(0.004999999999999005 14.4)"/></g><path d="M730.86 1041.05H607.54" stroke="#c92d39" stroke-width="2" fill="none"/><path d="M731.82 1042.05h-1v-2h1.08z" stroke="#c92d39" stroke-width=".05" fill="#c92d39"/><path d="M592.28 1041.05l14.26-4.63v9.27z" stroke="#c92d39" stroke-width="2" fill="#c92d39"/><g><use xlink:href="#N" transform="matrix(1,0,0,1,647.9751776494496,1015.4548001949502) translate(0.005000000000000782 14.4)"/></g><path d="M429.04 808c0-4.42 3.58-8 8-8h144c4.42 0 8 3.58 8 8v104c0 4.42-3.58 8-8 8h-144c-4.42 0-8-3.58-8-8z" stroke="#000" stroke-opacity="0" stroke-width="2" fill="#ff8839"/><g><use xlink:href="#v" transform="matrix(1,0,0,1,441.04261403880014,812) translate(11.875 51.6)"/><use xlink:href="#af" transform="matrix(1,0,0,1,441.04261403880014,812) translate(61.175000000000004 51.6)"/></g><path d="M508.24 1701.5h-2v-21.16h2zm0-42.76h-2v-38.65h2z" stroke="#7ab648" stroke-width=".05" fill="#7ab648"/><path d="M508.24 1619.1v1h-2v-1.02z" fill="#7ab648"/><path d="M508.26 1619.07v1.07h-2.05v-1.1zm-2 1.02h1.95v-.98l-1.94-.02z" stroke="#7ab648" stroke-width=".05" fill="#7ab648"/><path d="M507.24 1716.76l-4.64-14.26h9.27z" fill="#7ab648"/><path d="M507.24 1720l-6.02-18.5h12.03zm-3.26-16.5l3.26 10.03 3.25-10.03z" stroke="#7ab648" stroke-width=".05" fill="#7ab648"/><g><use xlink:href="#O" transform="matrix(1,0,0,1,487.76041429591174,1658.7431935842346) translate(0.004999999999999005 14.4)"/></g><path d="M509.04 920.5v44.17" stroke="#333" fill="none"/><path d="M509.54 920.5h-1v-.5h1z" stroke="#333" stroke-width=".05" fill="#333"/><path d="M509.04 979.44l-4.63-14.27h9.28z" stroke="#333" fill="#333"/><defs><path fill="#333" d="M194-120c59 52 2 134-86 124-53-6-90-18-98-63l31-7c8 30 29 43 70 43 46 0 84-17 71-62-32-43-135-20-137-98-3-89 178-90 191-16l-30 9c-8-48-127-53-127 5 0 53 81 35 115 65" id="ag"/><path fill="#333" d="M51-54c-9 22 5 41 31 30L79-1C43 14 10-4 19-52l22-115H19l5-23h22l19-43h21l-9 43h35l-4 23H73" id="ah"/><path fill="#333" d="M165-48c-4 18 1 34 23 27l-3 20c-29 8-62 0-52-35h-2C116-14 99 4 63 4 30 4 8-16 8-49c0-68 71-67 138-67 10-26 0-56-31-54-26 1-42 9-47 31l-32-5c8-67 160-71 144 15-5 28-9 54-15 81zM42-50c3 52 80 24 89-6 7-12 7-24 11-38-47 1-103-4-100 44" id="ai"/><path fill="#333" d="M66-151c12-25 30-51 66-40l-6 26C45-176 58-65 38 0H6l36-190h30" id="aj"/><g id="a"><use transform="matrix(0.05,0,0,0.05,0,0)" xlink:href="#ag"/><use transform="matrix(0.05,0,0,0.05,12,0)" xlink:href="#ah"/><use transform="matrix(0.05,0,0,0.05,17,0)" xlink:href="#ai"/><use transform="matrix(0.05,0,0,0.05,27,0)" xlink:href="#aj"/><use transform="matrix(0.05,0,0,0.05,32.95,0)" xlink:href="#ah"/></g><path fill="#333" d="M63-220v92h138v28H63V0H30v-248h175v28H63" id="ak"/><path fill="#333" d="M84 4C-5 8 30-112 23-190h32v120c0 31 7 50 39 49 72-2 45-101 50-169h31l1 190h-30c-1-10 1-25-2-33-11 22-28 36-60 37" id="al"/><path fill="#333" d="M117-194c89-4 53 116 60 194h-32v-121c0-31-8-49-39-48C34-167 62-67 57 0H25l-1-190h30c1 10-1 24 2 32 11-22 29-35 61-36" id="am"/><path fill="#333" d="M177-190C167-65 218 103 67 71c-23-6-38-20-44-43l32-5c15 47 100 32 89-28v-30C133-14 115 1 83 1 29 1 15-40 15-95c0-56 16-97 71-98 29-1 48 16 59 35 1-10 0-23 2-32h30zM94-22c36 0 50-32 50-73 0-42-14-75-50-75-39 0-46 34-46 75s6 73 46 73" id="an"/><path fill="#333" d="M24-231v-30h32v30H24zM-9 49c24 4 33-6 33-30v-209h32V24c2 40-23 58-65 49V49" id="ao"/><path fill="#333" d="M34 0v-190h32V0H34zM24-211c8-23 27-35 38-54h36v5l-58 49H24" id="ap"/><g id="b"><use transform="matrix(0.05,0,0,0.05,0,0)" xlink:href="#ak"/><use transform="matrix(0.05,0,0,0.05,10.950000000000001,0)" xlink:href="#al"/><use transform="matrix(0.05,0,0,0.05,20.950000000000003,0)" xlink:href="#am"/><use transform="matrix(0.05,0,0,0.05,30.950000000000003,0)" xlink:href="#an"/><use transform="matrix(0.05,0,0,0.05,40.95,0)" xlink:href="#al"/><use transform="matrix(0.05,0,0,0.05,50.95,0)" xlink:href="#ao"/><use transform="matrix(0.05,0,0,0.05,54.900000000000006,0)" xlink:href="#ap"/></g><path fill="#333" d="M135-143c-3-34-86-38-87 0 15 53 115 12 119 90S17 21 10-45l28-5c4 36 97 45 98 0-10-56-113-15-118-90-4-57 82-63 122-42 12 7 21 19 24 35" id="aq"/><path fill="#333" d="M100-194c63 0 86 42 84 106H49c0 40 14 67 53 68 26 1 43-12 49-29l28 8c-11 28-37 45-77 45C44 4 14-33 15-96c1-61 26-98 85-98zm52 81c6-60-76-77-97-28-3 7-6 17-6 28h103" id="ar"/><path fill="#333" d="M9 0v-24l116-142H16v-24h144v24L44-24h123V0H9" id="as"/><path fill="#333" d="M100-194c62-1 85 37 85 99 1 63-27 99-86 99S16-35 15-95c0-66 28-99 85-99zM99-20c44 1 53-31 53-75 0-43-8-75-51-75s-53 32-53 75 10 74 51 75" id="at"/><path fill="#333" d="M114-163C36-179 61-72 57 0H25l-1-190h30c1 12-1 29 2 39 6-27 23-49 58-41v29" id="au"/><path fill="#333" d="M179-190L93 31C79 59 56 82 12 73V49c39 6 53-20 64-50L1-190h34L92-34l54-156h33" id="av"/><path fill="#333" d="M103-251c84 0 111 97 45 133-19 10-37 24-39 52H78c0-63 77-55 77-114 0-30-21-42-52-43-32 0-53 17-56 46l-32-2c7-45 34-72 88-72zM77 0v-35h34V0H77" id="aw"/><g id="c"><use transform="matrix(0.05,0,0,0.05,0,0)" xlink:href="#aq"/><use transform="matrix(0.05,0,0,0.05,9,0)" xlink:href="#ar"/><use transform="matrix(0.05,0,0,0.05,19,0)" xlink:href="#am"/><use transform="matrix(0.05,0,0,0.05,29,0)" xlink:href="#as"/><use transform="matrix(0.05,0,0,0.05,38,0)" xlink:href="#at"/><use transform="matrix(0.05,0,0,0.05,48,0)" xlink:href="#au"/><use transform="matrix(0.05,0,0,0.05,53.95,0)" xlink:href="#av"/><use transform="matrix(0.05,0,0,0.05,62.95,0)" xlink:href="#aw"/></g><path fill="#333" d="M185-189c-5-48-123-54-124 2 14 75 158 14 163 119 3 78-121 87-175 55-17-10-28-26-33-46l33-7c5 56 141 63 141-1 0-78-155-14-162-118-5-82 145-84 179-34 5 7 8 16 11 25" id="ax"/><path fill="#333" d="M115-194c55 1 70 41 70 98S169 2 115 4C84 4 66-9 55-30l1 105H24l-1-265h31l2 30c10-21 28-34 59-34zm-8 174c40 0 45-34 45-75s-6-73-45-74c-42 0-51 32-51 76 0 43 10 73 51 73" id="ay"/><path fill="#333" d="M59-47c-2 24 18 29 38 22v24C64 9 27 4 27-40v-127H5v-23h24l9-43h21v43h35v23H59v120" id="az"/><g id="d"><use transform="matrix(0.05,0,0,0.05,0,0)" xlink:href="#ax"/><use transform="matrix(0.05,0,0,0.05,12,0)" xlink:href="#ar"/><use transform="matrix(0.05,0,0,0.05,22,0)" xlink:href="#ay"/><use transform="matrix(0.05,0,0,0.05,32,0)" xlink:href="#am"/><use transform="matrix(0.05,0,0,0.05,42,0)" xlink:href="#al"/><use transform="matrix(0.05,0,0,0.05,52,0)" xlink:href="#az"/><use transform="matrix(0.05,0,0,0.05,57,0)" xlink:href="#ap"/></g><path fill="#333" d="M84 4C-5 8 30-112 23-190h32v120c0 31 7 50 39 49 72-2 45-101 50-169h31l1 190h-30c-1-10 1-25-2-33-11 22-28 36-60 37zm17-294c26 0 42 16 42 42 0 27-18 40-42 43-25-2-43-16-43-43 0-26 17-42 43-42zm-24 42c-2 26 37 32 45 10 6-16-3-33-21-33-16 0-23 10-24 23" id="aA"/><g id="e"><use transform="matrix(0.05,0,0,0.05,0,0)" xlink:href="#aq"/><use transform="matrix(0.05,0,0,0.05,9,0)" xlink:href="#ar"/><use transform="matrix(0.05,0,0,0.05,19,0)" xlink:href="#am"/><use transform="matrix(0.05,0,0,0.05,29,0)" xlink:href="#as"/><use transform="matrix(0.05,0,0,0.05,38,0)" xlink:href="#at"/><use transform="matrix(0.05,0,0,0.05,48,0)" xlink:href="#au"/><use transform="matrix(0.05,0,0,0.05,53.95,0)" xlink:href="#aA"/></g><path fill="#333" d="M190 0L58-211 59 0H30v-248h39L202-35l-2-213h31V0h-41" id="aB"/><path fill="#333" d="M30 0v-248h187v28H63v79h144v27H63v87h162V0H30" id="aC"/><g id="f"><use transform="matrix(0.04938271604938272,0,0,0.04938271604938272,0,0)" xlink:href="#aB"/><use transform="matrix(0.04938271604938272,0,0,0.04938271604938272,12.790123456790125,0)" xlink:href="#aC"/></g><path fill="#a9afb8" d="M147 0H94L2-248h55l64 206c17-72 42-137 63-206h54" id="aD"/><path fill="#a9afb8" d="M123 10C108 53 80 86 19 72V37c35 8 53-11 59-39L3-190h52l48 148c12-52 28-100 44-148h51zM72-208v-5l45-51h45v8l-60 48H72" id="aE"/><path fill="#a9afb8" d="M128 0H69L1-190h53L99-40l48-150h52" id="aF"/><path fill="#a9afb8" d="M110-194c64 0 96 36 96 99 0 64-35 99-97 99-61 0-95-36-95-99 0-62 34-99 96-99zm-1 164c35 0 45-28 45-65 0-40-10-65-43-65-34 0-45 26-45 65 0 36 10 65 43 65" id="aG"/><path fill="#a9afb8" d="M25-224v-37h50v37H25zM75 22c2 45-34 59-81 51V38c22 5 31-5 31-27v-201h50V22" id="aH"/><g id="g"><use transform="matrix(0.0728395061728395,0,0,0.0728395061728395,0,0)" xlink:href="#aD"/><use transform="matrix(0.0728395061728395,0,0,0.0728395061728395,17.48148148148148,0)" xlink:href="#aE"/><use transform="matrix(0.0728395061728395,0,0,0.0728395061728395,32.04938271604938,0)" xlink:href="#aF"/><use transform="matrix(0.0728395061728395,0,0,0.0728395061728395,46.61728395061728,0)" xlink:href="#aG"/><use transform="matrix(0.0728395061728395,0,0,0.0728395061728395,62.56913580246913,0)" xlink:href="#aH"/><use transform="matrix(0.0728395061728395,0,0,0.0728395061728395,69.85308641975308,0)" xlink:href="#aG"/><use transform="matrix(0.0728395061728395,0,0,0.0728395061728395,85.80493827160494,0)" xlink:href="#aF"/><use transform="matrix(0.0728395061728395,0,0,0.0728395061728395,100.37283950617284,0)" xlink:href="#aE"/></g><path fill="#a9afb8" d="M88-194c31-1 46 15 58 34l-1-101h50l1 261h-48c-2-10 0-23-3-31C134-8 116 4 84 4 32 4 16-41 15-95c0-56 19-97 73-99zm17 164c33 0 40-30 41-66 1-37-9-64-41-64s-38 30-39 65c0 43 13 65 39 65" id="aI"/><path fill="#a9afb8" d="M25-224v-37h50v37H25zM25 0v-190h50V0H25" id="aJ"/><path fill="#a9afb8" d="M133-34C117-15 103 5 69 4 32 3 11-16 11-54c-1-60 55-63 116-61 1-26-3-47-28-47-18 1-26 9-28 27l-52-2c7-38 36-58 82-57s74 22 75 68l1 82c-1 14 12 18 25 15v27c-30 8-71 5-69-32zm-48 3c29 0 43-24 42-57-32 0-66-3-65 30 0 17 8 27 23 27" id="aK"/><path fill="#a9afb8" d="M195-6C206 82 75 100 31 46c-4-6-6-13-8-21l49-6c3 16 16 24 34 25 40 0 42-37 40-79-11 22-30 35-61 35-53 0-70-43-70-97 0-56 18-96 73-97 30 0 46 14 59 34l2-30h47zm-90-29c32 0 41-27 41-63 0-35-9-62-40-62-32 0-39 29-40 63 0 36 9 62 39 62" id="aL"/><path fill="#a9afb8" d="M135-150c-39-12-60 13-60 57V0H25l-1-190h47c2 13-1 29 3 40 6-28 27-53 61-41v41" id="aM"/><path fill="#a9afb8" d="M220-157c-53 9-28 100-34 157h-49v-107c1-27-5-49-29-50C55-147 81-57 75 0H25l-1-190h47c2 12-1 28 3 38 10-53 101-56 108 0 13-22 24-43 59-42 82 1 51 116 57 194h-49v-107c-1-25-5-48-29-50" id="aN"/><g id="h"><use transform="matrix(0.0728395061728395,0,0,0.0728395061728395,0,0)" xlink:href="#aI"/><use transform="matrix(0.0728395061728395,0,0,0.0728395061728395,15.95185185185185,0)" xlink:href="#aJ"/><use transform="matrix(0.0728395061728395,0,0,0.0728395061728395,23.235802469135802,0)" xlink:href="#aK"/><use transform="matrix(0.0728395061728395,0,0,0.0728395061728395,37.803703703703704,0)" xlink:href="#aL"/><use transform="matrix(0.0728395061728395,0,0,0.0728395061728395,53.75555555555555,0)" xlink:href="#aM"/><use transform="matrix(0.0728395061728395,0,0,0.0728395061728395,63.953086419753085,0)" xlink:href="#aK"/><use transform="matrix(0.0728395061728395,0,0,0.0728395061728395,78.52098765432099,0)" xlink:href="#aN"/></g><path fill="#a9afb8" d="M14-72v-43h91v43H14" id="aO"/><use transform="matrix(0.0728395061728395,0,0,0.0728395061728395,0,0)" xlink:href="#aO" id="i"/><path fill="#a9afb8" d="M230 0l2-204L168 0h-37L68-204 70 0H24v-248h70l56 185 57-185h69V0h-46" id="aP"/><path fill="#a9afb8" d="M185-48c-13 30-37 53-82 52C43 2 14-33 14-96s30-98 90-98c62 0 83 45 84 108H66c0 31 8 55 39 56 18 0 30-7 34-22zm-45-69c5-46-57-63-70-21-2 6-4 13-4 21h74" id="aQ"/><path fill="#a9afb8" d="M115-3C79 11 28 4 28-45v-112H4v-33h27l15-45h31v45h36v33H77v99c-1 23 16 31 38 25v30" id="aR"/><path fill="#a9afb8" d="M137-138c1-29-70-34-71-4 15 46 118 7 119 86 1 83-164 76-172 9l43-7c4 19 20 25 44 25 33 8 57-30 24-41C81-84 22-81 20-136c-2-80 154-74 161-7" id="aS"/><path fill="#a9afb8" d="M135-194c87-1 58 113 63 194h-50c-7-57 23-157-34-157-59 0-34 97-39 157H25l-1-190h47c2 12-1 28 3 38 12-26 28-41 61-42" id="aT"/><path fill="#a9afb8" d="M190-63c-7 42-38 67-86 67-59 0-84-38-90-98-12-110 154-137 174-36l-49 2c-2-19-15-32-35-32-30 0-35 28-38 64-6 74 65 87 74 30" id="aU"/><g id="j"><use transform="matrix(0.0728395061728395,0,0,0.0728395061728395,0,0)" xlink:href="#aP"/><use transform="matrix(0.0728395061728395,0,0,0.0728395061728395,21.77901234567901,0)" xlink:href="#aQ"/><use transform="matrix(0.0728395061728395,0,0,0.0728395061728395,36.34691358024691,0)" xlink:href="#aR"/><use transform="matrix(0.0728395061728395,0,0,0.0728395061728395,45.01481481481481,0)" xlink:href="#aQ"/><use transform="matrix(0.0728395061728395,0,0,0.0728395061728395,59.582716049382704,0)" xlink:href="#aG"/><use transform="matrix(0.0728395061728395,0,0,0.0728395061728395,75.53456790123457,0)" xlink:href="#aS"/><use transform="matrix(0.0728395061728395,0,0,0.0728395061728395,90.10246913580247,0)" xlink:href="#aR"/><use transform="matrix(0.0728395061728395,0,0,0.0728395061728395,98.77037037037037,0)" xlink:href="#aK"/><use transform="matrix(0.0728395061728395,0,0,0.0728395061728395,113.33827160493827,0)" xlink:href="#aT"/><use transform="matrix(0.0728395061728395,0,0,0.0728395061728395,129.29012345679013,0)" xlink:href="#aJ"/><use transform="matrix(0.0728395061728395,0,0,0.0728395061728395,136.57407407407408,0)" xlink:href="#aU"/><use transform="matrix(0.0728395061728395,0,0,0.0728395061728395,151.14197530864197,0)" xlink:href="#aQ"/></g><path fill="#a9afb8" d="M240 0l2-218c-23 76-54 145-80 218h-23L58-218 59 0H30v-248h44l77 211c21-75 51-140 76-211h43V0h-30" id="aV"/><path fill="#a9afb8" d="M24-231v-30h32v30H24zM24 0v-190h32V0H24" id="aW"/><path fill="#a9afb8" d="M96-169c-40 0-48 33-48 73s9 75 48 75c24 0 41-14 43-38l32 2c-6 37-31 61-74 61-59 0-76-41-82-99-10-93 101-131 147-64 4 7 5 14 7 22l-32 3c-4-21-16-35-41-35" id="aX"/><path fill="#a9afb8" d="M106-169C34-169 62-67 57 0H25v-261h32l-1 103c12-21 28-36 61-36 89 0 53 116 60 194h-32v-121c2-32-8-49-39-48" id="aY"/><path fill="#a9afb8" d="M141-36C126-15 110 5 73 4 37 3 15-17 15-53c-1-64 63-63 125-63 3-35-9-54-41-54-24 1-41 7-42 31l-33-3c5-37 33-52 76-52 45 0 72 20 72 64v82c-1 20 7 32 28 27v20c-31 9-61-2-59-35zM48-53c0 20 12 33 32 33 41-3 63-29 60-74-43 2-92-5-92 41" id="aZ"/><path fill="#a9afb8" d="M24 0v-261h32V0H24" id="ba"/><g id="k"><use transform="matrix(0.04248971193415638,0,0,0.04248971193415638,0,0)" xlink:href="#aV"/><use transform="matrix(0.04248971193415638,0,0,0.04248971193415638,12.704423868312757,0)" xlink:href="#aW"/><use transform="matrix(0.04248971193415638,0,0,0.04248971193415638,16.06111111111111,0)" xlink:href="#aX"/><use transform="matrix(0.04248971193415638,0,0,0.04248971193415638,23.70925925925926,0)" xlink:href="#aY"/><use transform="matrix(0.04248971193415638,0,0,0.04248971193415638,32.20720164609053,0)" xlink:href="#aZ"/><use transform="matrix(0.04248971193415638,0,0,0.04248971193415638,40.70514403292181,0)" xlink:href="#ba"/></g><path fill="#a9afb8" d="M160-131c35 5 61 23 61 61C221 17 115-2 30 0v-248c76 3 177-17 177 60 0 33-19 50-47 57zm-97-11c50-1 110 9 110-42 0-47-63-36-110-37v79zm0 115c55-2 124 14 124-45 0-56-70-42-124-44v89" id="bb"/><path fill="#a9afb8" d="M135-143c-3-34-86-38-87 0 15 53 115 12 119 90S17 21 10-45l28-5c4 36 97 45 98 0-10-56-113-15-118-90-4-57 82-63 122-42 12 7 21 19 24 35" id="bc"/><path fill="#a9afb8" d="M100-194c63 0 86 42 84 106H49c0 40 14 67 53 68 26 1 43-12 49-29l28 8c-11 28-37 45-77 45C44 4 14-33 15-96c1-61 26-98 85-98zm52 81c6-60-76-77-97-28-3 7-6 17-6 28h103" id="bd"/><path fill="#a9afb8" d="M114-163C36-179 61-72 57 0H25l-1-190h30c1 12-1 29 2 39 6-27 23-49 58-41v29" id="be"/><g id="l"><use transform="matrix(0.04248971193415638,0,0,0.04248971193415638,0,0)" xlink:href="#bb"/><use transform="matrix(0.04248971193415638,0,0,0.04248971193415638,10.19753086419753,0)" xlink:href="#aZ"/><use transform="matrix(0.04248971193415638,0,0,0.04248971193415638,18.695473251028805,0)" xlink:href="#bc"/><use transform="matrix(0.04248971193415638,0,0,0.04248971193415638,26.343621399176953,0)" xlink:href="#ba"/><use transform="matrix(0.04248971193415638,0,0,0.04248971193415638,29.700308641975308,0)" xlink:href="#bd"/><use transform="matrix(0.04248971193415638,0,0,0.04248971193415638,38.19825102880658,0)" xlink:href="#be"/></g><path fill="#333" d="M233-177c-1 41-23 64-60 70L243 0h-38l-65-103H63V0H30v-248c88 3 205-21 203 71zM63-129c60-2 137 13 137-47 0-61-80-42-137-45v92" id="bf"/><path fill="#333" d="M141-36C126-15 110 5 73 4 37 3 15-17 15-53c-1-64 63-63 125-63 3-35-9-54-41-54-24 1-41 7-42 31l-33-3c5-37 33-52 76-52 45 0 72 20 72 64v82c-1 20 7 32 28 27v20c-31 9-61-2-59-35zM48-53c0 20 12 33 32 33 41-3 63-29 60-74-43 2-92-5-92 41" id="bg"/><g id="m"><use transform="matrix(0.05,0,0,0.05,0,0)" xlink:href="#bf"/><use transform="matrix(0.05,0,0,0.05,12.950000000000001,0)" xlink:href="#ar"/><use transform="matrix(0.05,0,0,0.05,22.950000000000003,0)" xlink:href="#aq"/><use transform="matrix(0.05,0,0,0.05,31.950000000000003,0)" xlink:href="#az"/><use transform="matrix(0.05,0,0,0.05,36.95,0)" xlink:href="#bg"/><use transform="matrix(0.05,0,0,0.05,46.95,0)" xlink:href="#au"/><use transform="matrix(0.05,0,0,0.05,52.900000000000006,0)" xlink:href="#az"/></g><path fill="#333" d="M240 0l2-218c-23 76-54 145-80 218h-23L58-218 59 0H30v-248h44l77 211c21-75 51-140 76-211h43V0h-30" id="bh"/><path fill="#333" d="M212-179c-10-28-35-45-73-45-59 0-87 40-87 99 0 60 29 101 89 101 43 0 62-24 78-52l27 14C228-24 195 4 139 4 59 4 22-46 18-125c-6-104 99-153 187-111 19 9 31 26 39 46" id="bi"/><path fill="#333" d="M232-93c-1 65-40 97-104 97C67 4 28-28 28-90v-158h33c8 89-33 224 67 224 102 0 64-133 71-224h33v155" id="bj"/><g id="n"><use transform="matrix(0.05,0,0,0.05,0,0)" xlink:href="#bh"/><use transform="matrix(0.05,0,0,0.05,14.950000000000001,0)" xlink:href="#bi"/><use transform="matrix(0.05,0,0,0.05,27.900000000000002,0)" xlink:href="#bj"/></g><path fill="#333" d="M140-251c81 0 123 46 123 126C263-46 219 4 140 4 59 4 17-45 17-125s42-126 123-126zm0 227c63 0 89-41 89-101s-29-99-89-99c-61 0-89 39-89 99S79-25 140-24" id="bk"/><path fill="#333" d="M85-194c31 0 48 13 60 33l-1-100h32l1 261h-30c-2-10 0-23-3-31C134-8 116 4 85 4 32 4 16-35 15-94c0-66 23-100 70-100zm9 24c-40 0-46 34-46 75 0 40 6 74 45 74 42 0 51-32 51-76 0-42-9-74-50-73" id="bl"/><path fill="#333" d="M96-169c-40 0-48 33-48 73s9 75 48 75c24 0 41-14 43-38l32 2c-6 37-31 61-74 61-59 0-76-41-82-99-10-93 101-131 147-64 4 7 5 14 7 22l-32 3c-4-21-16-35-41-35zm19-42H79c-13-18-31-30-41-51 32-2 39 20 59 30 19-10 26-32 57-30-9 21-27 33-39 51" id="bm"/><path fill="#333" d="M24-231v-30h32v30H24zM24 0v-190h32V0H24" id="bn"/><g id="o"><use transform="matrix(0.05,0,0,0.05,0,0)" xlink:href="#bk"/><use transform="matrix(0.05,0,0,0.05,14,0)" xlink:href="#bl"/><use transform="matrix(0.05,0,0,0.05,24,0)" xlink:href="#ar"/><use transform="matrix(0.05,0,0,0.05,34,0)" xlink:href="#bm"/><use transform="matrix(0.05,0,0,0.05,43,0)" xlink:href="#az"/><use transform="matrix(0.05,0,0,0.05,48,0)" xlink:href="#bn"/></g><g id="p"><use transform="matrix(0.05,0,0,0.05,0,0)" xlink:href="#bl"/><use transform="matrix(0.05,0,0,0.05,10,0)" xlink:href="#bg"/><use transform="matrix(0.05,0,0,0.05,20,0)" xlink:href="#az"/><use transform="matrix(0.05,0,0,0.05,25,0)" xlink:href="#bg"/></g><g id="q"><use transform="matrix(0.05,0,0,0.05,0,0)" xlink:href="#as"/><use transform="matrix(0.05,0,0,0.05,9,0)" xlink:href="#ar"/></g><g id="r"><use transform="matrix(0.05,0,0,0.05,0,0)" xlink:href="#aq"/><use transform="matrix(0.05,0,0,0.05,9,0)" xlink:href="#ar"/><use transform="matrix(0.05,0,0,0.05,19,0)" xlink:href="#am"/><use transform="matrix(0.05,0,0,0.05,29,0)" xlink:href="#as"/><use transform="matrix(0.05,0,0,0.05,38,0)" xlink:href="#at"/><use transform="matrix(0.05,0,0,0.05,48,0)" xlink:href="#au"/><use transform="matrix(0.05,0,0,0.05,53.95,0)" xlink:href="#aA"/></g><path fill="#333" d="M135-143c-3-34-86-38-87 0 15 53 115 12 119 90S17 21 10-45l28-5c4 36 97 45 98 0-10-56-113-15-118-90-4-57 82-63 122-42 12 7 21 19 24 35zm-28-68H71c-13-18-31-30-41-51 32-2 39 20 59 30 19-10 26-32 57-30-9 21-27 33-39 51" id="bo"/><path fill="#333" d="M24 0v-261h32V0H24" id="bp"/><g id="s"><use transform="matrix(0.05,0,0,0.05,0,0)" xlink:href="#bk"/><use transform="matrix(0.05,0,0,0.05,14,0)" xlink:href="#bl"/><use transform="matrix(0.05,0,0,0.05,24,0)" xlink:href="#ar"/><use transform="matrix(0.05,0,0,0.05,34,0)" xlink:href="#bo"/><use transform="matrix(0.05,0,0,0.05,43,0)" xlink:href="#bp"/><use transform="matrix(0.05,0,0,0.05,46.95,0)" xlink:href="#bn"/></g><path fill="#333" d="M114-163C36-179 61-72 57 0H25l-1-190h30c1 12-1 29 2 39 6-27 23-49 58-41v29zm-27-48H51c-13-18-31-30-41-51 32-2 39 20 59 30 19-10 26-32 57-30-9 21-27 33-39 51" id="bq"/><g id="t"><use transform="matrix(0.05,0,0,0.05,0,0)" xlink:href="#ay"/><use transform="matrix(0.05,0,0,0.05,10,0)" xlink:href="#bq"/><use transform="matrix(0.05,0,0,0.05,15.949999999999998,0)" xlink:href="#ar"/><use transform="matrix(0.05,0,0,0.05,25.950000000000003,0)" xlink:href="#aq"/></g><path fill="#333" d="M140-251c81 0 123 46 123 126C263-53 228-8 163 1c7 30 30 48 69 40v23c-55 16-95-15-103-61C56-3 17-48 17-125c0-80 42-126 123-126zm0 227c63 0 89-41 89-101s-29-99-89-99c-61 0-89 39-89 99S79-25 140-24" id="br"/><path fill="#333" d="M127-220V0H93v-220H8v-28h204v28h-85" id="bs"/><g id="u"><use transform="matrix(0.05,0,0,0.05,0,0)" xlink:href="#bh"/><use transform="matrix(0.05,0,0,0.05,14.950000000000001,0)" xlink:href="#br"/><use transform="matrix(0.05,0,0,0.05,28.950000000000003,0)" xlink:href="#bs"/><use transform="matrix(0.05,0,0,0.05,39.900000000000006,0)" xlink:href="#bs"/></g><path fill="#333" d="M137 0h-34L2-248h35l83 218 83-218h36" id="bt"/><g id="v"><use transform="matrix(0.05,0,0,0.05,0,0)" xlink:href="#bt"/><use transform="matrix(0.05,0,0,0.05,11.35,0)" xlink:href="#av"/><use transform="matrix(0.05,0,0,0.05,20.35,0)" xlink:href="#ay"/><use transform="matrix(0.05,0,0,0.05,30.35,0)" xlink:href="#am"/><use transform="matrix(0.05,0,0,0.05,40.35,0)" xlink:href="#bn"/></g><path fill="#333" d="M108 0H70L1-190h34L89-25l56-165h34" id="bu"/><g id="w"><use transform="matrix(0.05,0,0,0.05,0,0)" xlink:href="#bu"/><use transform="matrix(0.05,0,0,0.05,9,0)" xlink:href="#bo"/><use transform="matrix(0.05,0,0,0.05,18,0)" xlink:href="#ar"/></g><use transform="matrix(0.05,0,0,0.05,0,0)" xlink:href="#bg" id="x"/><g id="y"><use transform="matrix(0.05,0,0,0.05,0,0)" xlink:href="#ay"/><use transform="matrix(0.05,0,0,0.05,10,0)" xlink:href="#bq"/><use transform="matrix(0.05,0,0,0.05,15.949999999999998,0)" xlink:href="#ar"/><use transform="matrix(0.05,0,0,0.05,25.950000000000003,0)" xlink:href="#ao"/><use transform="matrix(0.05,0,0,0.05,29.899999999999995,0)" xlink:href="#bl"/><use transform="matrix(0.05,0,0,0.05,39.9,0)" xlink:href="#bn"/></g><g id="z"><use transform="matrix(0.05,0,0,0.05,0,0)" xlink:href="#bl"/><use transform="matrix(0.05,0,0,0.05,10,0)" xlink:href="#at"/></g><path fill="#333" d="M106-169C34-169 62-67 57 0H25v-261h32l-1 103c12-21 28-36 61-36 89 0 53 116 60 194h-32v-121c2-32-8-49-39-48" id="bv"/><path fill="#333" d="M115-194c53 0 69 39 70 98 0 66-23 100-70 100C84 3 66-7 56-30L54 0H23l1-261h32v101c10-23 28-34 59-34zm-8 174c40 0 45-34 45-75 0-40-5-75-45-74-42 0-51 32-51 76 0 43 10 73 51 73" id="bw"/><path fill="#333" d="M96-169c-40 0-48 33-48 73s9 75 48 75c24 0 41-14 43-38l32 2c-6 37-31 61-74 61-59 0-76-41-82-99-10-93 101-131 147-64 4 7 5 14 7 22l-32 3c-4-21-16-35-41-35" id="bx"/><g id="A"><use transform="matrix(0.05,0,0,0.05,0,0)" xlink:href="#bv"/><use transform="matrix(0.05,0,0,0.05,10,0)" xlink:href="#av"/><use transform="matrix(0.05,0,0,0.05,19,0)" xlink:href="#bw"/><use transform="matrix(0.05,0,0,0.05,29,0)" xlink:href="#ar"/><use transform="matrix(0.05,0,0,0.05,39,0)" xlink:href="#au"/><use transform="matrix(0.05,0,0,0.05,44.95,0)" xlink:href="#am"/><use transform="matrix(0.05,0,0,0.05,54.95,0)" xlink:href="#bg"/><use transform="matrix(0.05,0,0,0.05,64.95,0)" xlink:href="#bx"/><use transform="matrix(0.05,0,0,0.05,73.95,0)" xlink:href="#ar"/></g><g id="B"><use transform="matrix(0.05,0,0,0.05,0,0)" xlink:href="#am"/><use transform="matrix(0.05,0,0,0.05,10,0)" xlink:href="#bg"/></g><path fill="#333" d="M27 0v-27h64v-190l-56 39v-29l58-41h29v221h61V0H27" id="by"/><use transform="matrix(0.05,0,0,0.05,0,0)" xlink:href="#by" id="C"/><path fill="#333" d="M210-169c-67 3-38 105-44 169h-31v-121c0-29-5-50-35-48C34-165 62-65 56 0H25l-1-190h30c1 10-1 24 2 32 10-44 99-50 107 0 11-21 27-35 58-36 85-2 47 119 55 194h-31v-121c0-29-5-49-35-48" id="bz"/><g id="D"><use transform="matrix(0.05,0,0,0.05,0,0)" xlink:href="#bz"/><use transform="matrix(0.05,0,0,0.05,14.950000000000001,0)" xlink:href="#bn"/><use transform="matrix(0.05,0,0,0.05,18.900000000000002,0)" xlink:href="#am"/><use transform="matrix(0.05,0,0,0.05,28.900000000000002,0)" xlink:href="#al"/><use transform="matrix(0.05,0,0,0.05,38.900000000000006,0)" xlink:href="#az"/><use transform="matrix(0.05,0,0,0.05,43.900000000000006,0)" xlink:href="#al"/></g><g id="E"><use transform="matrix(0.09938271604938267,0,0,0.09938271604938267,0,0)" xlink:href="#bh"/><use transform="matrix(0.09938271604938267,0,0,0.09938271604938267,29.71543209876542,0)" xlink:href="#ar"/><use transform="matrix(0.09938271604938267,0,0,0.09938271604938267,49.59197530864195,0)" xlink:href="#az"/><use transform="matrix(0.09938271604938267,0,0,0.09938271604938267,59.530246913580214,0)" xlink:href="#ar"/><use transform="matrix(0.09938271604938267,0,0,0.09938271604938267,79.40679012345674,0)" xlink:href="#at"/><use transform="matrix(0.09938271604938267,0,0,0.09938271604938267,99.28333333333327,0)" xlink:href="#aq"/><use transform="matrix(0.09938271604938267,0,0,0.09938271604938267,117.17222222222215,0)" xlink:href="#az"/><use transform="matrix(0.09938271604938267,0,0,0.09938271604938267,127.11049382716041,0)" xlink:href="#bg"/><use transform="matrix(0.09938271604938267,0,0,0.09938271604938267,146.98703703703697,0)" xlink:href="#am"/><use transform="matrix(0.09938271604938267,0,0,0.09938271604938267,166.8635802469135,0)" xlink:href="#bn"/><use transform="matrix(0.09938271604938267,0,0,0.09938271604938267,174.71481481481473,0)" xlink:href="#bx"/><use transform="matrix(0.09938271604938267,0,0,0.09938271604938267,192.60370370370362,0)" xlink:href="#ar"/></g><path fill="#333" d="M30-248c87 1 191-15 191 75 0 78-77 80-158 76V0H30v-248zm33 125c57 0 124 11 124-50 0-59-68-47-124-48v98" id="bA"/><g id="F"><use transform="matrix(0.05,0,0,0.05,0,0)" xlink:href="#bA"/><use transform="matrix(0.05,0,0,0.05,12,0)" xlink:href="#at"/><use transform="matrix(0.05,0,0,0.05,22,0)" xlink:href="#bl"/><use transform="matrix(0.05,0,0,0.05,32,0)" xlink:href="#bg"/><use transform="matrix(0.05,0,0,0.05,42,0)" xlink:href="#bq"/><use transform="matrix(0.05,0,0,0.05,47.95,0)" xlink:href="#bn"/><use transform="matrix(0.05,0,0,0.05,51.900000000000006,0)" xlink:href="#bp"/><use transform="matrix(0.05,0,0,0.05,55.85,0)" xlink:href="#at"/></g><g id="G"><use transform="matrix(0.05,0,0,0.05,0,0)" xlink:href="#aq"/><use transform="matrix(0.05,0,0,0.05,9,0)" xlink:href="#ar"/></g><g id="H"><use transform="matrix(0.05,0,0,0.05,0,0)" xlink:href="#at"/><use transform="matrix(0.05,0,0,0.05,10,0)" xlink:href="#bl"/><use transform="matrix(0.05,0,0,0.05,20,0)" xlink:href="#ar"/><use transform="matrix(0.05,0,0,0.05,30,0)" xlink:href="#aq"/><use transform="matrix(0.05,0,0,0.05,39,0)" xlink:href="#bp"/><use transform="matrix(0.05,0,0,0.05,42.95,0)" xlink:href="#bg"/><use transform="matrix(0.05,0,0,0.05,52.95,0)" xlink:href="#az"/><use transform="matrix(0.05,0,0,0.05,57.95,0)" xlink:href="#aw"/></g><path fill="#333" d="M153-248C145-148 188 4 80 4 36 3 13-21 6-62l32-5c4 25 16 42 43 43 27 0 39-20 39-49v-147H72v-28h81" id="bB"/><path fill="#333" d="M141-36C126-15 110 5 73 4 37 3 15-17 15-53c-1-64 63-63 125-63 3-35-9-54-41-54-24 1-41 7-42 31l-33-3c5-37 33-52 76-52 45 0 72 20 72 64v82c-1 20 7 32 28 27v20c-31 9-61-2-59-35zM48-53c0 20 12 33 32 33 41-3 63-29 60-74-43 2-92-5-92 41zm25-158c8-23 27-35 38-54h36v5l-58 49H73" id="bC"/><g id="I"><use transform="matrix(0.05,0,0,0.05,0,0)" xlink:href="#bB"/><use transform="matrix(0.05,0,0,0.05,9,0)" xlink:href="#ar"/><use transform="matrix(0.05,0,0,0.05,19,0)" xlink:href="#bl"/><use transform="matrix(0.05,0,0,0.05,29,0)" xlink:href="#am"/><use transform="matrix(0.05,0,0,0.05,39,0)" xlink:href="#bC"/></g><g id="J"><use transform="matrix(0.05,0,0,0.05,0,0)" xlink:href="#aq"/><use transform="matrix(0.05,0,0,0.05,9,0)" xlink:href="#ar"/></g><use transform="matrix(0.05,0,0,0.05,0,0)" xlink:href="#at" id="K"/><path fill="#333" d="M126-127c33 6 58 20 58 59 0 88-139 92-164 29-3-8-5-16-6-25l32-3c6 27 21 44 54 44 32 0 52-15 52-46 0-38-36-46-79-43v-28c39 1 72-4 72-42 0-27-17-43-46-43-28 0-47 15-49 41l-32-3c6-42 35-63 81-64 48-1 79 21 79 65 0 36-21 52-52 59" id="bD"/><path fill="#333" d="M33 0v-38h34V0H33" id="bE"/><g id="L"><use transform="matrix(0.05,0,0,0.05,0,0)" xlink:href="#bD"/><use transform="matrix(0.05,0,0,0.05,10,0)" xlink:href="#bE"/></g><path fill="#333" d="M143 0L79-87 56-68V0H24v-261h32v163l83-92h37l-77 82L181 0h-38" id="bF"/><g id="M"><use transform="matrix(0.05,0,0,0.05,0,0)" xlink:href="#ay"/><use transform="matrix(0.05,0,0,0.05,10,0)" xlink:href="#at"/><use transform="matrix(0.05,0,0,0.05,20,0)" xlink:href="#bF"/><use transform="matrix(0.05,0,0,0.05,29,0)" xlink:href="#al"/><use transform="matrix(0.05,0,0,0.05,39,0)" xlink:href="#aq"/><use transform="matrix(0.05,0,0,0.05,48,0)" xlink:href="#aw"/></g><g id="N"><use transform="matrix(0.05,0,0,0.05,0,0)" xlink:href="#aB"/><use transform="matrix(0.05,0,0,0.05,12.950000000000001,0)" xlink:href="#aC"/></g><path fill="#333" d="M205 0l-28-72H64L36 0H1l101-248h38L239 0h-34zm-38-99l-47-123c-12 45-31 82-46 123h93" id="bG"/><g id="O"><use transform="matrix(0.05,0,0,0.05,0,0)" xlink:href="#bG"/><use transform="matrix(0.05,0,0,0.05,12,0)" xlink:href="#aB"/><use transform="matrix(0.05,0,0,0.05,24.950000000000003,0)" xlink:href="#bk"/></g><g id="P"><use transform="matrix(0.05,0,0,0.05,0,0)" xlink:href="#bA"/><use transform="matrix(0.05,0,0,0.05,12,0)" xlink:href="#bq"/><use transform="matrix(0.05,0,0,0.05,17.95,0)" xlink:href="#bn"/><use transform="matrix(0.05,0,0,0.05,21.9,0)" xlink:href="#ay"/><use transform="matrix(0.05,0,0,0.05,31.899999999999995,0)" xlink:href="#at"/><use transform="matrix(0.05,0,0,0.05,41.9,0)" xlink:href="#ao"/><use transform="matrix(0.05,0,0,0.05,45.85,0)" xlink:href="#ar"/><use transform="matrix(0.05,0,0,0.05,55.85,0)" xlink:href="#am"/><use transform="matrix(0.05,0,0,0.05,65.85,0)" xlink:href="#ap"/></g><g id="Q"><use transform="matrix(0.05,0,0,0.05,0,0)" xlink:href="#am"/><use transform="matrix(0.05,0,0,0.05,10,0)" xlink:href="#bg"/></g><path fill="#333" d="M266 0h-40l-56-210L115 0H75L2-248h35L96-30l15-64 43-154h32l59 218 59-218h35" id="bH"/><g id="R"><use transform="matrix(0.05,0,0,0.05,0,0)" xlink:href="#bH"/><use transform="matrix(0.05,0,0,0.05,16.95,0)" xlink:href="#bn"/><use transform="matrix(0.05,0,0,0.05,20.9,0)" xlink:href="#ak"/><use transform="matrix(0.05,0,0,0.05,31.85,0)" xlink:href="#bn"/></g><use transform="matrix(0.05,0,0,0.05,0,0)" xlink:href="#bg" id="S"/><g id="T"><use transform="matrix(0.05,0,0,0.05,0,0)" xlink:href="#as"/><use transform="matrix(0.05,0,0,0.05,9,0)" xlink:href="#bg"/><use transform="matrix(0.05,0,0,0.05,19,0)" xlink:href="#bv"/><use transform="matrix(0.05,0,0,0.05,29,0)" xlink:href="#bC"/><use transform="matrix(0.05,0,0,0.05,39,0)" xlink:href="#ao"/><use transform="matrix(0.05,0,0,0.05,42.95,0)" xlink:href="#ar"/><use transform="matrix(0.05,0,0,0.05,52.95,0)" xlink:href="#am"/><use transform="matrix(0.05,0,0,0.05,62.95,0)" xlink:href="#ap"/></g><g id="U"><use transform="matrix(0.05,0,0,0.05,0,0)" xlink:href="#bF"/><use transform="matrix(0.05,0,0,0.05,9,0)" xlink:href="#at"/><use transform="matrix(0.05,0,0,0.05,19,0)" xlink:href="#bz"/><use transform="matrix(0.05,0,0,0.05,33.95,0)" xlink:href="#al"/><use transform="matrix(0.05,0,0,0.05,43.95,0)" xlink:href="#am"/><use transform="matrix(0.05,0,0,0.05,53.95,0)" xlink:href="#bn"/><use transform="matrix(0.05,0,0,0.05,57.900000000000006,0)" xlink:href="#bF"/><use transform="matrix(0.05,0,0,0.05,66.9,0)" xlink:href="#bg"/><use transform="matrix(0.05,0,0,0.05,76.9,0)" xlink:href="#bx"/><use transform="matrix(0.05,0,0,0.05,85.9,0)" xlink:href="#ar"/></g><use transform="matrix(0.05,0,0,0.05,0,0)" xlink:href="#aq" id="V"/><g id="W"><use transform="matrix(0.05,0,0,0.05,0,0)" xlink:href="#bh"/><use transform="matrix(0.05,0,0,0.05,14.950000000000001,0)" xlink:href="#br"/><use transform="matrix(0.05,0,0,0.05,28.950000000000003,0)" xlink:href="#bs"/><use transform="matrix(0.05,0,0,0.05,39.900000000000006,0)" xlink:href="#bs"/></g><g id="X"><use transform="matrix(0.05,0,0,0.05,0,0)" xlink:href="#aq"/><use transform="matrix(0.05,0,0,0.05,9,0)" xlink:href="#ar"/><use transform="matrix(0.05,0,0,0.05,19,0)" xlink:href="#au"/><use transform="matrix(0.05,0,0,0.05,24.95,0)" xlink:href="#bu"/><use transform="matrix(0.05,0,0,0.05,33.95,0)" xlink:href="#ar"/><use transform="matrix(0.05,0,0,0.05,43.95,0)" xlink:href="#au"/><use transform="matrix(0.05,0,0,0.05,49.900000000000006,0)" xlink:href="#ar"/><use transform="matrix(0.05,0,0,0.05,59.900000000000006,0)" xlink:href="#bz"/></g><g id="Y"><use transform="matrix(0.043827160493827164,0,0,0.043827160493827164,0,0)" xlink:href="#bA"/><use transform="matrix(0.043827160493827164,0,0,0.043827160493827164,10.518518518518519,0)" xlink:href="#at"/><use transform="matrix(0.043827160493827164,0,0,0.043827160493827164,19.28395061728395,0)" xlink:href="#bl"/><use transform="matrix(0.043827160493827164,0,0,0.043827160493827164,28.04938271604938,0)" xlink:href="#bg"/><use transform="matrix(0.043827160493827164,0,0,0.043827160493827164,36.81481481481481,0)" xlink:href="#bq"/><use transform="matrix(0.043827160493827164,0,0,0.043827160493827164,42.03024691358024,0)" xlink:href="#bn"/><use transform="matrix(0.043827160493827164,0,0,0.043827160493827164,45.49259259259259,0)" xlink:href="#bp"/><use transform="matrix(0.043827160493827164,0,0,0.043827160493827164,48.95493827160493,0)" xlink:href="#at"/></g><g id="Z"><use transform="matrix(0.043827160493827164,0,0,0.043827160493827164,0,0)" xlink:href="#aq"/><use transform="matrix(0.043827160493827164,0,0,0.043827160493827164,7.888888888888889,0)" xlink:href="#ar"/></g><g id="aa"><use transform="matrix(0.043827160493827164,0,0,0.043827160493827164,0,0)" xlink:href="#ay"/><use transform="matrix(0.043827160493827164,0,0,0.043827160493827164,8.765432098765432,0)" xlink:href="#bq"/><use transform="matrix(0.043827160493827164,0,0,0.043827160493827164,13.980864197530863,0)" xlink:href="#bn"/><use transform="matrix(0.043827160493827164,0,0,0.043827160493827164,17.443209876543207,0)" xlink:href="#ay"/><use transform="matrix(0.043827160493827164,0,0,0.043827160493827164,26.208641975308637,0)" xlink:href="#at"/><use transform="matrix(0.043827160493827164,0,0,0.043827160493827164,34.97407407407407,0)" xlink:href="#ao"/><use transform="matrix(0.043827160493827164,0,0,0.043827160493827164,38.43641975308641,0)" xlink:href="#bn"/><use transform="matrix(0.043827160493827164,0,0,0.043827160493827164,41.898765432098756,0)" xlink:href="#az"/></g><use transform="matrix(0.043827160493827164,0,0,0.043827160493827164,0,0)" xlink:href="#bg" id="ab"/><g id="ac"><use transform="matrix(0.043827160493827164,0,0,0.043827160493827164,0,0)" xlink:href="#as"/><use transform="matrix(0.043827160493827164,0,0,0.043827160493827164,7.888888888888889,0)" xlink:href="#bg"/><use transform="matrix(0.043827160493827164,0,0,0.043827160493827164,16.654320987654323,0)" xlink:href="#bv"/><use transform="matrix(0.043827160493827164,0,0,0.043827160493827164,25.419753086419753,0)" xlink:href="#bC"/><use transform="matrix(0.043827160493827164,0,0,0.043827160493827164,34.18518518518518,0)" xlink:href="#ao"/><use transform="matrix(0.043827160493827164,0,0,0.043827160493827164,37.64753086419753,0)" xlink:href="#bn"/><use transform="matrix(0.043827160493827164,0,0,0.043827160493827164,41.10987654320987,0)" xlink:href="#az"/></g><g id="ad"><use transform="matrix(0.043827160493827164,0,0,0.043827160493827164,0,0)" xlink:href="#bF"/><use transform="matrix(0.043827160493827164,0,0,0.043827160493827164,7.888888888888889,0)" xlink:href="#at"/><use transform="matrix(0.043827160493827164,0,0,0.043827160493827164,16.654320987654323,0)" xlink:href="#bz"/><use transform="matrix(0.043827160493827164,0,0,0.043827160493827164,29.758641975308645,0)" xlink:href="#al"/><use transform="matrix(0.043827160493827164,0,0,0.043827160493827164,38.52407407407408,0)" xlink:href="#am"/><use transform="matrix(0.043827160493827164,0,0,0.043827160493827164,47.28950617283951,0)" xlink:href="#bn"/><use transform="matrix(0.043827160493827164,0,0,0.043827160493827164,50.75185185185185,0)" xlink:href="#bF"/><use transform="matrix(0.043827160493827164,0,0,0.043827160493827164,58.64074074074073,0)" xlink:href="#bg"/><use transform="matrix(0.043827160493827164,0,0,0.043827160493827164,67.40617283950617,0)" xlink:href="#bx"/><use transform="matrix(0.043827160493827164,0,0,0.043827160493827164,75.29506172839505,0)" xlink:href="#bn"/><use transform="matrix(0.043827160493827164,0,0,0.043827160493827164,78.7574074074074,0)" xlink:href="#aw"/></g><path fill="#333" d="M54-142c48-35 137-8 131 61C196 18 31 33 14-55l32-4c7 23 22 37 52 37 35-1 51-22 54-58 4-55-73-65-99-34H22l8-134h141v27H59" id="bI"/><g id="ae"><use transform="matrix(0.05,0,0,0.05,0,0)" xlink:href="#bI"/><use transform="matrix(0.05,0,0,0.05,10,0)" xlink:href="#bE"/></g><g id="af"><use transform="matrix(0.05,0,0,0.05,0,0)" xlink:href="#aq"/><use transform="matrix(0.05,0,0,0.05,9,0)" xlink:href="#ar"/><use transform="matrix(0.05,0,0,0.05,19,0)" xlink:href="#am"/><use transform="matrix(0.05,0,0,0.05,29,0)" xlink:href="#as"/><use transform="matrix(0.05,0,0,0.05,38,0)" xlink:href="#at"/><use transform="matrix(0.05,0,0,0.05,48,0)" xlink:href="#au"/><use transform="matrix(0.05,0,0,0.05,53.95,0)" xlink:href="#av"/></g></defs></g></svg>