<svg xmlns="http://www.w3.org/2000/svg" xmlns:xlink="http://www.w3.org/1999/xlink" xmlns:lucid="lucid" width="1322.76" height="1871.08"><g transform="translate(0 0)" lucid:page-tab-id="0_0"><path d="M0 0h1322.76v1871.08H0z" fill="#fff"/><path d="M221.88 28c0-4.42 3.58-8 8-8h863c4.43 0 8 3.58 8 8v38.87c0 4.42-3.57 8-8 8h-863c-4.42 0-8-3.58-8-8z" stroke="#000" stroke-opacity="0" stroke-width="2" fill="#fff" fill-opacity="0"/><use xlink:href="#a" transform="matrix(1,0,0,1,225.8755966637276,24.000000000000014) translate(232.81 30.084444444444443)"/><use xlink:href="#b" transform="matrix(1,0,0,1,225.8755966637276,24.000000000000014) translate(355.0346913580247 30.084444444444443)"/><use xlink:href="#c" transform="matrix(1,0,0,1,225.8755966637276,24.000000000000014) translate(464.14827160493826 30.084444444444443)"/><use xlink:href="#d" transform="matrix(1,0,0,1,225.8755966637276,24.000000000000014) translate(480.10012345679013 30.084444444444443)"/><path d="M521.38 88c0-4.42 3.58-8 8-8h264c4.42 0 8 3.58 8 8v79.87c0 4.4-3.58 8-8 8h-264c-4.42 0-8-3.6-8-8z" stroke="#000" stroke-opacity="0" fill="#fff" fill-opacity="0"/><use xlink:href="#e" transform="matrix(1,0,0,1,526.3821605374924,84.99999999999996) translate(11.914506172839566 50.15555555555555)"/><use xlink:href="#f" transform="matrix(1,0,0,1,526.3821605374924,84.99999999999996) translate(125.01203703703703 50.15555555555555)"/><path d="M461.8 175.87c17.66 0 32 17.9 32 40s-14.34 40-32 40h-96c-17.7 0-32-17.9-32-40s14.3-40 32-40z" stroke="#000" stroke-opacity="0" fill="#ff741d"/><use xlink:href="#g" transform="matrix(1,0,0,1,338.7862067551581,180.86666666666667) translate(56.025 38.6)"/><path d="M405.84 680.67c3.54-2.65 9.27-2.65 12.8 0l67.2 50.4c3.54 2.65 3.54 6.95 0 9.6l-67.2 50.4c-3.53 2.65-9.26 2.65-12.8 0l-67.2-50.4c-3.53-2.65-3.53-6.95 0-9.6z" stroke="#fe5900" stroke-width="4" fill="#fff"/><use xlink:href="#h" transform="matrix(1,0,0,1,337.24464410311396,680.8666666666668) translate(30.074999999999996 47.8)"/><use xlink:href="#i" transform="matrix(1,0,0,1,337.24464410311396,680.8666666666668) translate(100.92500000000001 47.8)"/><use xlink:href="#j" transform="matrix(1,0,0,1,337.24464410311396,680.8666666666668) translate(43.599999999999994 69.4)"/><path d="M333.8 323.87c0-4.42 3.57-8 8-8h144c4.4 0 8 3.58 8 8v104c0 4.4-3.6 8-8 8h-144c-4.43 0-8-3.6-8-8z" stroke="#000" stroke-opacity="0" stroke-width="2" fill="#ff8839"/><use xlink:href="#k" transform="matrix(1,0,0,1,345.7862067551581,327.8666666666668) translate(8.099999999999994 51.6)"/><use xlink:href="#l" transform="matrix(1,0,0,1,345.7862067551581,327.8666666666668) translate(58 51.6)"/><path d="M413.8 256.37v43.1" stroke="#333" fill="none"/><path d="M414.3 256.38h-1v-.5h1z" stroke="#333" stroke-width=".05" fill="#333"/><path d="M413.8 314.25l-4.65-14.27h9.27z" stroke="#333" fill="#333"/><path d="M333.8 503.87c0-4.42 3.57-8 8-8h144c4.4 0 8 3.58 8 8v104c0 4.4-3.6 8-8 8h-144c-4.43 0-8-3.6-8-8z" stroke="#000" stroke-opacity="0" stroke-width="2" fill="#ff8839"/><use xlink:href="#m" transform="matrix(1,0,0,1,345.7862067551581,507.8666666666668) translate(0.17499999999999716 51.6)"/><use xlink:href="#n" transform="matrix(1,0,0,1,345.7862067551581,507.8666666666668) translate(51.025 51.6)"/><use xlink:href="#o" transform="matrix(1,0,0,1,345.7862067551581,507.8666666666668) translate(75.02499999999999 51.6)"/><use xlink:href="#p" transform="matrix(1,0,0,1,345.7862067551581,507.8666666666668) translate(100.02499999999999 51.6)"/><path d="M413.8 436.37v43.1" stroke="#333" fill="none"/><path d="M414.3 436.38h-1v-.5h1z" stroke="#333" stroke-width=".05" fill="#333"/><path d="M413.8 494.25l-4.65-14.27h9.27z" stroke="#333" fill="#333"/><path d="M413.8 616.37v44.04" stroke="#333" fill="none"/><path d="M414.3 616.38h-1v-.5h1z" stroke="#333" stroke-width=".05" fill="#333"/><path d="M413.8 675.18l-4.65-14.27h9.27z" stroke="#333" fill="#333"/><path d="M561.1 736.87h-69.7v-2h69.7zm59.9-12.94l-.43 3.3-1.3 3.13-2.07 2.7-2.7 2.08-3.13 1.3-3.3.43h-22v-2h21.86l2.92-.4 2.64-1.08 2.27-1.76 1.76-2.3 1.1-2.62.37-2.92v-6.2h2z" stroke="#c92d39" stroke-width=".05" fill="#c92d39"/><path d="M491.4 736.87h-1.06l.1-2h.97z" fill="#c92d39"/><path d="M491.44 736.9h-1.12l.1-2.06h1.02zm-1-2l-.07 1.94h1.02v-1.95z" stroke="#c92d39" stroke-width=".05" fill="#c92d39"/><path d="M624.64 716.6h-9.28L620 702.3z" fill="#c92d39"/><path d="M626 717.6h-12l6-18.5zm-9.26-2h6.52L620 705.55z" stroke="#c92d39" stroke-width=".05" fill="#c92d39"/><use xlink:href="#q" transform="matrix(1,0,0,1,561.1085911706059,725.0666666666668) translate(0.005000000000000782 14.4)"/><path d="M611.37 555.3l3.13 1.3 2.7 2.07 2.07 2.7 1.3 3.12.43 3.3v12.1h-2v-11.97l-.38-2.92-1.1-2.62-1.75-2.3-2.28-1.74-2.65-1.1-2.92-.37H581.9v-2h26.17zm-99.08 1.57v-2h44.64v2z" stroke="#c92d39" stroke-width=".05" fill="#c92d39"/><path d="M621 580.92l-2-.02v-1h2z" fill="#c92d39"/><path d="M621.02 580.95l-2.04-.02v-1.07H621zm-2-1.04v.98l1.96.02v-1z" stroke="#c92d39" stroke-width=".05" fill="#c92d39"/><path d="M511.3 560.5L497 555.87l14.27-4.64z" fill="#c92d39"/><path d="M512.3 561.88l-18.5-6 18.5-6.03zm-12.04-6l10.03 3.25v-6.52z" stroke="#c92d39" stroke-width=".05" fill="#c92d39"/><use xlink:href="#r" transform="matrix(1,0,0,1,556.9415764600111,545.0666666666668) translate(0.005000000000000782 14.4)"/><path d="M332.24 863.87c0-4.42 3.6-8 8-8h144c4.42 0 8 3.58 8 8v104c0 4.4-3.58 8-8 8h-144c-4.4 0-8-3.6-8-8z" stroke="#000" stroke-opacity="0" stroke-width="2" fill="#ff8839"/><use xlink:href="#m" transform="matrix(1,0,0,1,344.24464410311396,867.8666666666668) translate(26.075000000000003 40.8)"/><use xlink:href="#n" transform="matrix(1,0,0,1,344.24464410311396,867.8666666666668) translate(76.92500000000001 40.8)"/><use xlink:href="#s" transform="matrix(1,0,0,1,344.24464410311396,867.8666666666668) translate(100.925 40.8)"/><use xlink:href="#t" transform="matrix(1,0,0,1,344.24464410311396,867.8666666666668) translate(34.025 62.4)"/><path d="M413.24 837.36h-2v-1.15h2zm0-22.75h-2v-18.65h2z" stroke="#7ab648" stroke-width=".05" fill="#7ab648"/><path d="M413.24 794.96v1.02h-2v-1.04z" fill="#7ab648"/><path d="M413.27 794.94V796h-2.05v-1.08zm-2 1h1.95V795l-1.95-.03z" stroke="#7ab648" stroke-width=".05" fill="#7ab648"/><path d="M412.24 852.63l-4.63-14.27h9.28z" fill="#7ab648"/><path d="M412.24 855.87l-6-18.5h12.02zm-3.25-16.5l3.24 10.02 3.26-10.04z" stroke="#7ab648" stroke-width=".05" fill="#7ab648"/><use xlink:href="#u" transform="matrix(1,0,0,1,396.24464410311396,814.6098602509014) translate(0.004999999999999005 14.4)"/><path d="M404.3 1040.67c3.54-2.65 9.27-2.65 12.8 0l67.2 50.4c3.54 2.65 3.54 6.95 0 9.6l-67.2 50.4c-3.53 2.65-9.26 2.65-12.8 0l-67.2-50.4c-3.53-2.65-3.53-6.95 0-9.6z" stroke="#fe5900" stroke-width="4" fill="#fff"/><use xlink:href="#h" transform="matrix(1,0,0,1,335.7030814510696,1040.8666666666666) translate(30.074999999999996 47.8)"/><use xlink:href="#i" transform="matrix(1,0,0,1,335.7030814510696,1040.8666666666666) translate(100.92500000000001 47.8)"/><use xlink:href="#j" transform="matrix(1,0,0,1,335.7030814510696,1040.8666666666666) translate(43.599999999999994 69.4)"/><path d="M411.7 1197.36h-2v-1.15h2zm0-22.75h-2v-18.65h2z" stroke="#7ab648" stroke-width=".05" fill="#7ab648"/><path d="M411.7 1154.96v1.02h-2v-1.04z" fill="#7ab648"/><path d="M411.73 1154.94v1.06h-2.05v-1.08zm-2 1h1.95v-.95l-1.95-.03z" stroke="#7ab648" stroke-width=".05" fill="#7ab648"/><path d="M410.7 1212.63l-4.63-14.27h9.27z" fill="#7ab648"/><path d="M410.7 1215.87l-6-18.5h12zm-3.26-16.5l3.26 10.02 3.26-10.04z" stroke="#7ab648" stroke-width=".05" fill="#7ab648"/><use xlink:href="#u" transform="matrix(1,0,0,1,394.7030814510696,1174.6098602509012) translate(0.004999999999999005 14.4)"/><path d="M412.24 976.37v44.04" stroke="#333" fill="none"/><path d="M412.74 976.38h-1v-.5h1z" stroke="#333" stroke-width=".05" fill="#333"/><path d="M412.24 1035.18l-4.63-14.27h9.28z" stroke="#333" fill="#333"/><path d="M533.24 1083.93l-.43 3.3-1.28 3.13-2.08 2.7-2.7 2.08-3.12 1.3-3.3.43h-30.47v-2h30.33l2.92-.4 2.63-1.08 2.3-1.76 1.74-2.3 1.1-2.62.37-2.92v-65.43h2zm-9.62-168.63l3.12 1.3 2.7 2.07 2.08 2.7 1.3 3.12.42 3.3v68.97h-2v-68.84l-.38-2.92-1.1-2.62-1.74-2.3-2.3-1.74-2.62-1.1-2.92-.37h-9.43v-2h9.56z" stroke="#c92d39" stroke-width=".05" fill="#c92d39"/><path d="M489.87 1096.87h-1.07l.1-2h.97z" fill="#c92d39"/><path d="M489.9 1096.9h-1.12l.08-2.06h1.04zm-1-2l-.07 1.94h1.02v-1.95z" stroke="#c92d39" stroke-width=".05" fill="#c92d39"/><path d="M509.75 920.5l-14.27-4.63 14.27-4.64z" fill="#c92d39"/><path d="M510.75 921.88l-18.5-6 18.5-6.03zm-12.03-6l10.03 3.25v-6.52z" stroke="#c92d39" stroke-width=".05" fill="#c92d39"/><use xlink:href="#v" transform="matrix(1,0,0,1,522.244644103114,996.7663186227387) translate(0.005000000000000782 14.4)"/><path d="M330.7 1223.87c0-4.42 3.58-8 8-8h144c4.42 0 8 3.58 8 8v104c0 4.4-3.58 8-8 8h-144c-4.42 0-8-3.6-8-8z" stroke="#000" stroke-opacity="0" stroke-width="2" fill="#ff8839"/><use xlink:href="#w" transform="matrix(1,0,0,1,342.7030814510696,1227.8666666666666) translate(0.07499999999998863 40.8)"/><use xlink:href="#x" transform="matrix(1,0,0,1,342.7030814510696,1227.8666666666666) translate(107.925 40.8)"/><use xlink:href="#y" transform="matrix(1,0,0,1,342.7030814510696,1227.8666666666666) translate(3.299999999999997 62.4)"/><use xlink:href="#z" transform="matrix(1,0,0,1,342.7030814510696,1227.8666666666666) translate(17.299999999999997 62.4)"/><use xlink:href="#A" transform="matrix(1,0,0,1,342.7030814510696,1227.8666666666666) translate(57.849999999999994 62.4)"/><path d="M330.7 1423.87c0-4.42 3.58-8 8-8h144c4.42 0 8 3.58 8 8v104c0 4.4-3.58 8-8 8h-144c-4.42 0-8-3.6-8-8z" stroke="#000" stroke-opacity="0" stroke-width="2" fill="#ff8839"/><use xlink:href="#B" transform="matrix(1,0,0,1,342.7030814510696,1427.8666666666668) translate(11.549999999999997 40.8)"/><use xlink:href="#C" transform="matrix(1,0,0,1,342.7030814510696,1427.8666666666668) translate(55.45 40.8)"/><use xlink:href="#D" transform="matrix(1,0,0,1,342.7030814510696,1427.8666666666668) translate(104.45 40.8)"/><use xlink:href="#t" transform="matrix(1,0,0,1,342.7030814510696,1427.8666666666668) translate(34.025 62.4)"/><path d="M410.7 1336.37v63.1" stroke="#333" fill="none"/><path d="M411.2 1336.38h-1v-.5h1z" stroke="#333" stroke-width=".05" fill="#333"/><path d="M410.7 1414.25l-4.63-14.27h9.27z" stroke="#333" fill="#333"/><path d="M330.7 1603.87c0-4.42 3.58-8 8-8h144c4.42 0 8 3.58 8 8v104c0 4.4-3.58 8-8 8h-144c-4.42 0-8-3.6-8-8z" stroke="#000" stroke-opacity="0" stroke-width="2" fill="#ff8839"/><use xlink:href="#E" transform="matrix(1,0,0,1,342.7030814510696,1607.8666666666668) translate(8.549999999999997 30)"/><use xlink:href="#F" transform="matrix(1,0,0,1,342.7030814510696,1607.8666666666668) translate(49.45 30)"/><use xlink:href="#G" transform="matrix(1,0,0,1,342.7030814510696,1607.8666666666668) translate(118.45 30)"/><use xlink:href="#H" transform="matrix(1,0,0,1,342.7030814510696,1607.8666666666668) translate(18.5 51.6)"/><use xlink:href="#I" transform="matrix(1,0,0,1,342.7030814510696,1607.8666666666668) translate(97.5 51.6)"/><use xlink:href="#J" transform="matrix(1,0,0,1,342.7030814510696,1607.8666666666668) translate(41.05 73.2)"/><path d="M410.7 1536.37v43.1" stroke="#333" fill="none"/><path d="M411.2 1536.38h-1v-.5h1z" stroke="#333" stroke-width=".05" fill="#333"/><path d="M410.7 1594.25l-4.63-14.27h9.27z" stroke="#333" fill="#333"/><path d="M921.54 412.13c0-4.4 3.58-8 8-8h144c4.42 0 8 3.6 8 8v104c0 4.42-3.58 8-8 8h-144c-4.42 0-8-3.58-8-8z" stroke="#000" stroke-opacity="0" stroke-width="2" fill="#ff8839"/><use xlink:href="#K" transform="matrix(1,0,0,1,933.5415626520444,416.1333333333332) translate(9.974999999999994 40.8)"/><use xlink:href="#L" transform="matrix(1,0,0,1,933.5415626520444,416.1333333333332) translate(59.275 40.8)"/><use xlink:href="#M" transform="matrix(1,0,0,1,933.5415626520444,416.1333333333332) translate(100.075 40.8)"/><use xlink:href="#N" transform="matrix(1,0,0,1,933.5415626520444,416.1333333333332) translate(3.0749999999999886 62.4)"/><use xlink:href="#O" transform="matrix(1,0,0,1,933.5415626520444,416.1333333333332) translate(73.02499999999999 62.4)"/><path d="M905.16 464.63h-11.6l-3 .4-2.76 1.14-2.4 1.83-1.82 2.4-1.14 2.75-.4 3.02V1743.9l-.42 3.2-1.24 3-2 2.6-2.6 2-3 1.25-3.2.42h-446.9l-3.22-.42-3-1.25-2.6-2-2-2.6-1.24-3-.42-3.2v-27.53h1v27.46l.4 3.02 1.14 2.76 1.83 2.4 2.4 1.83 2.75 1.14 3.02.4H869.5l3.03-.4 2.75-1.14 2.4-1.83 1.82-2.4 1.15-2.75.4-3.02V476.1l.4-3.2 1.26-3 2-2.6 2.6-2 3-1.25 3.2-.42h11.66z" stroke="#333" stroke-width=".05" fill="#333"/><path d="M411.2 1716.38h-1v-.5h1z" fill="#333"/><path d="M411.23 1716.4h-1.05v-.56h1.05zm-1-.5v.45h.95v-.46z" stroke="#333" stroke-width=".05" fill="#333"/><path d="M919.92 464.13l-14.26 4.64v-9.27z" fill="#333"/><path d="M921.54 464.13l-16.38 5.33V458.8zm-15.38 3.95l12.15-3.95-12.14-3.94z" stroke="#333" stroke-width=".05" fill="#333"/><path d="M921.54 772.13c0-4.4 3.58-8 8-8h144c4.42 0 8 3.6 8 8v104c0 4.42-3.58 8-8 8h-144c-4.42 0-8-3.58-8-8z" stroke="#000" stroke-opacity="0" stroke-width="2" fill="#ff8839"/><use xlink:href="#P" transform="matrix(1,0,0,1,933.5415626520444,776.1333333333332) translate(0.5250000000000057 19.19999999999999)"/><use xlink:href="#Q" transform="matrix(1,0,0,1,933.5415626520444,776.1333333333332) translate(81.525 19.19999999999999)"/><use xlink:href="#R" transform="matrix(1,0,0,1,933.5415626520444,776.1333333333332) translate(23.5 40.79999999999999)"/><use xlink:href="#S" transform="matrix(1,0,0,1,933.5415626520444,776.1333333333332) translate(92.5 40.79999999999999)"/><use xlink:href="#T" transform="matrix(1,0,0,1,933.5415626520444,776.1333333333332) translate(21.025 62.39999999999999)"/><use xlink:href="#U" transform="matrix(1,0,0,1,933.5415626520444,776.1333333333332) translate(74.975 62.39999999999999)"/><use xlink:href="#V" transform="matrix(1,0,0,1,933.5415626520444,776.1333333333332) translate(19.099999999999994 84)"/><use xlink:href="#W" transform="matrix(1,0,0,1,933.5415626520444,776.1333333333332) translate(66.05 84)"/><path d="M921.54 950.53c0-4.4 3.58-8 8-8h144c4.42 0 8 3.6 8 8v159.2c0 4.42-3.58 8-8 8h-144c-4.42 0-8-3.58-8-8z" stroke="#000" stroke-opacity="0" stroke-width="2" fill="#ff8839"/><g><use xlink:href="#X" transform="matrix(1,0,0,1,933.5415626520444,954.5333333333332) translate(32.575 14.800000000000006)"/><use xlink:href="#Y" transform="matrix(1,0,0,1,933.5415626520444,954.5333333333332) translate(83.42500000000001 14.800000000000006)"/><use xlink:href="#Z" transform="matrix(1,0,0,1,933.5415626520444,954.5333333333332) translate(3.549999999999997 36.400000000000006)"/><use xlink:href="#aa" transform="matrix(1,0,0,1,933.5415626520444,954.5333333333332) translate(87.45 36.400000000000006)"/><use xlink:href="#ab" transform="matrix(1,0,0,1,933.5415626520444,954.5333333333332) translate(112.45 36.400000000000006)"/><use xlink:href="#ac" transform="matrix(1,0,0,1,933.5415626520444,954.5333333333332) translate(4.099999999999994 58.00000000000001)"/><use xlink:href="#ad" transform="matrix(1,0,0,1,933.5415626520444,954.5333333333332) translate(57.99999999999999 58.00000000000001)"/><use xlink:href="#ae" transform="matrix(1,0,0,1,933.5415626520444,954.5333333333332) translate(23 79.60000000000002)"/><use xlink:href="#S" transform="matrix(1,0,0,1,933.5415626520444,954.5333333333332) translate(93 79.60000000000002)"/><use xlink:href="#af" transform="matrix(1,0,0,1,933.5415626520444,954.5333333333332) translate(7.099999999999994 101.20000000000002)"/><use xlink:href="#ag" transform="matrix(1,0,0,1,933.5415626520444,954.5333333333332) translate(66.9 101.20000000000002)"/><use xlink:href="#ah" transform="matrix(1,0,0,1,933.5415626520444,954.5333333333332) translate(4.049999999999997 122.80000000000001)"/><use xlink:href="#ai" transform="matrix(1,0,0,1,933.5415626520444,954.5333333333332) translate(93 122.80000000000001)"/><use xlink:href="#aj" transform="matrix(1,0,0,1,933.5415626520444,954.5333333333332) translate(121.95 122.80000000000001)"/><use xlink:href="#V" transform="matrix(1,0,0,1,933.5415626520444,954.5333333333332) translate(11.124999999999993 144.4)"/><use xlink:href="#ak" transform="matrix(1,0,0,1,933.5415626520444,954.5333333333332) translate(58.074999999999996 144.4)"/></g><path d="M1001.54 884.63v41.52" stroke="#333" fill="none"/><path d="M1002.04 884.65h-1v-.52h1z" stroke="#333" stroke-width=".05" fill="#333"/><path d="M1001.54 940.92l-4.63-14.27h9.28z" stroke="#333" fill="#333"/><path d="M1112.8 375.8l2.98 1.23 2.6 2 2 2.6 1.24 3 .42 3.2v757.94l-.42 3.2-1.24 3-2 2.6-2.6 2-3 1.24-3.2.43h-96.07l-3.2-.42-3-1.23-2.6-2-2-2.6-1.24-3-.42-3.2v-27.54h1v27.47l.4 3.02 1.14 2.75 1.83 2.4 2.4 1.83 2.76 1.14 3 .4h95.95l3.03-.4 2.75-1.14 2.4-1.84 1.82-2.4 1.15-2.74.4-3.02V387.9l-.4-3.02-1.15-2.75-1.83-2.4-2.4-1.83-2.75-1.14-3-.4H510.16v-1h599.4z" stroke="#333" stroke-width=".05" fill="#333"/><path d="M1002.04 1118.25h-1v-.52h1z" fill="#333"/><path d="M1002.07 1118.27h-1.05v-.56h1.05zm-1-.5v.45h.95v-.46z" stroke="#333" stroke-width=".05" fill="#333"/><path d="M509.67 380.5l-14.27-4.63 14.27-4.64z" fill="#333"/><path d="M510.17 381.2l-16.38-5.33 16.37-5.33zm-13.15-5.33l12.15 3.94v-7.88z" stroke="#333" stroke-width=".05" fill="#333"/><path d="M921.54 572.13c0-4.4 3.58-8 8-8h144c4.42 0 8 3.6 8 8v104c0 4.42-3.58 8-8 8h-144c-4.42 0-8-3.58-8-8z" stroke="#000" stroke-opacity="0" stroke-width="2" fill="#ff8839"/><g><use xlink:href="#al" transform="matrix(1,0,0,1,933.5415626520444,576.1333333333332) translate(14.049999999999997 19.19999999999999)"/><use xlink:href="#am" transform="matrix(1,0,0,1,933.5415626520444,576.1333333333332) translate(62.95 19.19999999999999)"/><use xlink:href="#an" transform="matrix(1,0,0,1,933.5415626520444,576.1333333333332) translate(102.95 19.19999999999999)"/><use xlink:href="#ao" transform="matrix(1,0,0,1,933.5415626520444,576.1333333333332) translate(23.525 40.79999999999999)"/><use xlink:href="#D" transform="matrix(1,0,0,1,933.5415626520444,576.1333333333332) translate(92.475 40.79999999999999)"/><use xlink:href="#ap" transform="matrix(1,0,0,1,933.5415626520444,576.1333333333332) translate(21.525 62.39999999999999)"/><use xlink:href="#I" transform="matrix(1,0,0,1,933.5415626520444,576.1333333333332) translate(94.475 62.39999999999999)"/><use xlink:href="#J" transform="matrix(1,0,0,1,933.5415626520444,576.1333333333332) translate(41.05 84)"/></g><path d="M1001.54 524.63v23.12" stroke="#333" fill="none"/><path d="M1002.04 524.65h-1v-.52h1z" stroke="#333" stroke-width=".05" fill="#333"/><path d="M1001.54 562.52l-4.63-14.27h9.28z" stroke="#333" fill="#333"/><path d="M1001.54 684.63v63.12" stroke="#333" fill="none"/><path d="M1002.04 684.65h-1v-.52h1z" stroke="#333" stroke-width=".05" fill="#333"/><path d="M1001.54 762.52l-4.63-14.27h9.28z" stroke="#333" fill="#333"/><path d="M519.93 55.44c0-4.42 3.58-8 8-8h224c4.42 0 8 3.58 8 8v44c0 4.42-3.58 8-8 8h-224c-4.42 0-8-3.58-8-8z" stroke="#000" stroke-opacity="0" fill="#fff" fill-opacity="0"/><g><use xlink:href="#aq" transform="matrix(1,0,0,1,524.9323001250475,52.436815971004194) translate(61.12499999999999 28.6)"/><use xlink:href="#ar" transform="matrix(1,0,0,1,524.9323001250475,52.436815971004194) translate(117.975 28.6)"/></g><path d="M613.6 584.8c3.53-2.65 9.27-2.65 12.8 0l67.2 50.4c3.53 2.65 3.53 6.95 0 9.6l-67.2 50.4c-3.53 2.65-9.27 2.65-12.8 0l-67.2-50.4c-3.53-2.65-3.53-6.95 0-9.6z" stroke="#fe5900" stroke-width="4" fill="#fff"/><g><use xlink:href="#as" transform="matrix(1,0,0,1,545,585) translate(21 47.8)"/><use xlink:href="#at" transform="matrix(1,0,0,1,545,585) translate(75 47.8)"/><use xlink:href="#au" transform="matrix(1,0,0,1,545,585) translate(99 47.8)"/><use xlink:href="#av" transform="matrix(1,0,0,1,545,585) translate(114 47.8)"/><use xlink:href="#aw" transform="matrix(1,0,0,1,545,585) translate(46 69.4)"/></g><path d="M627.66 412.13c0-4.4 3.6-8 8-8h144c4.42 0 8 3.6 8 8v104c0 4.42-3.58 8-8 8h-144c-4.4 0-8-3.58-8-8z" stroke="#000" stroke-opacity="0" stroke-width="2" fill="#ff8839"/><g><use xlink:href="#ax" transform="matrix(1,0,0,1,639.6638847036013,416.1333333333332) translate(8.099999999999994 40.8)"/><use xlink:href="#ay" transform="matrix(1,0,0,1,639.6638847036013,416.1333333333332) translate(59 40.8)"/><use xlink:href="#az" transform="matrix(1,0,0,1,639.6638847036013,416.1333333333332) translate(84 40.8)"/><use xlink:href="#aa" transform="matrix(1,0,0,1,639.6638847036013,416.1333333333332) translate(10.024999999999999 62.4)"/><use xlink:href="#aA" transform="matrix(1,0,0,1,639.6638847036013,416.1333333333332) translate(35.025 62.4)"/><use xlink:href="#aB" transform="matrix(1,0,0,1,639.6638847036013,416.1333333333332) translate(77.975 62.4)"/></g><path d="M708.66 631.5l-.05 1-.96 3.3-2.08 2.73-2.92 1.82-3.3.63-.38-1.96 2.94-.56 2.3-1.43 1.63-2.14.8-2.74.03-.7v-33.83h2zm0-55.47h-2v-33.4h2z" stroke="#c92d39" stroke-width=".05" fill="#c92d39"/><path d="M699.17 641h-1.07l.08-2h1z" fill="#c92d39"/><path d="M699.2 641.02h-1.13l.1-2.04h1.02zm-1-2l-.07 1.96h1V639z" stroke="#c92d39" stroke-width=".05" fill="#c92d39"/><path d="M712.3 541.64h-9.27l4.63-14.27z" fill="#c92d39"/><path d="M713.68 542.64h-12.03l6-18.5zm-9.28-2h6.52l-3.26-10.03z" stroke="#c92d39" stroke-width=".05" fill="#c92d39"/><g><use xlink:href="#r" transform="matrix(1,0,0,1,695.1888847036013,576.0274796485171) translate(0.005000000000000782 14.4)"/></g><path d="M707.66 403.63v-15.76c0-6.63-5.37-12-12-12h-185.5" stroke="#333" fill="none"/><path d="M708.16 404.13h-1v-.5h1z" stroke="#333" stroke-width=".05" fill="#333"/><path d="M495.4 375.87l14.27-4.64v9.27z" stroke="#333" fill="#333"/><defs><path fill="#a9afb8" d="M147 0H94L2-248h55l64 206c17-72 42-137 63-206h54" id="aC"/><path fill="#a9afb8" d="M123 10C108 53 80 86 19 72V37c35 8 53-11 59-39L3-190h52l48 148c12-52 28-100 44-148h51zM72-208v-5l45-51h45v8l-60 48H72" id="aD"/><path fill="#a9afb8" d="M128 0H69L1-190h53L99-40l48-150h52" id="aE"/><path fill="#a9afb8" d="M110-194c64 0 96 36 96 99 0 64-35 99-97 99-61 0-95-36-95-99 0-62 34-99 96-99zm-1 164c35 0 45-28 45-65 0-40-10-65-43-65-34 0-45 26-45 65 0 36 10 65 43 65" id="aF"/><path fill="#a9afb8" d="M25-224v-37h50v37H25zM75 22c2 45-34 59-81 51V38c22 5 31-5 31-27v-201h50V22" id="aG"/><g id="a"><use transform="matrix(0.0728395061728395,0,0,0.0728395061728395,0,0)" xlink:href="#aC"/><use transform="matrix(0.0728395061728395,0,0,0.0728395061728395,17.48148148148148,0)" xlink:href="#aD"/><use transform="matrix(0.0728395061728395,0,0,0.0728395061728395,32.04938271604938,0)" xlink:href="#aE"/><use transform="matrix(0.0728395061728395,0,0,0.0728395061728395,46.61728395061728,0)" xlink:href="#aF"/><use transform="matrix(0.0728395061728395,0,0,0.0728395061728395,62.56913580246913,0)" xlink:href="#aG"/><use transform="matrix(0.0728395061728395,0,0,0.0728395061728395,69.85308641975308,0)" xlink:href="#aF"/><use transform="matrix(0.0728395061728395,0,0,0.0728395061728395,85.80493827160494,0)" xlink:href="#aE"/><use transform="matrix(0.0728395061728395,0,0,0.0728395061728395,100.37283950617284,0)" xlink:href="#aD"/></g><path fill="#a9afb8" d="M88-194c31-1 46 15 58 34l-1-101h50l1 261h-48c-2-10 0-23-3-31C134-8 116 4 84 4 32 4 16-41 15-95c0-56 19-97 73-99zm17 164c33 0 40-30 41-66 1-37-9-64-41-64s-38 30-39 65c0 43 13 65 39 65" id="aH"/><path fill="#a9afb8" d="M25-224v-37h50v37H25zM25 0v-190h50V0H25" id="aI"/><path fill="#a9afb8" d="M133-34C117-15 103 5 69 4 32 3 11-16 11-54c-1-60 55-63 116-61 1-26-3-47-28-47-18 1-26 9-28 27l-52-2c7-38 36-58 82-57s74 22 75 68l1 82c-1 14 12 18 25 15v27c-30 8-71 5-69-32zm-48 3c29 0 43-24 42-57-32 0-66-3-65 30 0 17 8 27 23 27" id="aJ"/><path fill="#a9afb8" d="M195-6C206 82 75 100 31 46c-4-6-6-13-8-21l49-6c3 16 16 24 34 25 40 0 42-37 40-79-11 22-30 35-61 35-53 0-70-43-70-97 0-56 18-96 73-97 30 0 46 14 59 34l2-30h47zm-90-29c32 0 41-27 41-63 0-35-9-62-40-62-32 0-39 29-40 63 0 36 9 62 39 62" id="aK"/><path fill="#a9afb8" d="M135-150c-39-12-60 13-60 57V0H25l-1-190h47c2 13-1 29 3 40 6-28 27-53 61-41v41" id="aL"/><path fill="#a9afb8" d="M220-157c-53 9-28 100-34 157h-49v-107c1-27-5-49-29-50C55-147 81-57 75 0H25l-1-190h47c2 12-1 28 3 38 10-53 101-56 108 0 13-22 24-43 59-42 82 1 51 116 57 194h-49v-107c-1-25-5-48-29-50" id="aM"/><g id="b"><use transform="matrix(0.0728395061728395,0,0,0.0728395061728395,0,0)" xlink:href="#aH"/><use transform="matrix(0.0728395061728395,0,0,0.0728395061728395,15.95185185185185,0)" xlink:href="#aI"/><use transform="matrix(0.0728395061728395,0,0,0.0728395061728395,23.235802469135802,0)" xlink:href="#aJ"/><use transform="matrix(0.0728395061728395,0,0,0.0728395061728395,37.803703703703704,0)" xlink:href="#aK"/><use transform="matrix(0.0728395061728395,0,0,0.0728395061728395,53.75555555555555,0)" xlink:href="#aL"/><use transform="matrix(0.0728395061728395,0,0,0.0728395061728395,63.953086419753085,0)" xlink:href="#aJ"/><use transform="matrix(0.0728395061728395,0,0,0.0728395061728395,78.52098765432099,0)" xlink:href="#aM"/></g><path fill="#a9afb8" d="M14-72v-43h91v43H14" id="aN"/><use transform="matrix(0.0728395061728395,0,0,0.0728395061728395,0,0)" xlink:href="#aN" id="c"/><path fill="#a9afb8" d="M230 0l2-204L168 0h-37L68-204 70 0H24v-248h70l56 185 57-185h69V0h-46" id="aO"/><path fill="#a9afb8" d="M185-48c-13 30-37 53-82 52C43 2 14-33 14-96s30-98 90-98c62 0 83 45 84 108H66c0 31 8 55 39 56 18 0 30-7 34-22zm-45-69c5-46-57-63-70-21-2 6-4 13-4 21h74" id="aP"/><path fill="#a9afb8" d="M115-3C79 11 28 4 28-45v-112H4v-33h27l15-45h31v45h36v33H77v99c-1 23 16 31 38 25v30" id="aQ"/><path fill="#a9afb8" d="M137-138c1-29-70-34-71-4 15 46 118 7 119 86 1 83-164 76-172 9l43-7c4 19 20 25 44 25 33 8 57-30 24-41C81-84 22-81 20-136c-2-80 154-74 161-7" id="aR"/><path fill="#a9afb8" d="M135-194c87-1 58 113 63 194h-50c-7-57 23-157-34-157-59 0-34 97-39 157H25l-1-190h47c2 12-1 28 3 38 12-26 28-41 61-42" id="aS"/><path fill="#a9afb8" d="M190-63c-7 42-38 67-86 67-59 0-84-38-90-98-12-110 154-137 174-36l-49 2c-2-19-15-32-35-32-30 0-35 28-38 64-6 74 65 87 74 30" id="aT"/><g id="d"><use transform="matrix(0.0728395061728395,0,0,0.0728395061728395,0,0)" xlink:href="#aO"/><use transform="matrix(0.0728395061728395,0,0,0.0728395061728395,21.77901234567901,0)" xlink:href="#aP"/><use transform="matrix(0.0728395061728395,0,0,0.0728395061728395,36.34691358024691,0)" xlink:href="#aQ"/><use transform="matrix(0.0728395061728395,0,0,0.0728395061728395,45.01481481481481,0)" xlink:href="#aP"/><use transform="matrix(0.0728395061728395,0,0,0.0728395061728395,59.582716049382704,0)" xlink:href="#aF"/><use transform="matrix(0.0728395061728395,0,0,0.0728395061728395,75.53456790123457,0)" xlink:href="#aR"/><use transform="matrix(0.0728395061728395,0,0,0.0728395061728395,90.10246913580247,0)" xlink:href="#aQ"/><use transform="matrix(0.0728395061728395,0,0,0.0728395061728395,98.77037037037037,0)" xlink:href="#aJ"/><use transform="matrix(0.0728395061728395,0,0,0.0728395061728395,113.33827160493827,0)" xlink:href="#aS"/><use transform="matrix(0.0728395061728395,0,0,0.0728395061728395,129.29012345679013,0)" xlink:href="#aI"/><use transform="matrix(0.0728395061728395,0,0,0.0728395061728395,136.57407407407408,0)" xlink:href="#aT"/><use transform="matrix(0.0728395061728395,0,0,0.0728395061728395,151.14197530864197,0)" xlink:href="#aP"/></g><path fill="#333" d="M137 0h-34L2-248h35l83 218 83-218h36" id="aU"/><path fill="#333" d="M117-194c89-4 53 116 60 194h-32v-121c0-31-8-49-39-48C34-167 62-67 57 0H25l-1-190h30c1 10-1 24 2 32 11-22 29-35 61-36" id="aV"/><path fill="#333" d="M24-231v-30h32v30H24zM24 0v-190h32V0H24" id="aW"/><path fill="#333" d="M59-47c-2 24 18 29 38 22v24C64 9 27 4 27-40v-127H5v-23h24l9-43h21v43h35v23H59v120" id="aX"/><path fill="#333" d="M114-163C36-179 61-72 57 0H25l-1-190h30c1 12-1 29 2 39 6-27 23-49 58-41v29zm-27-48H51c-13-18-31-30-41-51 32-2 39 20 59 30 19-10 26-32 57-30-9 21-27 33-39 51" id="aY"/><path fill="#333" d="M34 0v-190h32V0H34zM24-211c8-23 27-35 38-54h36v5l-58 49H24" id="aZ"/><g id="e"><use transform="matrix(0.09938271604938267,0,0,0.09938271604938267,0,0)" xlink:href="#aU"/><use transform="matrix(0.09938271604938267,0,0,0.09938271604938267,23.85185185185184,0)" xlink:href="#aV"/><use transform="matrix(0.09938271604938267,0,0,0.09938271604938267,43.72839506172838,0)" xlink:href="#aW"/><use transform="matrix(0.09938271604938267,0,0,0.09938271604938267,51.57962962962961,0)" xlink:href="#aX"/><use transform="matrix(0.09938271604938267,0,0,0.09938271604938267,61.51790123456787,0)" xlink:href="#aY"/><use transform="matrix(0.09938271604938267,0,0,0.09938271604938267,73.3444444444444,0)" xlink:href="#aV"/><use transform="matrix(0.09938271604938267,0,0,0.09938271604938267,93.22098765432094,0)" xlink:href="#aZ"/></g><path fill="#333" d="M24-231v-30h32v30H24zM-9 49c24 4 33-6 33-30v-209h32V24c2 40-23 58-65 49V49" id="ba"/><path fill="#333" d="M100-194c63 0 86 42 84 106H49c0 40 14 67 53 68 26 1 43-12 49-29l28 8c-11 28-37 45-77 45C44 4 14-33 15-96c1-61 26-98 85-98zm52 81c6-60-76-77-97-28-3 7-6 17-6 28h103" id="bb"/><path fill="#333" d="M85-194c31 0 48 13 60 33l-1-100h32l1 261h-30c-2-10 0-23-3-31C134-8 116 4 85 4 32 4 16-35 15-94c0-66 23-100 70-100zm9 24c-40 0-46 34-46 75 0 40 6 74 45 74 42 0 51-32 51-76 0-42-9-74-50-73" id="bc"/><path fill="#333" d="M100-194c62-1 85 37 85 99 1 63-27 99-86 99S16-35 15-95c0-66 28-99 85-99zM99-20c44 1 53-31 53-75 0-43-8-75-51-75s-53 32-53 75 10 74 51 75" id="bd"/><path fill="#333" d="M143 0L79-87 56-68V0H24v-261h32v163l83-92h37l-77 82L181 0h-38" id="be"/><path fill="#333" d="M179-190L93 31C79 59 56 82 12 73V49c39 6 53-20 64-50L1-190h34L92-34l54-156h33" id="bf"/><g id="f"><use transform="matrix(0.09938271604938267,0,0,0.09938271604938267,0,0)" xlink:href="#ba"/><use transform="matrix(0.09938271604938267,0,0,0.09938271604938267,7.851234567901232,0)" xlink:href="#bb"/><use transform="matrix(0.09938271604938267,0,0,0.09938271604938267,27.727777777777767,0)" xlink:href="#bc"/><use transform="matrix(0.09938271604938267,0,0,0.09938271604938267,47.604320987654305,0)" xlink:href="#aV"/><use transform="matrix(0.09938271604938267,0,0,0.09938271604938267,67.48086419753083,0)" xlink:href="#bd"/><use transform="matrix(0.09938271604938267,0,0,0.09938271604938267,87.35740740740736,0)" xlink:href="#aX"/><use transform="matrix(0.09938271604938267,0,0,0.09938271604938267,97.29567901234563,0)" xlink:href="#be"/><use transform="matrix(0.09938271604938267,0,0,0.09938271604938267,115.18456790123452,0)" xlink:href="#bf"/></g><path fill="#333" d="M185-189c-5-48-123-54-124 2 14 75 158 14 163 119 3 78-121 87-175 55-17-10-28-26-33-46l33-7c5 56 141 63 141-1 0-78-155-14-162-118-5-82 145-84 179-34 5 7 8 16 11 25" id="bg"/><path fill="#333" d="M141-36C126-15 110 5 73 4 37 3 15-17 15-53c-1-64 63-63 125-63 3-35-9-54-41-54-24 1-41 7-42 31l-33-3c5-37 33-52 76-52 45 0 72 20 72 64v82c-1 20 7 32 28 27v20c-31 9-61-2-59-35zM48-53c0 20 12 33 32 33 41-3 63-29 60-74-43 2-92-5-92 41" id="bh"/><path fill="#333" d="M114-163C36-179 61-72 57 0H25l-1-190h30c1 12-1 29 2 39 6-27 23-49 58-41v29" id="bi"/><g id="g"><use transform="matrix(0.05,0,0,0.05,0,0)" xlink:href="#bg"/><use transform="matrix(0.05,0,0,0.05,12,0)" xlink:href="#aX"/><use transform="matrix(0.05,0,0,0.05,17,0)" xlink:href="#bh"/><use transform="matrix(0.05,0,0,0.05,27,0)" xlink:href="#bi"/><use transform="matrix(0.05,0,0,0.05,32.95,0)" xlink:href="#aX"/></g><path fill="#333" d="M30-248c87 1 191-15 191 75 0 78-77 80-158 76V0H30v-248zm33 125c57 0 124 11 124-50 0-59-68-47-124-48v98" id="bj"/><path fill="#333" d="M24 0v-261h32V0H24" id="bk"/><g id="h"><use transform="matrix(0.05,0,0,0.05,0,0)" xlink:href="#bj"/><use transform="matrix(0.05,0,0,0.05,12,0)" xlink:href="#bd"/><use transform="matrix(0.05,0,0,0.05,22,0)" xlink:href="#bc"/><use transform="matrix(0.05,0,0,0.05,32,0)" xlink:href="#bh"/><use transform="matrix(0.05,0,0,0.05,42,0)" xlink:href="#aY"/><use transform="matrix(0.05,0,0,0.05,47.95,0)" xlink:href="#aW"/><use transform="matrix(0.05,0,0,0.05,51.900000000000006,0)" xlink:href="#bk"/><use transform="matrix(0.05,0,0,0.05,55.85,0)" xlink:href="#bd"/></g><path fill="#333" d="M135-143c-3-34-86-38-87 0 15 53 115 12 119 90S17 21 10-45l28-5c4 36 97 45 98 0-10-56-113-15-118-90-4-57 82-63 122-42 12 7 21 19 24 35" id="bl"/><g id="i"><use transform="matrix(0.05,0,0,0.05,0,0)" xlink:href="#bl"/><use transform="matrix(0.05,0,0,0.05,9,0)" xlink:href="#bb"/></g><path fill="#333" d="M115-194c55 1 70 41 70 98S169 2 115 4C84 4 66-9 55-30l1 105H24l-1-265h31l2 30c10-21 28-34 59-34zm-8 174c40 0 45-34 45-75s-6-73-45-74c-42 0-51 32-51 76 0 43 10 73 51 73" id="bm"/><path fill="#333" d="M103-251c84 0 111 97 45 133-19 10-37 24-39 52H78c0-63 77-55 77-114 0-30-21-42-52-43-32 0-53 17-56 46l-32-2c7-45 34-72 88-72zM77 0v-35h34V0H77" id="bn"/><g id="j"><use transform="matrix(0.05,0,0,0.05,0,0)" xlink:href="#bm"/><use transform="matrix(0.05,0,0,0.05,10,0)" xlink:href="#aY"/><use transform="matrix(0.05,0,0,0.05,15.949999999999998,0)" xlink:href="#aW"/><use transform="matrix(0.05,0,0,0.05,19.9,0)" xlink:href="#bm"/><use transform="matrix(0.05,0,0,0.05,29.899999999999995,0)" xlink:href="#bd"/><use transform="matrix(0.05,0,0,0.05,39.9,0)" xlink:href="#ba"/><use transform="matrix(0.05,0,0,0.05,43.85,0)" xlink:href="#aW"/><use transform="matrix(0.05,0,0,0.05,47.800000000000004,0)" xlink:href="#aX"/><use transform="matrix(0.05,0,0,0.05,52.800000000000004,0)" xlink:href="#bn"/></g><path fill="#333" d="M209 0H11v-25l151-195H24v-28h176v25L50-27h159V0" id="bo"/><g id="k"><use transform="matrix(0.05,0,0,0.05,0,0)" xlink:href="#bo"/><use transform="matrix(0.05,0,0,0.05,10.950000000000001,0)" xlink:href="#bh"/><use transform="matrix(0.05,0,0,0.05,20.950000000000003,0)" xlink:href="#bm"/><use transform="matrix(0.05,0,0,0.05,30.950000000000003,0)" xlink:href="#aV"/><use transform="matrix(0.05,0,0,0.05,40.95,0)" xlink:href="#aW"/></g><path fill="#333" d="M96-169c-40 0-48 33-48 73s9 75 48 75c24 0 41-14 43-38l32 2c-6 37-31 61-74 61-59 0-76-41-82-99-10-93 101-131 147-64 4 7 5 14 7 22l-32 3c-4-21-16-35-41-35" id="bp"/><g id="l"><use transform="matrix(0.05,0,0,0.05,0,0)" xlink:href="#bm"/><use transform="matrix(0.05,0,0,0.05,10,0)" xlink:href="#bi"/><use transform="matrix(0.05,0,0,0.05,15.949999999999998,0)" xlink:href="#bd"/><use transform="matrix(0.05,0,0,0.05,25.950000000000003,0)" xlink:href="#bp"/><use transform="matrix(0.05,0,0,0.05,34.95,0)" xlink:href="#bb"/><use transform="matrix(0.05,0,0,0.05,44.95,0)" xlink:href="#bl"/><use transform="matrix(0.05,0,0,0.05,53.95,0)" xlink:href="#bd"/><use transform="matrix(0.05,0,0,0.05,63.95,0)" xlink:href="#bi"/></g><g id="m"><use transform="matrix(0.05,0,0,0.05,0,0)" xlink:href="#bj"/><use transform="matrix(0.05,0,0,0.05,12,0)" xlink:href="#aY"/><use transform="matrix(0.05,0,0,0.05,17.95,0)" xlink:href="#aW"/><use transform="matrix(0.05,0,0,0.05,21.9,0)" xlink:href="#bm"/><use transform="matrix(0.05,0,0,0.05,31.899999999999995,0)" xlink:href="#bd"/><use transform="matrix(0.05,0,0,0.05,41.9,0)" xlink:href="#ba"/></g><g id="n"><use transform="matrix(0.05,0,0,0.05,0,0)" xlink:href="#bl"/><use transform="matrix(0.05,0,0,0.05,9,0)" xlink:href="#bb"/></g><g id="o"><use transform="matrix(0.05,0,0,0.05,0,0)" xlink:href="#aV"/><use transform="matrix(0.05,0,0,0.05,10,0)" xlink:href="#bh"/></g><path fill="#333" d="M266 0h-40l-56-210L115 0H75L2-248h35L96-30l15-64 43-154h32l59 218 59-218h35" id="bq"/><path fill="#333" d="M63-220v92h138v28H63V0H30v-248h175v28H63" id="br"/><g id="p"><use transform="matrix(0.05,0,0,0.05,0,0)" xlink:href="#bq"/><use transform="matrix(0.05,0,0,0.05,16.95,0)" xlink:href="#aW"/><use transform="matrix(0.05,0,0,0.05,20.9,0)" xlink:href="#br"/><use transform="matrix(0.05,0,0,0.05,31.85,0)" xlink:href="#aW"/></g><path fill="#333" d="M190 0L58-211 59 0H30v-248h39L202-35l-2-213h31V0h-41" id="bs"/><path fill="#333" d="M30 0v-248h187v28H63v79h144v27H63v87h162V0H30" id="bt"/><g id="q"><use transform="matrix(0.05,0,0,0.05,0,0)" xlink:href="#bs"/><use transform="matrix(0.05,0,0,0.05,12.950000000000001,0)" xlink:href="#bt"/></g><g id="r"><use transform="matrix(0.05,0,0,0.05,0,0)" xlink:href="#bs"/><use transform="matrix(0.05,0,0,0.05,12.950000000000001,0)" xlink:href="#bt"/></g><use transform="matrix(0.05,0,0,0.05,0,0)" xlink:href="#be" id="s"/><path fill="#333" d="M115-194c53 0 69 39 70 98 0 66-23 100-70 100C84 3 66-7 56-30L54 0H23l1-261h32v101c10-23 28-34 59-34zm-8 174c40 0 45-34 45-75 0-40-5-75-45-74-42 0-51 32-51 76 0 43 10 73 51 73" id="bu"/><path fill="#333" d="M141-36C126-15 110 5 73 4 37 3 15-17 15-53c-1-64 63-63 125-63 3-35-9-54-41-54-24 1-41 7-42 31l-33-3c5-37 33-52 76-52 45 0 72 20 72 64v82c-1 20 7 32 28 27v20c-31 9-61-2-59-35zM48-53c0 20 12 33 32 33 41-3 63-29 60-74-43 2-92-5-92 41zm25-158c8-23 27-35 38-54h36v5l-58 49H73" id="bv"/><path fill="#333" d="M9 0v-24l116-142H16v-24h144v24L44-24h123V0H9" id="bw"/><g id="t"><use transform="matrix(0.05,0,0,0.05,0,0)" xlink:href="#bc"/><use transform="matrix(0.05,0,0,0.05,10,0)" xlink:href="#bh"/><use transform="matrix(0.05,0,0,0.05,20,0)" xlink:href="#aX"/><use transform="matrix(0.05,0,0,0.05,25,0)" xlink:href="#bh"/><use transform="matrix(0.05,0,0,0.05,35,0)" xlink:href="#bu"/><use transform="matrix(0.05,0,0,0.05,45,0)" xlink:href="#bv"/><use transform="matrix(0.05,0,0,0.05,55,0)" xlink:href="#bw"/><use transform="matrix(0.05,0,0,0.05,64,0)" xlink:href="#aW"/></g><path fill="#333" d="M205 0l-28-72H64L36 0H1l101-248h38L239 0h-34zm-38-99l-47-123c-12 45-31 82-46 123h93" id="bx"/><g id="u"><use transform="matrix(0.05,0,0,0.05,0,0)" xlink:href="#bx"/><use transform="matrix(0.05,0,0,0.05,12,0)" xlink:href="#aV"/><use transform="matrix(0.05,0,0,0.05,22,0)" xlink:href="#bd"/></g><g id="v"><use transform="matrix(0.05,0,0,0.05,0,0)" xlink:href="#aV"/><use transform="matrix(0.05,0,0,0.05,10,0)" xlink:href="#bb"/></g><path fill="#333" d="M106-169C34-169 62-67 57 0H25v-261h32l-1 103c12-21 28-36 61-36 89 0 53 116 60 194h-32v-121c2-32-8-49-39-48" id="by"/><path fill="#333" d="M84 4C-5 8 30-112 23-190h32v120c0 31 7 50 39 49 72-2 45-101 50-169h31l1 190h-30c-1-10 1-25-2-33-11 22-28 36-60 37" id="bz"/><g id="w"><use transform="matrix(0.05,0,0,0.05,0,0)" xlink:href="#bg"/><use transform="matrix(0.05,0,0,0.05,12,0)" xlink:href="#bf"/><use transform="matrix(0.05,0,0,0.05,21,0)" xlink:href="#aV"/><use transform="matrix(0.05,0,0,0.05,31,0)" xlink:href="#bp"/><use transform="matrix(0.05,0,0,0.05,40,0)" xlink:href="#by"/><use transform="matrix(0.05,0,0,0.05,50,0)" xlink:href="#bi"/><use transform="matrix(0.05,0,0,0.05,55.95,0)" xlink:href="#bd"/><use transform="matrix(0.05,0,0,0.05,65.95,0)" xlink:href="#aV"/><use transform="matrix(0.05,0,0,0.05,75.95,0)" xlink:href="#aW"/><use transform="matrix(0.05,0,0,0.05,79.9,0)" xlink:href="#bw"/><use transform="matrix(0.05,0,0,0.05,88.9,0)" xlink:href="#bz"/><use transform="matrix(0.05,0,0,0.05,98.9,0)" xlink:href="#ba"/></g><path fill="#333" d="M96-169c-40 0-48 33-48 73s9 75 48 75c24 0 41-14 43-38l32 2c-6 37-31 61-74 61-59 0-76-41-82-99-10-93 101-131 147-64 4 7 5 14 7 22l-32 3c-4-21-16-35-41-35zm19-42H79c-13-18-31-30-41-51 32-2 39 20 59 30 19-10 26-32 57-30-9 21-27 33-39 51" id="bA"/><g id="x"><use transform="matrix(0.05,0,0,0.05,0,0)" xlink:href="#bA"/><use transform="matrix(0.05,0,0,0.05,9,0)" xlink:href="#bh"/><use transform="matrix(0.05,0,0,0.05,19,0)" xlink:href="#bl"/></g><use transform="matrix(0.05,0,0,0.05,0,0)" xlink:href="#bl" id="y"/><path fill="#333" d="M127-220V0H93v-220H8v-28h204v28h-85" id="bB"/><g id="z"><use transform="matrix(0.05,0,0,0.05,0,0)" xlink:href="#bs"/><use transform="matrix(0.05,0,0,0.05,12.950000000000001,0)" xlink:href="#bB"/><use transform="matrix(0.05,0,0,0.05,23.900000000000002,0)" xlink:href="#bj"/></g><path fill="#333" d="M108 0H70L1-190h34L89-25l56-165h34" id="bC"/><path fill="#333" d="M210-169c-67 3-38 105-44 169h-31v-121c0-29-5-50-35-48C34-165 62-65 56 0H25l-1-190h30c1 10-1 24 2 32 10-44 99-50 107 0 11-21 27-35 58-36 85-2 47 119 55 194h-31v-121c0-29-5-49-35-48" id="bD"/><g id="A"><use transform="matrix(0.05,0,0,0.05,0,0)" xlink:href="#bl"/><use transform="matrix(0.05,0,0,0.05,9,0)" xlink:href="#bb"/><use transform="matrix(0.05,0,0,0.05,19,0)" xlink:href="#bi"/><use transform="matrix(0.05,0,0,0.05,24.95,0)" xlink:href="#bC"/><use transform="matrix(0.05,0,0,0.05,33.95,0)" xlink:href="#bb"/><use transform="matrix(0.05,0,0,0.05,43.95,0)" xlink:href="#bi"/><use transform="matrix(0.05,0,0,0.05,49.900000000000006,0)" xlink:href="#bb"/><use transform="matrix(0.05,0,0,0.05,59.900000000000006,0)" xlink:href="#bD"/></g><path fill="#333" d="M135-143c-3-34-86-38-87 0 15 53 115 12 119 90S17 21 10-45l28-5c4 36 97 45 98 0-10-56-113-15-118-90-4-57 82-63 122-42 12 7 21 19 24 35zm-28-68H71c-13-18-31-30-41-51 32-2 39 20 59 30 19-10 26-32 57-30-9 21-27 33-39 51" id="bE"/><g id="B"><use transform="matrix(0.05,0,0,0.05,0,0)" xlink:href="#bj"/><use transform="matrix(0.05,0,0,0.05,12,0)" xlink:href="#bd"/><use transform="matrix(0.05,0,0,0.05,22,0)" xlink:href="#bE"/><use transform="matrix(0.05,0,0,0.05,31,0)" xlink:href="#bk"/><use transform="matrix(0.05,0,0,0.05,34.95,0)" xlink:href="#aW"/></g><g id="C"><use transform="matrix(0.05,0,0,0.05,0,0)" xlink:href="#bc"/><use transform="matrix(0.05,0,0,0.05,10,0)" xlink:href="#bd"/><use transform="matrix(0.05,0,0,0.05,20,0)" xlink:href="#aX"/><use transform="matrix(0.05,0,0,0.05,25,0)" xlink:href="#bh"/><use transform="matrix(0.05,0,0,0.05,35,0)" xlink:href="#bw"/></g><g id="D"><use transform="matrix(0.05,0,0,0.05,0,0)" xlink:href="#aV"/><use transform="matrix(0.05,0,0,0.05,10,0)" xlink:href="#bh"/></g><path fill="#333" d="M232-93c-1 65-40 97-104 97C67 4 28-28 28-90v-158h33c8 89-33 224 67 224 102 0 64-133 71-224h33v155" id="bF"/><path fill="#333" d="M9 0v-24l116-142H16v-24h144v24L44-24h123V0H9zm95-211H68c-13-18-31-30-41-51 32-2 39 20 59 30 19-10 26-32 57-30-9 21-27 33-39 51" id="bG"/><g id="E"><use transform="matrix(0.05,0,0,0.05,0,0)" xlink:href="#bF"/><use transform="matrix(0.05,0,0,0.05,12.950000000000001,0)" xlink:href="#bk"/><use transform="matrix(0.05,0,0,0.05,16.900000000000002,0)" xlink:href="#bd"/><use transform="matrix(0.05,0,0,0.05,26.900000000000002,0)" xlink:href="#bG"/></g><g id="F"><use transform="matrix(0.05,0,0,0.05,0,0)" xlink:href="#by"/><use transform="matrix(0.05,0,0,0.05,10,0)" xlink:href="#bd"/><use transform="matrix(0.05,0,0,0.05,20,0)" xlink:href="#bc"/><use transform="matrix(0.05,0,0,0.05,30,0)" xlink:href="#aV"/><use transform="matrix(0.05,0,0,0.05,40,0)" xlink:href="#bd"/><use transform="matrix(0.05,0,0,0.05,50,0)" xlink:href="#aX"/><use transform="matrix(0.05,0,0,0.05,55,0)" xlink:href="#bf"/></g><use transform="matrix(0.05,0,0,0.05,0,0)" xlink:href="#bw" id="G"/><g id="H"><use transform="matrix(0.05,0,0,0.05,0,0)" xlink:href="#bc"/><use transform="matrix(0.05,0,0,0.05,10,0)" xlink:href="#bh"/><use transform="matrix(0.05,0,0,0.05,20,0)" xlink:href="#aX"/><use transform="matrix(0.05,0,0,0.05,25,0)" xlink:href="#bh"/><use transform="matrix(0.05,0,0,0.05,35,0)" xlink:href="#bu"/><use transform="matrix(0.05,0,0,0.05,45,0)" xlink:href="#bv"/><use transform="matrix(0.05,0,0,0.05,55,0)" xlink:href="#bw"/><use transform="matrix(0.05,0,0,0.05,64,0)" xlink:href="#bb"/></g><g id="I"><use transform="matrix(0.05,0,0,0.05,0,0)" xlink:href="#bc"/><use transform="matrix(0.05,0,0,0.05,10,0)" xlink:href="#bd"/></g><path fill="#333" d="M100-194c63 0 86 42 84 106H49c0 40 14 67 53 68 26 1 43-12 49-29l28 8c-11 28-37 45-77 45C44 4 14-33 15-96c1-61 26-98 85-98zm52 81c6-60-76-77-97-28-3 7-6 17-6 28h103zm-34-98H82c-13-18-31-30-41-51 32-2 39 20 59 30 19-10 26-32 57-30-9 21-27 33-39 51" id="bH"/><g id="J"><use transform="matrix(0.05,0,0,0.05,0,0)" xlink:href="#bm"/><use transform="matrix(0.05,0,0,0.05,10,0)" xlink:href="#bh"/><use transform="matrix(0.05,0,0,0.05,20,0)" xlink:href="#bD"/><use transform="matrix(0.05,0,0,0.05,34.95,0)" xlink:href="#bH"/><use transform="matrix(0.05,0,0,0.05,44.95,0)" xlink:href="#aX"/><use transform="matrix(0.05,0,0,0.05,49.95,0)" xlink:href="#aW"/></g><g id="K"><use transform="matrix(0.05,0,0,0.05,0,0)" xlink:href="#aU"/><use transform="matrix(0.05,0,0,0.05,11.35,0)" xlink:href="#bf"/><use transform="matrix(0.05,0,0,0.05,20.35,0)" xlink:href="#bm"/><use transform="matrix(0.05,0,0,0.05,30.35,0)" xlink:href="#aV"/><use transform="matrix(0.05,0,0,0.05,40.35,0)" xlink:href="#aW"/></g><g id="L"><use transform="matrix(0.05,0,0,0.05,0,0)" xlink:href="#bq"/><use transform="matrix(0.05,0,0,0.05,16.95,0)" xlink:href="#aW"/><use transform="matrix(0.05,0,0,0.05,20.9,0)" xlink:href="#br"/><use transform="matrix(0.05,0,0,0.05,31.85,0)" xlink:href="#aW"/></g><g id="M"><use transform="matrix(0.05,0,0,0.05,0,0)" xlink:href="#bm"/><use transform="matrix(0.05,0,0,0.05,10,0)" xlink:href="#bi"/><use transform="matrix(0.05,0,0,0.05,15.949999999999998,0)" xlink:href="#bd"/></g><g id="N"><use transform="matrix(0.05,0,0,0.05,0,0)" xlink:href="#bz"/><use transform="matrix(0.05,0,0,0.05,10,0)" xlink:href="#bE"/><use transform="matrix(0.05,0,0,0.05,19,0)" xlink:href="#bb"/><use transform="matrix(0.05,0,0,0.05,29,0)" xlink:href="#aX"/><use transform="matrix(0.05,0,0,0.05,34,0)" xlink:href="#aY"/><use transform="matrix(0.05,0,0,0.05,39.95,0)" xlink:href="#bb"/><use transform="matrix(0.05,0,0,0.05,49.95,0)" xlink:href="#aV"/><use transform="matrix(0.05,0,0,0.05,59.95,0)" xlink:href="#aZ"/></g><path fill="#333" d="M177-190C167-65 218 103 67 71c-23-6-38-20-44-43l32-5c15 47 100 32 89-28v-30C133-14 115 1 83 1 29 1 15-40 15-95c0-56 16-97 71-98 29-1 48 16 59 35 1-10 0-23 2-32h30zM94-22c36 0 50-32 50-73 0-42-14-75-50-75-39 0-46 34-46 75s6 73 46 73" id="bI"/><g id="O"><use transform="matrix(0.05,0,0,0.05,0,0)" xlink:href="#bb"/><use transform="matrix(0.05,0,0,0.05,10,0)" xlink:href="#aV"/><use transform="matrix(0.05,0,0,0.05,20,0)" xlink:href="#bb"/><use transform="matrix(0.05,0,0,0.05,30,0)" xlink:href="#bi"/><use transform="matrix(0.05,0,0,0.05,35.95,0)" xlink:href="#bI"/><use transform="matrix(0.05,0,0,0.05,45.95,0)" xlink:href="#aW"/><use transform="matrix(0.05,0,0,0.05,49.900000000000006,0)" xlink:href="#bb"/></g><g id="P"><use transform="matrix(0.05,0,0,0.05,0,0)" xlink:href="#bj"/><use transform="matrix(0.05,0,0,0.05,12,0)" xlink:href="#bd"/><use transform="matrix(0.05,0,0,0.05,22,0)" xlink:href="#bl"/><use transform="matrix(0.05,0,0,0.05,31,0)" xlink:href="#aX"/><use transform="matrix(0.05,0,0,0.05,36,0)" xlink:href="#bz"/><use transform="matrix(0.05,0,0,0.05,46,0)" xlink:href="#bm"/><use transform="matrix(0.05,0,0,0.05,56,0)" xlink:href="#aV"/><use transform="matrix(0.05,0,0,0.05,66,0)" xlink:href="#bH"/></g><g id="Q"><use transform="matrix(0.05,0,0,0.05,0,0)" xlink:href="#bw"/><use transform="matrix(0.05,0,0,0.05,9,0)" xlink:href="#bd"/><use transform="matrix(0.05,0,0,0.05,19,0)" xlink:href="#bu"/><use transform="matrix(0.05,0,0,0.05,29,0)" xlink:href="#bi"/><use transform="matrix(0.05,0,0,0.05,34.95,0)" xlink:href="#bh"/><use transform="matrix(0.05,0,0,0.05,44.95,0)" xlink:href="#bw"/></g><g id="R"><use transform="matrix(0.05,0,0,0.05,0,0)" xlink:href="#by"/><use transform="matrix(0.05,0,0,0.05,10,0)" xlink:href="#bd"/><use transform="matrix(0.05,0,0,0.05,20,0)" xlink:href="#bc"/><use transform="matrix(0.05,0,0,0.05,30,0)" xlink:href="#aV"/><use transform="matrix(0.05,0,0,0.05,40,0)" xlink:href="#bd"/><use transform="matrix(0.05,0,0,0.05,50,0)" xlink:href="#aX"/><use transform="matrix(0.05,0,0,0.05,55,0)" xlink:href="#bf"/></g><g id="S"><use transform="matrix(0.05,0,0,0.05,0,0)" xlink:href="#aV"/><use transform="matrix(0.05,0,0,0.05,10,0)" xlink:href="#bh"/></g><path fill="#333" d="M140-251c81 0 123 46 123 126C263-46 219 4 140 4 59 4 17-45 17-125s42-126 123-126zm0 227c63 0 89-41 89-101s-29-99-89-99c-61 0-89 39-89 99S79-25 140-24" id="bJ"/><path fill="#333" d="M30 0v-248h33v221h125V0H30" id="bK"/><path fill="#333" d="M30-248c118-7 216 8 213 122C240-48 200 0 122 0H30v-248zM63-27c89 8 146-16 146-99s-60-101-146-95v194" id="bL"/><g id="T"><use transform="matrix(0.05,0,0,0.05,0,0)" xlink:href="#bJ"/><use transform="matrix(0.05,0,0,0.05,14,0)" xlink:href="#bK"/><use transform="matrix(0.05,0,0,0.05,24,0)" xlink:href="#bt"/><use transform="matrix(0.05,0,0,0.05,36,0)" xlink:href="#bL"/></g><g id="U"><use transform="matrix(0.05,0,0,0.05,0,0)" xlink:href="#aV"/><use transform="matrix(0.05,0,0,0.05,10,0)" xlink:href="#bb"/><use transform="matrix(0.05,0,0,0.05,20,0)" xlink:href="#bu"/><use transform="matrix(0.05,0,0,0.05,30,0)" xlink:href="#bd"/></g><path fill="#333" d="M16-82v-28h88v28H16" id="bM"/><path fill="#333" d="M33 0v-248h34V0H33" id="bN"/><g id="V"><use transform="matrix(0.05,0,0,0.05,0,0)" xlink:href="#bt"/><use transform="matrix(0.05,0,0,0.05,12,0)" xlink:href="#bM"/><use transform="matrix(0.05,0,0,0.05,17.95,0)" xlink:href="#bN"/><use transform="matrix(0.05,0,0,0.05,22.95,0)" xlink:href="#aV"/><use transform="matrix(0.05,0,0,0.05,32.95,0)" xlink:href="#be"/></g><g id="W"><use transform="matrix(0.05,0,0,0.05,0,0)" xlink:href="#bc"/><use transform="matrix(0.05,0,0,0.05,10,0)" xlink:href="#aW"/><use transform="matrix(0.05,0,0,0.05,13.949999999999998,0)" xlink:href="#bl"/><use transform="matrix(0.05,0,0,0.05,22.95,0)" xlink:href="#bm"/><use transform="matrix(0.05,0,0,0.05,32.95,0)" xlink:href="#bk"/><use transform="matrix(0.05,0,0,0.05,36.900000000000006,0)" xlink:href="#bb"/><use transform="matrix(0.05,0,0,0.05,46.900000000000006,0)" xlink:href="#ba"/></g><g id="X"><use transform="matrix(0.05,0,0,0.05,0,0)" xlink:href="#bj"/><use transform="matrix(0.05,0,0,0.05,12,0)" xlink:href="#aY"/><use transform="matrix(0.05,0,0,0.05,17.95,0)" xlink:href="#bb"/><use transform="matrix(0.05,0,0,0.05,27.950000000000003,0)" xlink:href="#ba"/><use transform="matrix(0.05,0,0,0.05,31.899999999999995,0)" xlink:href="#bc"/><use transform="matrix(0.05,0,0,0.05,41.9,0)" xlink:href="#aW"/></g><g id="Y"><use transform="matrix(0.05,0,0,0.05,0,0)" xlink:href="#bc"/><use transform="matrix(0.05,0,0,0.05,10,0)" xlink:href="#bd"/></g><g id="Z"><use transform="matrix(0.05,0,0,0.05,0,0)" xlink:href="#by"/><use transform="matrix(0.05,0,0,0.05,10,0)" xlink:href="#aW"/><use transform="matrix(0.05,0,0,0.05,13.949999999999998,0)" xlink:href="#bu"/><use transform="matrix(0.05,0,0,0.05,23.95,0)" xlink:href="#bb"/><use transform="matrix(0.05,0,0,0.05,33.95,0)" xlink:href="#bi"/><use transform="matrix(0.05,0,0,0.05,39.900000000000006,0)" xlink:href="#aV"/><use transform="matrix(0.05,0,0,0.05,49.900000000000006,0)" xlink:href="#bh"/><use transform="matrix(0.05,0,0,0.05,59.900000000000006,0)" xlink:href="#bp"/><use transform="matrix(0.05,0,0,0.05,68.9,0)" xlink:href="#bb"/></g><g id="aa"><use transform="matrix(0.05,0,0,0.05,0,0)" xlink:href="#aV"/><use transform="matrix(0.05,0,0,0.05,10,0)" xlink:href="#bh"/></g><path fill="#333" d="M110-160c48 1 74 30 74 79 0 53-28 85-80 85-65 0-83-55-86-122-5-90 50-162 133-122 14 7 22 21 27 39l-31 6c-5-40-67-38-82-6-9 19-15 44-15 74 11-20 30-34 60-33zm-7 138c34 0 49-23 49-58s-16-56-50-56c-29 0-50 16-49 49 1 36 15 65 50 65" id="bO"/><path fill="#333" d="M101-251c68 0 85 55 85 127S166 4 100 4C33 4 14-52 14-124c0-73 17-127 87-127zm-1 229c47 0 54-49 54-102s-4-102-53-102c-51 0-55 48-55 102 0 53 5 102 54 102" id="bP"/><g id="ab"><use transform="matrix(0.05,0,0,0.05,0,0)" xlink:href="#bO"/><use transform="matrix(0.05,0,0,0.05,10,0)" xlink:href="#bP"/></g><path fill="#333" d="M33 0v-38h34V0H33" id="bQ"/><g id="ac"><use transform="matrix(0.05,0,0,0.05,0,0)" xlink:href="#bC"/><use transform="matrix(0.05,0,0,0.05,9,0)" xlink:href="#aX"/><use transform="matrix(0.05,0,0,0.05,14,0)" xlink:href="#bb"/><use transform="matrix(0.05,0,0,0.05,24,0)" xlink:href="#aY"/><use transform="matrix(0.05,0,0,0.05,29.950000000000003,0)" xlink:href="#aW"/><use transform="matrix(0.05,0,0,0.05,33.9,0)" xlink:href="#aV"/><use transform="matrix(0.05,0,0,0.05,43.9,0)" xlink:href="#bQ"/></g><path fill="#333" d="M87 75C49 33 22-17 22-94c0-76 28-126 65-167h31c-38 41-64 92-64 168S80 34 118 75H87" id="bR"/><g id="ad"><use transform="matrix(0.05,0,0,0.05,0,0)" xlink:href="#bR"/><use transform="matrix(0.05,0,0,0.05,5.95,0)" xlink:href="#bm"/><use transform="matrix(0.05,0,0,0.05,15.949999999999998,0)" xlink:href="#bd"/><use transform="matrix(0.05,0,0,0.05,25.950000000000003,0)" xlink:href="#bl"/><use transform="matrix(0.05,0,0,0.05,34.95,0)" xlink:href="#bk"/><use transform="matrix(0.05,0,0,0.05,38.900000000000006,0)" xlink:href="#bb"/><use transform="matrix(0.05,0,0,0.05,48.900000000000006,0)" xlink:href="#bc"/><use transform="matrix(0.05,0,0,0.05,58.900000000000006,0)" xlink:href="#aV"/><use transform="matrix(0.05,0,0,0.05,68.9,0)" xlink:href="#aZ"/></g><g id="ae"><use transform="matrix(0.05,0,0,0.05,0,0)" xlink:href="#by"/><use transform="matrix(0.05,0,0,0.05,10,0)" xlink:href="#bd"/><use transform="matrix(0.05,0,0,0.05,20,0)" xlink:href="#bc"/><use transform="matrix(0.05,0,0,0.05,30,0)" xlink:href="#aV"/><use transform="matrix(0.05,0,0,0.05,40,0)" xlink:href="#bd"/><use transform="matrix(0.05,0,0,0.05,50,0)" xlink:href="#aX"/><use transform="matrix(0.05,0,0,0.05,55,0)" xlink:href="#bh"/></g><g id="af"><use transform="matrix(0.05,0,0,0.05,0,0)" xlink:href="#bc"/><use transform="matrix(0.05,0,0,0.05,10,0)" xlink:href="#aW"/><use transform="matrix(0.05,0,0,0.05,13.949999999999998,0)" xlink:href="#bl"/><use transform="matrix(0.05,0,0,0.05,22.95,0)" xlink:href="#bm"/><use transform="matrix(0.05,0,0,0.05,32.95,0)" xlink:href="#bk"/><use transform="matrix(0.05,0,0,0.05,36.900000000000006,0)" xlink:href="#bb"/><use transform="matrix(0.05,0,0,0.05,46.900000000000006,0)" xlink:href="#ba"/><use transform="matrix(0.05,0,0,0.05,50.85000000000001,0)" xlink:href="#aW"/></g><path fill="#333" d="M84 4C-5 8 30-112 23-190h32v120c0 31 7 50 39 49 72-2 45-101 50-169h31l1 190h-30c-1-10 1-25-2-33-11 22-28 36-60 37zm17-294c26 0 42 16 42 42 0 27-18 40-42 43-25-2-43-16-43-43 0-26 17-42 43-42zm-24 42c-2 26 37 32 45 10 6-16-3-33-21-33-16 0-23 10-24 23" id="bS"/><g id="ag"><use transform="matrix(0.05,0,0,0.05,0,0)" xlink:href="#bw"/><use transform="matrix(0.05,0,0,0.05,9,0)" xlink:href="#bS"/><use transform="matrix(0.05,0,0,0.05,19,0)" xlink:href="#bl"/><use transform="matrix(0.05,0,0,0.05,28,0)" xlink:href="#aX"/><use transform="matrix(0.05,0,0,0.05,33,0)" xlink:href="#bv"/><use transform="matrix(0.05,0,0,0.05,43,0)" xlink:href="#bC"/><use transform="matrix(0.05,0,0,0.05,52,0)" xlink:href="#bv"/></g><g id="ah"><use transform="matrix(0.05,0,0,0.05,0,0)" xlink:href="#bw"/><use transform="matrix(0.05,0,0,0.05,9,0)" xlink:href="#bd"/><use transform="matrix(0.05,0,0,0.05,19,0)" xlink:href="#bu"/><use transform="matrix(0.05,0,0,0.05,29,0)" xlink:href="#bi"/><use transform="matrix(0.05,0,0,0.05,34.95,0)" xlink:href="#bh"/><use transform="matrix(0.05,0,0,0.05,44.95,0)" xlink:href="#bw"/><use transform="matrix(0.05,0,0,0.05,53.95,0)" xlink:href="#bb"/><use transform="matrix(0.05,0,0,0.05,63.95,0)" xlink:href="#aV"/><use transform="matrix(0.05,0,0,0.05,73.95,0)" xlink:href="#bh"/></g><g id="ai"><use transform="matrix(0.05,0,0,0.05,0,0)" xlink:href="#ba"/><use transform="matrix(0.05,0,0,0.05,3.95,0)" xlink:href="#bb"/><use transform="matrix(0.05,0,0,0.05,13.949999999999998,0)" xlink:href="#aV"/></g><use transform="matrix(0.05,0,0,0.05,0,0)" xlink:href="#bz" id="aj"/><path fill="#333" d="M33-261c38 41 65 92 65 168S71 34 33 75H2C39 34 66-17 66-93S39-220 2-261h31" id="bT"/><g id="ak"><use transform="matrix(0.05,0,0,0.05,0,0)" xlink:href="#bc"/><use transform="matrix(0.05,0,0,0.05,10,0)" xlink:href="#aW"/><use transform="matrix(0.05,0,0,0.05,13.949999999999998,0)" xlink:href="#bl"/><use transform="matrix(0.05,0,0,0.05,22.95,0)" xlink:href="#bm"/><use transform="matrix(0.05,0,0,0.05,32.95,0)" xlink:href="#bk"/><use transform="matrix(0.05,0,0,0.05,36.900000000000006,0)" xlink:href="#bb"/><use transform="matrix(0.05,0,0,0.05,46.900000000000006,0)" xlink:href="#ba"/><use transform="matrix(0.05,0,0,0.05,50.85000000000001,0)" xlink:href="#bb"/><use transform="matrix(0.05,0,0,0.05,60.85,0)" xlink:href="#bT"/></g><g id="al"><use transform="matrix(0.05,0,0,0.05,0,0)" xlink:href="#bo"/><use transform="matrix(0.05,0,0,0.05,10.950000000000001,0)" xlink:href="#bh"/><use transform="matrix(0.05,0,0,0.05,20.950000000000003,0)" xlink:href="#bm"/><use transform="matrix(0.05,0,0,0.05,30.950000000000003,0)" xlink:href="#aW"/><use transform="matrix(0.05,0,0,0.05,34.900000000000006,0)" xlink:href="#bE"/></g><g id="am"><use transform="matrix(0.05,0,0,0.05,0,0)" xlink:href="#bc"/><use transform="matrix(0.05,0,0,0.05,10,0)" xlink:href="#bh"/><use transform="matrix(0.05,0,0,0.05,20,0)" xlink:href="#aX"/><use transform="matrix(0.05,0,0,0.05,25,0)" xlink:href="#bh"/></g><g id="an"><use transform="matrix(0.05,0,0,0.05,0,0)" xlink:href="#bw"/><use transform="matrix(0.05,0,0,0.05,9,0)" xlink:href="#bb"/></g><g id="ao"><use transform="matrix(0.05,0,0,0.05,0,0)" xlink:href="#bl"/><use transform="matrix(0.05,0,0,0.05,9,0)" xlink:href="#bb"/><use transform="matrix(0.05,0,0,0.05,19,0)" xlink:href="#aV"/><use transform="matrix(0.05,0,0,0.05,29,0)" xlink:href="#bw"/><use transform="matrix(0.05,0,0,0.05,38,0)" xlink:href="#bd"/><use transform="matrix(0.05,0,0,0.05,48,0)" xlink:href="#bi"/><use transform="matrix(0.05,0,0,0.05,53.95,0)" xlink:href="#bS"/></g><g id="ap"><use transform="matrix(0.05,0,0,0.05,0,0)" xlink:href="#ba"/><use transform="matrix(0.05,0,0,0.05,3.95,0)" xlink:href="#bb"/><use transform="matrix(0.05,0,0,0.05,13.949999999999998,0)" xlink:href="#bc"/><use transform="matrix(0.05,0,0,0.05,23.95,0)" xlink:href="#aV"/><use transform="matrix(0.05,0,0,0.05,33.95,0)" xlink:href="#bd"/><use transform="matrix(0.05,0,0,0.05,43.95,0)" xlink:href="#aX"/><use transform="matrix(0.05,0,0,0.05,48.95,0)" xlink:href="#bp"/><use transform="matrix(0.05,0,0,0.05,57.95,0)" xlink:href="#bb"/></g><path fill="#333" d="M240 0l2-218c-23 76-54 145-80 218h-23L58-218 59 0H30v-248h44l77 211c21-75 51-140 76-211h43V0h-30" id="bU"/><g id="aq"><use transform="matrix(0.05,0,0,0.05,0,0)" xlink:href="#bU"/><use transform="matrix(0.05,0,0,0.05,14.950000000000001,0)" xlink:href="#aW"/><use transform="matrix(0.05,0,0,0.05,18.900000000000002,0)" xlink:href="#bp"/><use transform="matrix(0.05,0,0,0.05,27.900000000000002,0)" xlink:href="#by"/><use transform="matrix(0.05,0,0,0.05,37.900000000000006,0)" xlink:href="#bh"/><use transform="matrix(0.05,0,0,0.05,47.900000000000006,0)" xlink:href="#bk"/></g><path fill="#333" d="M160-131c35 5 61 23 61 61C221 17 115-2 30 0v-248c76 3 177-17 177 60 0 33-19 50-47 57zm-97-11c50-1 110 9 110-42 0-47-63-36-110-37v79zm0 115c55-2 124 14 124-45 0-56-70-42-124-44v89" id="bV"/><g id="ar"><use transform="matrix(0.05,0,0,0.05,0,0)" xlink:href="#bV"/><use transform="matrix(0.05,0,0,0.05,12,0)" xlink:href="#bh"/><use transform="matrix(0.05,0,0,0.05,22,0)" xlink:href="#bl"/><use transform="matrix(0.05,0,0,0.05,31,0)" xlink:href="#bk"/><use transform="matrix(0.05,0,0,0.05,34.95,0)" xlink:href="#bb"/><use transform="matrix(0.05,0,0,0.05,44.95,0)" xlink:href="#bi"/></g><path fill="#333" d="M153-248C145-148 188 4 80 4 36 3 13-21 6-62l32-5c4 25 16 42 43 43 27 0 39-20 39-49v-147H72v-28h81" id="bW"/><g id="as"><use transform="matrix(0.05,0,0,0.05,0,0)" xlink:href="#bW"/><use transform="matrix(0.05,0,0,0.05,9,0)" xlink:href="#bb"/><use transform="matrix(0.05,0,0,0.05,19,0)" xlink:href="#bc"/><use transform="matrix(0.05,0,0,0.05,29,0)" xlink:href="#aV"/><use transform="matrix(0.05,0,0,0.05,39,0)" xlink:href="#bv"/></g><g id="at"><use transform="matrix(0.05,0,0,0.05,0,0)" xlink:href="#bl"/><use transform="matrix(0.05,0,0,0.05,9,0)" xlink:href="#bb"/></g><use transform="matrix(0.05,0,0,0.05,0,0)" xlink:href="#bd" id="au"/><path fill="#333" d="M54-142c48-35 137-8 131 61C196 18 31 33 14-55l32-4c7 23 22 37 52 37 35-1 51-22 54-58 4-55-73-65-99-34H22l8-134h141v27H59" id="bX"/><g id="av"><use transform="matrix(0.05,0,0,0.05,0,0)" xlink:href="#bX"/><use transform="matrix(0.05,0,0,0.05,10,0)" xlink:href="#bQ"/></g><g id="aw"><use transform="matrix(0.05,0,0,0.05,0,0)" xlink:href="#bm"/><use transform="matrix(0.05,0,0,0.05,10,0)" xlink:href="#bd"/><use transform="matrix(0.05,0,0,0.05,20,0)" xlink:href="#be"/><use transform="matrix(0.05,0,0,0.05,29,0)" xlink:href="#bz"/><use transform="matrix(0.05,0,0,0.05,39,0)" xlink:href="#bl"/><use transform="matrix(0.05,0,0,0.05,48,0)" xlink:href="#bn"/></g><path fill="#333" d="M158-269h-36c-13-16-32-26-41-46 30-2 39 17 59 25 19-9 27-27 57-25-8 20-27 29-39 46zm54 90c-10-28-35-45-73-45-59 0-87 40-87 99 0 60 29 101 89 101 43 0 62-24 78-52l27 14C228-24 195 4 139 4 59 4 22-46 18-125c-6-104 99-153 187-111 19 9 31 26 39 46" id="bY"/><g id="ax"><use transform="matrix(0.05,0,0,0.05,0,0)" xlink:href="#bY"/><use transform="matrix(0.05,0,0,0.05,12.950000000000001,0)" xlink:href="#bb"/><use transform="matrix(0.05,0,0,0.05,22.950000000000003,0)" xlink:href="#be"/><use transform="matrix(0.05,0,0,0.05,31.950000000000003,0)" xlink:href="#bb"/><use transform="matrix(0.05,0,0,0.05,41.95,0)" xlink:href="#ba"/></g><path fill="#333" d="M126-127c33 6 58 20 58 59 0 88-139 92-164 29-3-8-5-16-6-25l32-3c6 27 21 44 54 44 32 0 52-15 52-46 0-38-36-46-79-43v-28c39 1 72-4 72-42 0-27-17-43-46-43-28 0-47 15-49 41l-32-3c6-42 35-63 81-64 48-1 79 21 79 65 0 36-21 52-52 59" id="bZ"/><g id="ay"><use transform="matrix(0.05,0,0,0.05,0,0)" xlink:href="#bZ"/><use transform="matrix(0.05,0,0,0.05,10,0)" xlink:href="#bP"/></g><g id="az"><use transform="matrix(0.05,0,0,0.05,0,0)" xlink:href="#bD"/><use transform="matrix(0.05,0,0,0.05,14.950000000000001,0)" xlink:href="#aW"/><use transform="matrix(0.05,0,0,0.05,18.900000000000002,0)" xlink:href="#aV"/><use transform="matrix(0.05,0,0,0.05,28.900000000000002,0)" xlink:href="#bz"/><use transform="matrix(0.05,0,0,0.05,38.900000000000006,0)" xlink:href="#aX"/></g><g id="aA"><use transform="matrix(0.05,0,0,0.05,0,0)" xlink:href="#bc"/><use transform="matrix(0.05,0,0,0.05,10,0)" xlink:href="#bh"/><use transform="matrix(0.05,0,0,0.05,20,0)" xlink:href="#bk"/><use transform="matrix(0.05,0,0,0.05,23.95,0)" xlink:href="#bE"/><use transform="matrix(0.05,0,0,0.05,32.95,0)" xlink:href="#aZ"/></g><g id="aB"><use transform="matrix(0.05,0,0,0.05,0,0)" xlink:href="#bm"/><use transform="matrix(0.05,0,0,0.05,10,0)" xlink:href="#bd"/><use transform="matrix(0.05,0,0,0.05,20,0)" xlink:href="#be"/><use transform="matrix(0.05,0,0,0.05,29,0)" xlink:href="#bz"/><use transform="matrix(0.05,0,0,0.05,39,0)" xlink:href="#bl"/></g></defs></g></svg>